<?xml version="1.0" encoding="UTF-8" standalone="no"?>
<svg
   viewBox="0 0 36 36"
   version="1.1"
   id="svg153"
   sodipodi:docname="cheezBurris.svg"
   inkscape:version="1.1 (c68e22c387, 2021-05-23)"
   inkscape:export-filename="/run/media/fdschonborn/Elements/Imágenes/cheezBurris.png"
   inkscape:export-xdpi="1365.3334"
   inkscape:export-ydpi="1365.3334"
   xmlns:inkscape="http://www.inkscape.org/namespaces/inkscape"
   xmlns:sodipodi="http://sodipodi.sourceforge.net/DTD/sodipodi-0.dtd"
   xmlns="http://www.w3.org/2000/svg"
   xmlns:svg="http://www.w3.org/2000/svg">
  <defs
     id="defs157" />
  <sodipodi:namedview
     id="namedview155"
     pagecolor="#ffffff"
     bordercolor="#666666"
     borderopacity="1.0"
     inkscape:pageshadow="2"
     inkscape:pageopacity="0.0"
     inkscape:pagecheckerboard="0"
     showgrid="false"
     inkscape:zoom="21.75"
     inkscape:cx="24.114943"
     inkscape:cy="19.011494"
     inkscape:window-width="1920"
     inkscape:window-height="998"
     inkscape:window-x="0"
     inkscape:window-y="0"
     inkscape:window-maximized="1"
     inkscape:current-layer="svg153" />
  <path
     fill="#D99E82"
     d="M18 20.411c-9.371 0-16.967-.225-16.967 6.427C1.033 33.487 8.629 35 18 35c9.371 0 16.967-1.513 16.967-8.162 0-6.651-7.596-6.427-16.967-6.427z"
     id="path139" />
  <path
     fill="#662113"
     d="M34.47 20.916S26.251 19.932 18 19.89c-8.251.042-16.47 1.026-16.47 1.026C.717 27.39 7.467 30.057 18 30.057s17.283-2.667 16.47-9.141z"
     id="path141"
     style="fill:#f74c00" />
  <path
     fill="#FFCC4D"
     d="M33.886 18.328l-31.855.646c-1.1 0-2.021 2.229-.854 2.812 8.708 2.708 15.708 5.448 15.708 5.448.962.532 1.287.534 2.25.003 0 0 9.666-3.868 15.875-5.493.881-.23-.025-3.416-1.124-3.416z"
     id="path143" />
  <g
     id="g264"
     transform="translate(0,5.1127874)">
    <path
       fill="#d99e82"
       d="m 18,0.524 c -9.371,0 -16.967,4.391 -16.967,11.042 0,6.125 7.596,6.375 16.967,6.375 9.371,0 16.967,-0.25 16.967,-6.375 C 34.967,4.914 27.371,0.524 18,0.524 Z"
       id="path149" />
    <path
       d="M 10.784,3.695 C 10.286,3.376 9.625,3.522 9.307,4.02 8.989,4.518 9.134,5.18 9.632,5.497 10.13,5.816 11.392,6.054 11.711,5.556 12.029,5.058 11.282,4.013 10.784,3.695 Z M 20.518,2.66 C 19.956,2.842 18.969,3.666 19.152,4.228 19.335,4.79 20.616,4.876 21.178,4.694 21.74,4.512 22.047,3.908 21.864,3.346 21.682,2.785 21.078,2.477 20.518,2.66 Z m 10.909,7.035 c -0.452,-0.38 -1.585,0.225 -1.966,0.677 -0.38,0.453 -0.321,1.127 0.131,1.507 0.452,0.38 1.127,0.321 1.507,-0.131 0.381,-0.453 0.781,-1.673 0.328,-2.053 z m -3.643,-5 C 27.286,4.377 26.625,4.523 26.306,5.021 25.988,5.519 26.134,6.18 26.632,6.498 27.13,6.817 28.392,7.055 28.71,6.557 29.029,6.058 28.282,5.013 27.784,4.695 Z m -15,7 c -0.498,-0.318 -1.159,-0.172 -1.478,0.326 -0.318,0.497 -0.172,1.159 0.326,1.476 0.498,0.319 1.76,0.558 2.078,0.059 0.319,-0.498 -0.428,-1.543 -0.926,-1.861 z M 15.83,6.887 C 15.494,7.373 15.21,8.626 15.697,8.962 16.183,9.298 17.254,8.588 17.59,8.102 17.926,7.616 17.803,6.95 17.317,6.614 16.832,6.278 16.165,6.401 15.83,6.887 Z m 7.954,4.808 c -0.498,-0.318 -1.159,-0.172 -1.478,0.326 -0.318,0.497 -0.172,1.16 0.326,1.476 0.498,0.319 1.76,0.558 2.078,0.059 0.319,-0.498 -0.428,-1.543 -0.926,-1.861 z M 4.948,7.808 C 4.554,8.249 4.115,9.456 4.556,9.85 4.995,10.244 6.147,9.676 6.541,9.235 6.936,8.795 6.898,8.119 6.458,7.724 6.019,7.33 5.342,7.368 4.948,7.808 Z"
       fill="#ffe8b6"
       id="path151" />
  </g>
  <g
     id="g712"
     style="clip-rule:evenodd;fill-rule:evenodd;stroke-linejoin:round;stroke-miterlimit:1.41421"
     transform="matrix(0.03120495,0,0,0.03120495,-0.69924527,10.752778)">
    <g
       transform="translate(747.12,477.333)"
       id="g597">
      <path
         d="m 0,171.974 c 1.663,-1.42 2.536,-2.264 2.536,-2.264 L -134.448,159.687 C -18.12,0 69.421,126.835 79.335,140.497 v 31.477 z"
         style="fill-rule:nonzero"
         id="path595" />
    </g>
    <g
       transform="translate(966.094,811.034)"
       id="g601">
      <path
         d="m 0,-314.014 c 0,0 -15.576,62.041 -112.453,127.238 l -27.166,6.367 c 0,0 -87.881,-160.259 -212.383,20.334 0,0 38.802,-22.591 142.822,4.92 0,0 -47.85,73.239 -144.242,70.989 0,0 92.373,110.82 232.94,-49.252 0,0 148.595,-57.463 160.646,-180.596 z"
         style="fill:#f74c00;fill-rule:nonzero"
         id="path599" />
    </g>
  </g>
  <g
     id="g706"
     style="clip-rule:evenodd;fill-rule:evenodd;stroke-linejoin:round;stroke-miterlimit:1.41421"
     transform="matrix(0.03120495,0,0,0.03120495,-0.69924527,10.752778)">
    <g
       transform="translate(450.328,483.629)"
       id="g593">
      <path
         d="m 0,167.33 c -1.664,-1.42 -2.536,-2.262 -2.536,-2.262 L 140.006,153.391 C 23.733,0 -69.418,122.193 -79.333,135.855 v 31.475 z"
         style="fill-rule:nonzero"
         id="path591" />
    </g>
    <g
       transform="translate(441.397,687.635)"
       id="g621">
      <path
         d="M 0,-25.102 C 91.833,-36.676 144.904,-37.754 144.904,-37.754 22.037,-199.838 -77.661,-53.098 -77.661,-53.098 c -24.982,-8.932 -50.453,-43.613 -69.477,-75.59 l -76.237,-22.58 C -135.502,-2.127 -70.08,0.146 -70.08,0.146 66.134,174.736 130.663,34.441 130.663,34.441 54.195,25.759 0,-25.102 0,-25.102"
         style="fill:#f74c00;fill-rule:nonzero"
         id="path619" />
    </g>
  </g>
</svg>
