<svg width="512" height="512" xmlns="http://www.w3.org/2000/svg" clip-rule="evenodd">
 <metadata id="metadata98">image/svg+xml</metadata>

 <g>
  <title>Layer 1</title>
  <g id="g57" transform="matrix(0.85785312,0,0,0.85785312,598.15373,371.86178)">
   <path fill="#a52b00" fill-rule="nonzero" id="path55" d="m0,-7.203l-12.072,-25.006c0.063,-0.947 0.111,-1.898 0.111,-2.853c0,-28.346 -29.478,-54.471 -79.069,-75.389l0,17.393c-4.836,-1.919 -9.871,-3.787 -15.117,-5.593l0,-8.108c-70.874,-25.56 -176.383,-41.778 -294.241,-41.778c-102.973,0 -196.529,12.38 -265.791,32.554l0,28.246l-0.002,0l0,-34.188c-70.96,22.55 -114.954,53.877 -114.954,88.515c0,5.46 1.101,10.838 3.217,16.113l-7.228,12.867c0,0 -5.792,7.512 4.406,23.362c8.994,13.977 54.048,68.685 77.827,97.335c10.214,14.687 -25.21441,28.47407 -24.60941,27.59907c0.955,-1.386 36.00441,-33.70107 15.72041,-65.16307c-9.466,-16.895 -20.768,-39.283 -27.554,-55.819c18.942,11.99 130.23,68.029 357.232,67.801c231.994,-0.232 335.115,-72.851 346.433,-82.737c-3.955,15.889 -17.468,48.033 -28.245,70.638c-17.706,32.331 -24.12,60.478 -23.296,61.87c0.524,0.878 6.565,-8.441 15.476,-23.543c20.731,-29.543 60.017,-85.939 67.867,-100.305c8.896,-16.285 3.889,-23.811 3.889,-23.811"/>
  </g>
  <g id="g61" transform="matrix(0.85785312,0,0,0.85785312,658.28065,190.44558)">
   <path fill="#f74c00" fill-rule="nonzero" id="path59" d="m0,204.135l-79.343,-58.446c-0.745,-2.6 -1.49,-5.201 -2.26,-7.781l26.062,-37.754c2.66,-3.84 3.196,-8.832 1.469,-13.211c-1.731,-4.358 -5.515,-7.482 -9.99,-8.247l-44.066,-7.479c-1.709,-3.485 -3.498,-6.916 -5.294,-10.319l18.515,-42.388c1.903,-4.317 1.505,-9.335 -1.022,-13.254c-2.517,-3.937 -6.786,-6.237 -11.338,-6.058l-44.724,1.625c-2.315,-3.016 -4.667,-6.003 -7.067,-8.937l10.278,-45.432c1.042,-4.612 -0.274,-9.443 -3.487,-12.794c-3.195,-3.339 -7.838,-4.722 -12.253,-3.639l-43.562,10.709c-2.82,-2.493 -5.688,-4.953 -8.588,-7.365l1.567,-46.641c0.168,-4.721 -2.033,-9.208 -5.812,-11.829c-3.777,-2.636 -8.57,-3.032 -12.701,-1.074l-40.638,19.321c-3.273,-1.878 -6.565,-3.737 -9.892,-5.537l-7.181,-45.961c-0.729,-4.656 -3.724,-8.612 -7.919,-10.418c-4.185,-1.817 -8.976,-1.228 -12.648,1.536l-36.232,27.185c-3.569,-1.185 -7.153,-2.32 -10.779,-3.407l-15.617,-43.585c-1.588,-4.443 -5.25,-7.706 -9.716,-8.624c-4.45,-0.909 -9.028,0.632 -12.114,4.08l-30.499,34.119c-3.685,-0.423 -7.377,-0.81 -11.076,-1.131l-23.549,-39.676c-2.384,-4.018 -6.597,-6.464 -11.139,-6.464c-4.529,0 -8.75,2.446 -11.118,6.464l-23.555,39.676c-3.701,0.321 -7.408,0.708 -11.088,1.131l-30.499,-34.119c-3.09,-3.448 -7.684,-4.989 -12.122,-4.08c-4.46,0.93 -8.128,4.181 -9.707,8.624l-15.629,43.585c-3.621,1.087 -7.205,2.23 -10.78,3.407l-36.22,-27.185c-3.683,-2.774 -8.478,-3.361 -12.668,-1.536c-4.181,1.806 -7.188,5.762 -7.913,10.418l-7.186,45.961c-3.322,1.8 -6.614,3.649 -9.895,5.537l-40.634,-19.321c-4.127,-1.966 -8.945,-1.562 -12.704,1.074c-3.773,2.621 -5.98,7.108 -5.81,11.829l1.562,46.641c-2.894,2.412 -5.756,4.872 -8.591,7.365l-43.554,-10.709c-4.423,-1.074 -9.062,0.3 -12.265,3.639c-3.221,3.351 -4.526,8.182 -3.491,12.794l10.257,45.432c-2.378,2.945 -4.733,5.921 -7.042,8.937l-44.724,-1.625c-4.513,-0.135 -8.821,2.121 -11.343,6.058c-2.527,3.919 -2.91,8.937 -1.029,13.254l18.528,42.388c-1.799,3.403 -3.586,6.834 -5.309,10.319l-44.063,7.479c-4.479,0.754 -8.252,3.876 -9.994,8.247c-1.728,4.379 -1.167,9.371 1.474,13.211l26.066,37.754c-0.201,0.667 -0.387,1.339 -0.587,2.008l-73.696,78.285c0,0 -11.296,8.851 5.147,29.654c14.5,18.351 88.951,91.096 128.271,129.205c16.606,19.348 27.984,31.329 29.172,30.293c1.876,-1.645 -7.972,-36.847 -40.682,-78.149c-25.216,-37.056 -57.941,-94.049 -50.267,-100.618c0,0 8.729,-11.081 26.242,-19.057c0.641,0.512 -0.662,-0.507 0,0c0,0 369.595,170.491 712.429,2.884c39.164,-7.025 62.873,13.955 62.873,13.955c8.176,4.74 -12.996,63.344 -30.407,102.137c-23.679,44.05 -27.151,78.422 -25.144,79.614c1.268,0.757 9.883,-12.353 22.172,-33.217c30.324,-42.253 87.646,-122.802 98.138,-142.368c11.895,-22.182 0,-28.399 0,-28.399"/>
  </g>
  <path stroke-width="6.88255" id="path218" d="m400.05722,497.60893c0,0 -16.76589,-1.14938 -21.11566,-12.33352c-4.44613,-11.41816 4.28095,-15.89181 4.28095,-15.89181c0,0 -13.1732,0.40606 -18.04605,-13.35903c-4.59754,-12.9736 6.59349,-18.92701 6.59349,-18.92701c0,0 -12.87726,-2.11294 -16.63512,-15.7748c-3.16598,-11.50074 8.02504,-20.06951 8.02504,-20.06951l-84.02216,0c-6.60036,0 -17.72256,-3.73035 -17.72944,-17.50232c-0.0138,-13.76511 11.41815,-16.91043 17.72944,-16.91043l141.09225,0c6.88256,0 6.88256,-6.88255 0,-6.88255l-18.34886,0c-26.09863,0 -42.2795,-14.02664 -46.74627,-18.93389c-4.47366,-4.90726 -6.74491,-11.47321 -5.0518,-19.40879c2.85626,-13.46226 13.21449,-10.52341 22.00351,-6.71049c21.18449,9.20197 51.37135,15.51327 65.64575,17.4335c40.31797,5.4441 71.40645,39.98073 71.44774,81.79221c0.0275,45.60377 -36.46375,83.44402 -82.06751,83.47844l-27.0553,0z" fill="#ffdc5d"/>
  <path clip-rule="evenodd" fill-rule="evenodd" stroke-width="6.88255" stroke-linejoin="round" stroke-miterlimit="1.41421" id="path218-4" d="m113.17516,497.60893c0,0 16.76589,-1.14938 21.11566,-12.33352c4.44613,-11.41816 -4.28095,-15.89181 -4.28095,-15.89181c0,0 13.1732,0.40606 18.04605,-13.35903c4.59754,-12.9736 -6.59348,-18.92701 -6.59348,-18.92701c0,0 12.87725,-2.11294 16.63511,-15.7748c3.16598,-11.50074 -8.02504,-20.06951 -8.02504,-20.06951l84.02215,0c6.60036,0 17.72256,-3.73035 17.72944,-17.50232c0.0138,-13.76511 -11.41815,-16.91043 -17.72944,-16.91043l-141.09224,0c-6.88256,0 -6.88256,-6.88255 0,-6.88255l18.34886,0c26.09863,0 42.2795,-14.02664 46.74627,-18.93389c4.47367,-4.90726 6.74491,-11.47321 5.0518,-19.40879c-2.85626,-13.46226 -13.21449,-10.52341 -22.00351,-6.71049c-21.18449,9.20197 -51.37135,15.51327 -65.64575,17.4335c-40.31797,5.4441 -71.40645,39.98073 -71.44774,81.79221c-0.02754,45.60377 36.46375,83.44402 82.06751,83.47844l27.0553,0z" fill="#ffdc5d"/>
  <path stroke-width="14.0165" id="path6" d="m429.50681,167.74522c-12.65684,38.4751 -48.84726,66.08747 -91.0227,66.08747c-2.01836,0 -4.05075,-0.0701 -6.09715,-0.19624c-20.70227,-1.30352 -39.83469,-9.18076 -55.3649,-22.20202c0.5046,6.93813 1.06525,13.97438 1.90623,21.5853c2.13051,19.45481 12.39053,34.78878 29.65877,44.33397c11.49348,6.36346 25.22958,9.6433 39.42822,10.54036c24.30449,1.52778 50.03866,-3.9246 68.30207,-12.74094c19.30062,-9.32092 31.84532,-26.09859 34.42435,-46.04397c2.56501,-19.83325 -4.96182,-40.98404 -21.23489,-61.36393z" fill="#ffffff"/>
  <path stroke-width="14.0165" id="path8" d="m303.5832,104.88153c-18.17932,7.70903 -27.28999,32.2518 -27.71048,74.13289l0.54664,0.95312c12.57273,18.48767 33.26099,31.17254 57.29916,32.68631c1.59787,0.0981 3.19575,0.15419 4.77961,0.15419c36.91927,0 67.96567,-27.14983 73.62831,-63.41034c-1.61189,-1.47172 -3.09763,-2.97148 -4.80764,-4.42919c-52.07104,-44.43208 -90.64426,-45.65151 -103.7356,-40.08698z" fill="#000000"/>
  <path stroke-width="14.0165" id="path10" d="m338.48411,233.83269c42.17544,0 78.36586,-27.61237 91.0227,-66.08747c-4.96182,-6.20929 -10.80667,-12.33446 -17.39439,-18.34752c-5.66264,36.26051 -36.70903,63.41034 -73.62831,63.41034c-1.58386,0 -3.18173,-0.056 -4.7796,-0.15419c-24.03818,-1.51377 -44.72643,-14.19864 -57.29917,-32.68631l-0.54664,-0.95312c-0.0981,9.82552 0.29434,20.6462 1.16336,32.42001c15.53021,13.02126 34.66263,20.8985 55.3649,22.20202c2.0464,0.14017 4.07879,0.19624 6.09715,0.19624z" fill="#666666"/>
  <circle stroke-width="14.0165" id="circle12" r="15.51619" cy="148.64082" cx="304.45221" fill="#ffffff"/>
  <path stroke-width="14.0165" id="path14" d="m174.74417,233.83269c-42.17544,0 -78.36586,-27.61237 -91.0227,-66.08747c-16.27307,20.37989 -23.78588,41.53068 -21.23489,61.34991c2.59303,19.94538 15.12373,36.73707 34.42435,46.04397c18.26341,8.81634 43.98356,14.26873 68.30207,12.74094c14.19864,-0.89706 27.93474,-4.16288 39.42822,-10.54035c17.25422,-9.5452 27.51425,-24.87917 29.65876,-44.33397c0.84099,-7.59691 1.40164,-14.60512 1.90623,-21.52924c-15.46011,12.93716 -34.62057,20.84243 -55.36489,22.14596c-2.0464,0.15418 -4.07879,0.21025 -6.09715,0.21025z" fill="#ffffff"/>
  <path stroke-width="14.0165" id="path16" d="m174.74417,212.80804c1.58385,0 3.18173,-0.056 4.7796,-0.15419c24.03818,-1.51377 44.72643,-14.19864 57.29917,-32.68631l0.54664,-0.95312c-0.43451,-41.88109 -9.53117,-66.42386 -27.71048,-74.13289c-13.09135,-5.56453 -51.67858,-4.3451 -103.73561,40.07297c-1.71,1.4577 -3.18172,2.95746 -4.80763,4.42919c5.66264,36.27452 36.70903,63.42435 73.62831,63.42435z" fill="#000000"/>
  <path stroke-width="14.0165" id="path18" d="m237.35556,179.01442l-0.54664,0.95312c-12.57273,18.48767 -33.26099,31.17254 -57.29916,32.68631c-1.59787,0.0981 -3.19575,0.15419 -4.77961,0.15419c-36.91928,0 -67.96567,-27.14983 -73.62831,-63.41034c-6.58772,6.01306 -12.43257,12.13823 -17.39438,18.34752c12.65683,38.4751 48.84725,66.08747 91.02269,66.08747c2.01837,0 4.05075,-0.0701 6.09715,-0.19624c20.74432,-1.30352 39.90478,-9.20879 55.3649,-22.14596c0.86902,-11.78782 1.27549,-22.62252 1.16336,-32.47607z" fill="#666666"/>
  <path stroke-width="14.0165" id="path20" d="m141.4131,164.12897c8.55002,-0.53262 15.05364,-7.90526 14.507,-16.45528c-0.53262,-8.55003 -7.90526,-15.05365 -16.45529,-14.52103c-8.55002,0.53263 -15.05365,7.90527 -14.52101,16.4553c0.54664,8.55001 7.91928,15.05364 16.4693,14.52101z" fill="#ffffff"/>
  <path transform="rotate(-180, 251.824, 317.463)" stroke-width="7.10426" id="path4" d="m198.64871,304.11364c0.31969,1.27167 8.29776,31.10954 53.17535,31.10954c44.8847,0 52.85568,-29.83787 53.17537,-31.10954c0.39073,-1.54162 -0.30548,-3.14008 -1.68371,-3.93576c-1.38533,-0.78857 -3.11877,-0.55413 -4.26255,0.54703c-0.13499,0.13498 -13.88172,13.1855 -47.22911,13.1855c-33.34737,0 -47.10122,-13.05052 -47.22909,-13.17839c-0.68201,-0.67491 -1.59135,-1.03012 -2.5007,-1.03012c-0.59676,0 -1.20062,0.14919 -1.74765,0.45467c-1.39243,0.79568 -2.08865,2.40835 -1.69791,3.95707z" fill="#000000"/>
 </g>
</svg>