<?xml version="1.0" encoding="UTF-8" standalone="no"?>
<svg
   xmlns:dc="http://purl.org/dc/elements/1.1/"
   xmlns:cc="http://creativecommons.org/ns#"
   xmlns:rdf="http://www.w3.org/1999/02/22-rdf-syntax-ns#"
   xmlns:svg="http://www.w3.org/2000/svg"
   xmlns="http://www.w3.org/2000/svg"
   xmlns:sodipodi="http://sodipodi.sourceforge.net/DTD/sodipodi-0.dtd"
   xmlns:inkscape="http://www.inkscape.org/namespaces/inkscape"
   width="100%"
   height="100%"
   viewBox="0 0 1200 800"
   version="1.1"
   xml:space="preserve"
   style="fill-rule:evenodd;clip-rule:evenodd;stroke-linejoin:round;stroke-miterlimit:1.41421;"
   id="svg39"
   sodipodi:docname="ferrisWeary.svg"
   inkscape:version="1.0.1 (3bc2e813f5, 2020-09-07)"
   inkscape:export-filename="/run/media/fdschonborn/Elements/Imágenes/ferrisWeary.png"
   inkscape:export-xdpi="96"
   inkscape:export-ydpi="96"><metadata
   id="metadata45"><rdf:RDF><cc:Work
       rdf:about=""><dc:format>image/svg+xml</dc:format><dc:type
         rdf:resource="http://purl.org/dc/dcmitype/StillImage" /><dc:title></dc:title></cc:Work></rdf:RDF></metadata><defs
   id="defs43">
        
        
        
        
        
        
        
        
        
    </defs><sodipodi:namedview
   pagecolor="#ffffff"
   bordercolor="#666666"
   borderopacity="1"
   objecttolerance="10"
   gridtolerance="10"
   guidetolerance="10"
   inkscape:pageopacity="0"
   inkscape:pageshadow="2"
   inkscape:window-width="1920"
   inkscape:window-height="1007"
   id="namedview41"
   showgrid="false"
   inkscape:zoom="0.99706986"
   inkscape:cx="338.87621"
   inkscape:cy="381.26623"
   inkscape:window-x="0"
   inkscape:window-y="0"
   inkscape:window-maximized="1"
   inkscape:current-layer="svg39" />
    <g
   transform="translate(1009.4,506.362)"
   id="g4">
            <path
   d="m 0,-7.203 -12.072,-25.006 c 0.063,-0.947 0.111,-1.898 0.111,-2.853 0,-28.346 -29.478,-54.471 -79.069,-75.389 v 17.393 c -4.836,-1.919 -9.871,-3.787 -15.117,-5.593 v -8.108 c -70.874,-25.56 -176.383,-41.778 -294.241,-41.778 -102.973,0 -196.529,12.38 -265.791,32.554 v 28.246 h -0.002 v -34.188 c -70.96,22.55 -114.954,53.877 -114.954,88.515 0,5.46 1.101,10.838 3.217,16.113 l -7.228,12.867 c 0,0 -5.792,7.512 4.406,23.362 8.994,13.977 54.048,68.685 77.827,97.335 10.214,14.687 17.141,23.734 17.746,22.859 0.955,-1.386 -6.351,-28.961 -26.635,-60.423 -9.466,-16.895 -20.768,-39.283 -27.554,-55.819 18.942,11.99 130.23,68.029 357.232,67.801 231.994,-0.232 335.115,-72.851 346.433,-82.737 -3.955,15.889 -17.468,48.033 -28.245,70.638 -17.706,32.331 -24.12,60.478 -23.296,61.87 0.524,0.878 6.565,-8.441 15.476,-23.543 C -51.025,87.37 -11.739,30.974 -3.889,16.608 5.007,0.323 0,-7.203 0,-7.203"
   style="fill:#a52b00;fill-rule:nonzero"
   id="path2" />
        </g><g
   transform="translate(1079.49,294.885)"
   id="g8">
            <path
   d="m 0,204.135 -79.343,-58.446 c -0.745,-2.6 -1.49,-5.201 -2.26,-7.781 l 26.062,-37.754 c 2.66,-3.84 3.196,-8.832 1.469,-13.211 -1.731,-4.358 -5.515,-7.482 -9.99,-8.247 l -44.066,-7.479 c -1.709,-3.485 -3.498,-6.916 -5.294,-10.319 L -94.907,18.51 c 1.903,-4.317 1.505,-9.335 -1.022,-13.254 -2.517,-3.937 -6.786,-6.237 -11.338,-6.058 l -44.724,1.625 c -2.315,-3.016 -4.667,-6.003 -7.067,-8.937 l 10.278,-45.432 c 1.042,-4.612 -0.274,-9.443 -3.487,-12.794 -3.195,-3.339 -7.838,-4.722 -12.253,-3.639 l -43.562,10.709 c -2.82,-2.493 -5.688,-4.953 -8.588,-7.365 l 1.567,-46.641 c 0.168,-4.721 -2.033,-9.208 -5.812,-11.829 -3.777,-2.636 -8.57,-3.032 -12.701,-1.074 l -40.638,19.321 c -3.273,-1.878 -6.565,-3.737 -9.892,-5.537 l -7.181,-45.961 c -0.729,-4.656 -3.724,-8.612 -7.919,-10.418 -4.185,-1.817 -8.976,-1.228 -12.648,1.536 l -36.232,27.185 c -3.569,-1.185 -7.153,-2.32 -10.779,-3.407 l -15.617,-43.585 c -1.588,-4.443 -5.25,-7.706 -9.716,-8.624 -4.45,-0.909 -9.028,0.632 -12.114,4.08 l -30.499,34.119 c -3.685,-0.423 -7.377,-0.81 -11.076,-1.131 l -23.549,-39.676 c -2.384,-4.018 -6.597,-6.464 -11.139,-6.464 -4.529,0 -8.75,2.446 -11.118,6.464 l -23.555,39.676 c -3.701,0.321 -7.408,0.708 -11.088,1.131 l -30.499,-34.119 c -3.09,-3.448 -7.684,-4.989 -12.122,-4.08 -4.46,0.93 -8.128,4.181 -9.707,8.624 l -15.629,43.585 c -3.621,1.087 -7.205,2.23 -10.78,3.407 l -36.22,-27.185 c -3.683,-2.774 -8.478,-3.361 -12.668,-1.536 -4.181,1.806 -7.188,5.762 -7.913,10.418 l -7.186,45.961 c -3.322,1.8 -6.614,3.649 -9.895,5.537 l -40.634,-19.321 c -4.127,-1.966 -8.945,-1.562 -12.704,1.074 -3.773,2.621 -5.98,7.108 -5.81,11.829 l 1.562,46.641 c -2.894,2.412 -5.756,4.872 -8.591,7.365 l -43.554,-10.709 c -4.423,-1.074 -9.062,0.3 -12.265,3.639 -3.221,3.351 -4.526,8.182 -3.491,12.794 l 10.257,45.432 c -2.378,2.945 -4.733,5.921 -7.042,8.937 l -44.724,-1.625 c -4.513,-0.135 -8.821,2.121 -11.343,6.058 -2.527,3.919 -2.91,8.937 -1.029,13.254 l 18.528,42.388 c -1.799,3.403 -3.586,6.834 -5.309,10.319 l -44.063,7.479 c -4.479,0.754 -8.252,3.876 -9.994,8.247 -1.728,4.379 -1.167,9.371 1.474,13.211 l 26.066,37.754 c -0.201,0.667 -0.387,1.339 -0.587,2.008 l -73.696,78.285 c 0,0 -11.296,8.851 5.147,29.654 14.5,18.351 88.951,91.096 128.271,129.205 16.606,19.348 27.984,31.329 29.172,30.293 1.876,-1.645 -7.972,-36.847 -40.682,-78.149 -25.216,-37.056 -57.941,-94.049 -50.267,-100.618 0,0 8.729,-11.081 26.242,-19.057 0.641,0.512 -0.662,-0.507 0,0 0,0 369.595,170.491 712.429,2.884 39.164,-7.025 62.873,13.955 62.873,13.955 8.176,4.74 -12.996,63.344 -30.407,102.137 -23.679,44.05 -27.151,78.422 -25.144,79.614 1.268,0.757 9.883,-12.353 22.172,-33.217 C -67.814,332.649 -10.492,252.1 0,232.534 11.895,210.352 0,204.135 0,204.135"
   style="fill:#f74c00;fill-rule:nonzero"
   id="path6" />
        </g><g
   transform="translate(917.896,244.679)"
   id="g12">
            <path
   d="m 0,232.466 c 0,0 53.179,-2.466 123.032,-73.462 l 9.898,-21.979 c 0,0 -108.417,-107.848 60.118,-182.291 0,0 -14.755,24.112 -10.426,117.272 0,0 50.815,-17.649 65.714,-99.94 0,0 74.12,97.724 -80.502,189.377 0,0 -72.54,116.289 -174.805,105.15 z"
   style="fill:#f74c00;fill-rule:nonzero"
   id="path10" />
        </g><g
   transform="translate(269.796,270.778)"
   id="g36">
            <path
   d="m 0,190.741 c -0.667,0 -1.321,0.049 -1.973,0.101 -26.234,-5.971 -99.973,-25.185 -119.464,-56.363 0,0 99.227,-112.872 -55.86,-185.019 l 18.057,124.878 c 0,0 -47.809,-31.949 -58.126,-101.346 0,0 -116.423,84.494 51.384,165.474 0,0 15.22,57.187 161.349,102.815 l 0.107,-0.435 c 1.471,0.272 2.977,0.435 4.526,0.435 13.808,0 25.003,-11.312 25.003,-25.271 0,-13.956 -11.195,-25.269 -25.003,-25.269"
   style="fill:#f74c00;fill-rule:nonzero"
   id="path34" />
        </g>
<path
   fill="#664500"
   d="m 587.01236,267.47602 c -3.02692,-1.31606 -6.59489,-0.43868 -8.65671,2.16418 -0.13161,0.17547 -14.31575,17.57664 -48.76714,26.9645 -11.33269,3.10003 -22.38755,4.66468 -32.82825,4.66468 -14.50585,0 -22.797,-3.10004 -22.84086,-3.11466 -3.07079,-1.24295 -6.62414,-0.20473 -8.5836,2.47125 -1.97409,2.69061 -1.87173,6.36093 0.23396,8.94917 1.03822,1.2722 26.02864,31.39522 60.31917,31.39522 5.13262,0 10.26523,-0.68727 15.25162,-2.04719 41.73355,-11.37657 49.86385,-61.53288 50.18555,-63.66781 0.49717,-3.26089 -1.27219,-6.44866 -4.31374,-7.77934 z m 160.48557,31.5122 c -2.01795,-2.64673 -5.55668,-3.58259 -8.62747,-2.32503 -0.0878,0.0439 -9.25626,3.74344 -25.39986,3.74344 -9.66569,0 -19.8578,-1.30143 -30.31313,-3.87505 -34.64148,-8.52511 -49.26431,-25.57533 -49.3813,-25.70693 -2.13493,-2.57363 -5.67366,-3.40713 -8.7152,-2.00333 -3.02692,1.38916 -4.72317,4.65006 -4.13827,7.92557 0.3802,2.12031 9.76805,52.05728 51.7502,62.39561 4.5477,1.12596 9.19776,1.69626 13.8332,1.69626 35.0363,0 59.93898,-31.58531 60.9772,-32.93062 2.01795,-2.64672 2.00333,-6.28781 0.0146,-8.91992 z m -257.96135,-39.4524 c -6.55103,0 -12.50252,-4.43071 -14.16952,-11.06948 -1.94484,-7.82322 2.79296,-15.74879 10.58692,-17.72287 0.52643,-0.13161 52.53984,-14.05254 78.26139,-65.48103 3.61184,-7.22368 12.37092,-10.16287 19.62384,-6.53641 7.22367,3.61184 10.14824,12.40017 6.53641,19.62384 -31.89239,63.77016 -94.62434,80.08924 -97.27106,80.76189 -1.18446,0.29246 -2.38353,0.42406 -3.56798,0.42406 z m 233.99452,0 c -1.16982,0 -2.35427,-0.14622 -3.53871,-0.43868 -2.66136,-0.65803 -65.39331,-16.99173 -97.27108,-80.76189 -3.61183,-7.22368 -0.68726,-16.012 6.53641,-19.62384 7.20905,-3.61184 15.99738,-0.68728 19.62384,6.53641 25.70694,51.42849 77.72034,65.34942 78.26139,65.48103 7.79397,2.00332 12.53176,9.95815 10.55768,17.76674 -1.69625,6.62414 -7.63312,11.04023 -14.16953,11.04023 z M 606.54847,536.85779 c -52.97851,0 -88.1318,6.17084 -131.60547,14.62284 -9.92891,1.91558 -29.24567,0 -29.24567,-29.24567 0,-58.49132 67.19191,-131.60547 160.85114,-131.60547 93.6446,0 160.85113,73.11415 160.85113,131.60547 0,29.24567 -19.31676,31.17588 -29.24567,29.24567 -43.47366,-8.452 -78.62696,-14.62284 -131.60546,-14.62284 z"
   id="path4"
   style="fill:#000000;stroke-width:14.6228" /><path
   fill="#ffffff"
   d="m 489.56583,478.87827 c 0,0 43.86849,-14.62282 116.98264,-14.62282 73.11415,0 116.98263,14.62282 116.98263,14.62282 0,0 -29.24565,-58.49132 -116.98263,-58.49132 -87.73699,0 -116.98264,58.49132 -116.98264,58.49132 z"
   id="path6-3"
   style="fill:#ffffff;stroke-width:14.6228" /></svg>
