<?xml version="1.0" encoding="UTF-8" standalone="no"?>
<svg
   width="512"
   height="512"
   viewBox="0 0 512 512"
   version="1.1"
   xml:space="preserve"
   style="clip-rule:evenodd;fill-rule:evenodd;stroke-linejoin:round;stroke-miterlimit:1.41421"
   id="svg92"
   sodipodi:docname="ferrisAngry.svg"
   inkscape:version="1.1.1 (1:1.1+202109281949+c3084ef5ed)"
   inkscape:export-filename="/media/fdschonborn/Elements/Imágenes/ferrisInsane.png"
   inkscape:export-xdpi="96"
   inkscape:export-ydpi="96"
   xmlns:inkscape="http://www.inkscape.org/namespaces/inkscape"
   xmlns:sodipodi="http://sodipodi.sourceforge.net/DTD/sodipodi-0.dtd"
   xmlns="http://www.w3.org/2000/svg"
   xmlns:svg="http://www.w3.org/2000/svg"
   xmlns:rdf="http://www.w3.org/1999/02/22-rdf-syntax-ns#"
   xmlns:cc="http://creativecommons.org/ns#"
   xmlns:dc="http://purl.org/dc/elements/1.1/"><metadata
   id="metadata98"><rdf:RDF><cc:Work
       rdf:about=""><dc:format>image/svg+xml</dc:format><dc:type
         rdf:resource="http://purl.org/dc/dcmitype/StillImage" /></cc:Work></rdf:RDF></metadata><defs
   id="defs96">
        
        
        
        
        
        
        
        
        
    
            
        </defs><sodipodi:namedview
   pagecolor="#ffffff"
   bordercolor="#666666"
   borderopacity="1"
   objecttolerance="10"
   gridtolerance="10"
   guidetolerance="10"
   inkscape:pageopacity="0"
   inkscape:pageshadow="2"
   inkscape:window-width="1920"
   inkscape:window-height="1051"
   id="namedview94"
   showgrid="false"
   inkscape:snap-bbox="true"
   inkscape:bbox-paths="true"
   inkscape:bbox-nodes="true"
   inkscape:snap-bbox-edge-midpoints="true"
   inkscape:snap-bbox-midpoints="true"
   inkscape:object-paths="true"
   inkscape:snap-intersection-paths="true"
   inkscape:snap-smooth-nodes="true"
   inkscape:snap-midpoints="true"
   inkscape:snap-object-midpoints="true"
   inkscape:snap-center="true"
   inkscape:snap-text-baseline="true"
   inkscape:zoom="0.7380427"
   inkscape:cx="-8.1296109"
   inkscape:cy="341.44366"
   inkscape:window-x="0"
   inkscape:window-y="0"
   inkscape:window-maximized="1"
   inkscape:current-layer="svg92"
   inkscape:document-rotation="0"
   fit-margin-top="0"
   fit-margin-left="0"
   fit-margin-right="0"
   fit-margin-bottom="0"
   inkscape:pagecheckerboard="0"
   showguides="false" />
    
<g
   transform="matrix(0.85785312,0,0,0.85785312,598.15373,371.86178)"
   id="g57"
   style="fill:#b31e36;fill-opacity:1">
            <path
   d="m 0,-7.203 -12.072,-25.006 c 0.063,-0.947 0.111,-1.898 0.111,-2.853 0,-28.346 -29.478,-54.471 -79.069,-75.389 v 17.393 c -4.836,-1.919 -9.871,-3.787 -15.117,-5.593 v -8.108 c -70.874,-25.56 -176.383,-41.778 -294.241,-41.778 -102.973,0 -196.529,12.38 -265.791,32.554 v 28.246 h -0.002 v -34.188 c -70.96,22.55 -114.954,53.877 -114.954,88.515 0,5.46 1.101,10.838 3.217,16.113 l -7.228,12.867 c 0,0 -5.792,7.512 4.406,23.362 8.994,13.977 54.048,68.685 77.827,97.335 10.214,14.687 -25.21441,28.47407 -24.60941,27.59907 0.955,-1.386 36.00441,-33.70107 15.72041,-65.16307 -9.466,-16.895 -20.768,-39.283 -27.554,-55.819 18.942,11.99 130.23,68.029 357.232,67.801 231.994,-0.232 335.115,-72.851 346.433,-82.737 -3.955,15.889 -17.468,48.033 -28.245,70.638 -17.706,32.331 -24.12,60.478 -23.296,61.87 0.524,0.878 6.565,-8.441 15.476,-23.543 C -51.025,87.37 -11.739,30.974 -3.889,16.608 5.007,0.323 0,-7.203 0,-7.203"
   style="fill:#b31e36;fill-rule:nonzero;fill-opacity:1"
   id="path55"
   sodipodi:nodetypes="ccsccccsccccscccccccccccccc" />
        </g><path
   d="m 658.28065,365.56343 -68.06464,-50.13809 c -0.6391,-2.23041 -1.2782,-4.46169 -1.93875,-6.67495 L 610.63463,276.363 c 2.28189,-3.29415 2.7417,-7.57656 1.26019,-11.3331 -1.48495,-3.73852 -4.73106,-6.41845 -8.56996,-7.07471 l -37.80215,-6.41588 c -1.46607,-2.98962 -3.00077,-5.93292 -4.54148,-8.85219 l 15.88315,-36.36268 c 1.6325,-3.70335 1.29107,-8.00806 -0.87672,-11.36998 -2.15922,-3.37737 -5.82139,-5.35043 -9.72634,-5.19688 l -38.36662,1.39401 c -1.98593,-2.58728 -4.0036,-5.14969 -6.06245,-7.66663 l 8.81701,-38.97398 c 0.89389,-3.95642 -0.23505,-8.10071 -2.99133,-10.97538 -2.74084,-2.86437 -6.72385,-4.05078 -10.51128,-3.12172 l -37.36979,9.18675 c -2.41915,-2.13863 -4.87947,-4.24895 -7.36725,-6.31809 l 1.34426,-40.01113 c 0.14412,-4.049925 -1.74402,-7.899112 -4.98584,-10.147545 -3.24011,-2.2613 -7.3518,-2.60101 -10.89559,-0.921334 L 423.011,98.777111 c -2.80775,-1.611048 -5.63181,-3.205797 -8.48588,-4.749932 l -6.16025,-39.427788 c -0.62537,-3.994164 -3.19464,-7.387831 -6.79333,-8.937113 -3.59012,-1.55872 -7.70009,-1.053444 -10.85013,1.317662 l -31.08174,23.320737 c -3.06167,-1.016556 -6.13622,-1.990219 -9.24679,-2.922706 l -13.3971,-37.389528 c -1.36227,-3.811441 -4.50373,-6.610616 -8.3349,-7.398125 -3.81744,-0.779789 -7.7447,0.542163 -10.39203,3.500041 l -26.16366,29.26909 c -3.16119,-0.362872 -6.32838,-0.694861 -9.50158,-0.970232 l -20.20159,-34.03618 c -2.04512,-3.446854 -5.65925,-5.545163 -9.55562,-5.545163 -3.88522,0 -7.50622,2.098309 -9.53761,5.545163 l -20.20673,34.03618 c -3.17492,0.275371 -6.35498,0.60736 -9.51188,0.970232 l -26.16366,-29.26909 c -2.65077,-2.957878 -6.59174,-4.27983 -10.3989,-3.500041 -3.82602,0.797803 -6.97263,3.586684 -8.32718,7.398125 l -13.40738,37.389528 c -3.10629,0.932487 -6.18084,1.913013 -9.24766,2.922706 L 114.97396,46.97994 c -3.15947,-2.379685 -7.27288,-2.883244 -10.86728,-1.317662 -3.58669,1.549282 -6.166252,4.942949 -6.788195,8.937113 l -6.164533,39.427788 c -2.849788,1.544135 -5.67384,3.130306 -8.488456,4.749932 L 47.807492,82.202531 c -3.54036,-1.686539 -7.673496,-1.339966 -10.898166,0.921334 -3.23668,2.248433 -5.129962,6.09762 -4.984127,10.147545 l 1.339967,40.01113 c -2.482627,2.06914 -4.937803,4.17946 -7.369816,6.31809 l -37.362935,-9.18675 c -3.794284,-0.92134 -7.773865,0.25735 -10.521568,3.12172 -2.763145,2.87467 -3.882644,7.01896 -2.994766,10.97538 l 8.799,38.97398 c -2.039975,2.52638 -4.060219,5.07935 -6.041002,7.66663 l -38.366623,-1.39401 c -3.871491,-0.11581 -7.567122,1.81951 -9.730628,5.19688 -2.167795,3.36192 -2.496352,7.66663 -0.882731,11.36998 l 15.894303,36.36268 c -1.543278,2.91927 -3.076261,5.86257 -4.554342,8.85219 l -37.799582,6.41588 c -3.842326,0.64682 -7.079006,3.32504 -8.573386,7.07471 -1.48237,3.75654 -1.00111,8.03895 1.26448,11.3331 l 22.360797,32.38739 c -0.172429,0.57219 -0.33199,1.14866 -0.50356,1.72257 l -63.220347,67.15703 c 0,0 -9.69031,7.59286 4.41537,25.43878 12.43887,15.74246 76.306896,78.14698 110.037681,110.83891 14.245509,16.59774 24.0061615,26.87568 25.025291,25.98694 1.6093324,-1.41117 -6.838805,-31.60931 -34.899181,-67.04036 -21.631624,-31.78861 -49.704867,-80.68023 -43.121702,-86.31547 0,0 7.488199,-9.50587 22.511781,-16.3481 0.549884,0.43922 -0.567899,-0.43494 0,0 0,0 317.05822,146.25623 611.15944,2.47404 33.59696,-6.02641 53.9358,11.97135 53.9358,11.97135 7.01381,4.06622 -11.14866,54.33984 -26.08474,87.61854 -20.3131,37.78843 -23.29157,67.27456 -21.56986,68.29712 1.08776,0.64939 8.47816,-10.59706 19.02032,-28.49531 26.01354,-36.24687 75.1874,-105.34608 84.18799,-122.13083 10.20416,-19.0289 0,-24.36217 0,-24.36217"
   style="fill:#da2f47;fill-rule:nonzero;stroke-width:0.857853"
   id="path59" /><rect
   style="fill:#ffffff;stroke:#ffffff;stroke-width:1.5792"
   id="rect1244"
   width="214.68805"
   height="733.06152"
   x="-215.47765"
   y="0.51333833" /><rect
   style="clip-rule:evenodd;fill:#ffffff;fill-rule:evenodd;stroke:#ffffff;stroke-width:1.87418;stroke-linejoin:round;stroke-miterlimit:1.41421"
   id="rect1244-3"
   width="332.23318"
   height="667.19983"
   x="512.93707"
   y="0.66083056" /><path
   fill="#292f33"
   d="m 373.0306,407.06093 c -0.70359,-2.79874 -18.26208,-68.4672 -117.03058,-68.4672 -98.78416,0 -116.32702,65.66846 -117.03061,68.4672 -0.85994,3.39286 0.67234,6.91082 3.70559,8.66197 3.0489,1.70426 6.86391,1.2352 9.3812,-1.20392 0.29708,-0.29708 30.55148,-29.0192 103.94382,-29.0192 73.39231,0 103.66236,28.72212 103.94379,29.00358 1.501,1.48535 3.50233,2.26711 5.50364,2.26711 1.31337,0 2.64239,-0.32833 3.84631,-1.00067 3.06453,-1.75115 4.59678,-5.30036 3.73684,-8.70887 z M 220.14815,210.27441 c -50.89306,-50.89306 -132.681574,-51.4872 -136.136994,-51.4872 -8.6307,0 -15.61971,6.98899 -15.61971,15.60408 -0.0164,8.6307 6.97336,15.63534 15.60408,15.66661 0.45343,0 30.098054,0.34398 62.275604,11.52327 -9.27177,10.00661 -15.35393,25.54814 -15.35393,43.20046 0,30.23877 17.49597,54.72373 39.08838,54.72373 21.59242,0 39.08839,-24.48496 39.08839,-54.72373 0,-2.72055 -0.29708,-5.31601 -0.57851,-7.92713 0.20317,0 0.39088,0.10937 0.57851,0.10937 4.00264,0 8.00528,-1.53225 11.05418,-4.58115 6.11343,-6.11343 6.11343,-15.99497 0,-22.10839 z m 207.84071,-51.4872 c -3.45541,0 -85.22829,0.59414 -136.137,51.4872 -6.11342,6.11343 -6.11342,15.99496 0,22.10839 3.0489,3.0489 7.05154,4.58115 11.05421,4.58115 0.20317,0 0.37523,-0.10937 0.56286,-0.10937 -0.25016,2.61112 -0.56286,5.20659 -0.56286,7.92713 0,30.23877 17.49594,54.72373 39.08837,54.72373 21.5924,0 39.08837,-24.48496 39.08837,-54.72373 0,-17.65231 -6.08215,-33.19385 -15.35391,-43.20046 32.17754,-11.17929 61.82217,-11.52327 62.29123,-11.52327 8.61507,-0.0313 15.60406,-7.03591 15.58843,-15.66661 -0.0164,-8.61509 -6.98899,-15.60408 -15.6197,-15.60408 z"
   id="path4"
   style="stroke-width:15.6354;fill:#000000;fill-opacity:1" /></svg>
