<?xml version="1.0" encoding="UTF-8" standalone="no"?>
<svg
   xmlns:dc="http://purl.org/dc/elements/1.1/"
   xmlns:cc="http://creativecommons.org/ns#"
   xmlns:rdf="http://www.w3.org/1999/02/22-rdf-syntax-ns#"
   xmlns:svg="http://www.w3.org/2000/svg"
   xmlns="http://www.w3.org/2000/svg"
   xmlns:sodipodi="http://sodipodi.sourceforge.net/DTD/sodipodi-0.dtd"
   xmlns:inkscape="http://www.inkscape.org/namespaces/inkscape"
   viewBox="0 0 36 36"
   version="1.1"
   id="svg152"
   sodipodi:docname="ferrisIce.svg"
   inkscape:export-filename="Z:\Imágenes\ferrisIce2.png"
   inkscape:export-xdpi="2730.6699"
   inkscape:export-ydpi="2730.6699"
   inkscape:version="1.0.1 (3bc2e813f5, 2020-09-07)">
  <metadata
     id="metadata158">
    <rdf:RDF>
      <cc:Work
         rdf:about="">
        <dc:format>image/svg+xml</dc:format>
        <dc:type
           rdf:resource="http://purl.org/dc/dcmitype/StillImage" />
      </cc:Work>
    </rdf:RDF>
  </metadata>
  <defs
     id="defs156" />
  <sodipodi:namedview
     pagecolor="#ffffff"
     bordercolor="#666666"
     borderopacity="1"
     objecttolerance="10"
     gridtolerance="10"
     guidetolerance="10"
     inkscape:pageopacity="0"
     inkscape:pageshadow="2"
     inkscape:window-width="1920"
     inkscape:window-height="1017"
     id="namedview154"
     showgrid="false"
     inkscape:zoom="18.388889"
     inkscape:cx="15.825467"
     inkscape:cy="17.518917"
     inkscape:window-x="-8"
     inkscape:window-y="-8"
     inkscape:window-maximized="1"
     inkscape:current-layer="svg152" />
  <path
     fill="#F5F8FA"
     d="M4.66 7.479c1.928.786 5.193 1.693 8.25 2.556 2.76.78 4.727 1.8 4.727 4.279 0 1.126-.136 4.519-.185 8.533.41-.104.791-.153 1.196-.117l-.001-.134c-.038-4.321-.179-8.044-.178-9.239.003-2.529 1.817-2.208 4.667-2.996 1.297-.359 7.232-1.686 9.209-2.103 1.658-.35 1.012-1.059.494-1.617-.034.107-.147.202-.383.273-1.51.453-10.716 2.236-12.941 2.859-1.569.439-3.591-.367-6.007-1.349-2.416-.981-8.53-2.416-9.738-2.869-.25-.094-.432-.222-.57-.362-.094.052-.19.103-.278.161.066-.003.12-.011.19-.012.477-.008-.195 1.427 1.548 2.137z"
     id="path136" />
  <path
     fill="#ADD3E0"
     d="M1.009 10.872c.096 2.553.356 9.03.119 11.941-.157 1.923.24 3.361.996 4.403.204-.333.64-.608 1.36-.736 3.752-.669 9.878-2.385 12.344-3.136.654-.199 1.16-.378 1.625-.496.049-4.014.185-7.407.185-8.533 0-2.479-1.967-3.499-4.727-4.279-3.058-.864-6.323-1.771-8.251-2.557-1.743-.71-1.071-2.145-1.548-2.138-.069.001-.123.01-.19.012C1.293 6.432.919 8.508 1.009 10.872z"
     id="path138" />
  <path
     fill="#C1E1EA"
     d="M33.208 27.8c.425.097.866.309 1.268.583.438-.907.341-2.082.275-3.431-.119-2.436.059-10.099.238-13.604.148-2.909-.822-4.267-2.167-4.907.037.071.038.137.019.2.517.558 1.163 1.267-.494 1.617-1.978.417-7.912 1.745-9.209 2.103-2.85.788-4.664.467-4.667 2.996-.001 1.195.14 4.919.178 9.239l.001.134c.47.042.98.194 1.638.526 1.367.691 10.883 4.079 12.92 4.544z"
     id="path140" />
  <path
     fill="#D2ECF3"
     d="M13.509 8.424c2.416.981 4.437 1.788 6.007 1.349 2.225-.622 11.431-2.406 12.941-2.859.237-.071.35-.166.383-.273-.109-.117-.211-.228-.286-.327-.193-.076-.391-.142-.595-.194-2.554-.654-8.436-2.495-10.931-3.386-1.977-.706-4.487-.591-6.594-.119-2.34.524-7.081 1.706-9.446 2.02-.71.094-1.296.289-1.788.559.138.139.32.268.57.362 1.209.452 7.323 1.886 9.739 2.868z"
     id="path142" />
  <path
     opacity=".5"
     fill="#CFE1EA"
     d="M18.648 22.73c-.405-.036-.786.014-1.196.117l-.006.493c-.048 4.716.194 8.644.127 9.281-.046.438-.315.814-.717 1.072.821.1 1.641.088 2.424-.042-.451-.385-.71-.998-.771-1.608-.064-.655.176-4.556.139-9.313z"
     id="path144" />
  <path
     fill="#9BC2D4"
     d="M17.573 32.621c.067-.637-.176-4.564-.127-9.281l.006-.493c-.465.117-.971.297-1.625.496-2.466.751-8.592 2.467-12.344 3.136-.719.128-1.156.404-1.36.736.548.754 1.279 1.308 2.152 1.657 2.079.832 6.772 2.495 9.743 3.98.9.45 1.868.721 2.838.84.403-.257.671-.633.717-1.071zm14.505-2.62c1.347-.331 2.046-.888 2.398-1.618-.402-.274-.843-.486-1.268-.583-2.037-.465-11.554-3.853-12.922-4.544-.658-.332-1.168-.485-1.638-.526.037 4.758-.203 8.658-.138 9.313.061.611.32 1.223.771 1.608.503-.083.991-.207 1.451-.382 2.019-.773 8.197-2.496 11.346-3.268z"
     id="path146" />
  <path
     fill="#C1E1EA"
     d="M7.571 18.69c-3.911 3.322-5.322 9.72-5.206 6.824.096-2.391-.017-9.487-.006-12.439.009-2.491.416-4.634 3.725-3.095 2.538 1.18 7.2 2.114 9.384 3.59 1.411.954-2.464.505-7.897 5.12z"
     id="path148" />
  <path
     fill="#D2ECF3"
     d="M30.169 15.439c2.65 1.793 3.569 5.587 3.497 3.781-.06-1.491.006-4.939 0-6.779-.006-1.553.19-2.874-1.997-2.245-1.88.54-5.124.847-6.486 1.767-.88.594 1.408 1.056 4.986 3.476z"
     id="path150" />
  <g
     transform="matrix(0.05293903,-0.00477581,0.00477581,0.05293903,29.466332,21.38428)"
     id="g174"
     style="clip-rule:evenodd;fill-rule:evenodd;stroke-linejoin:round;stroke-miterlimit:1.41421">
    <path
       d="m 0,-78.192 c 0,0 36.935,-40.443 73.871,0 0,0 29.022,53.927 0,80.887 0,0 -47.487,37.748 -73.871,0 0,0 -31.658,-29.659 0,-80.887"
       style="fill-rule:nonzero"
       id="path172" />
  </g>
  <g
     transform="matrix(0.05293903,-0.00477581,0.00477581,0.05293903,31.428425,17.834725)"
     id="g178"
     style="clip-rule:evenodd;fill-rule:evenodd;stroke-linejoin:round;stroke-miterlimit:1.41421">
    <path
       d="m 0,0.004 c 0,15.746 -9.282,28.514 -20.732,28.514 -11.448,0 -20.73,-12.768 -20.73,-28.514 0,-15.75 9.282,-28.518 20.73,-28.518 C -9.282,-28.514 0,-15.746 0,0.004"
       style="fill:#ffffff;fill-rule:nonzero"
       id="path176" />
  </g>
  <g
     transform="matrix(0.05293903,-0.00477581,0.00477581,0.05293903,20.712523,21.873786)"
     id="g182"
     style="clip-rule:evenodd;fill-rule:evenodd;stroke-linejoin:round;stroke-miterlimit:1.41421">
    <path
       d="m 0,-83.609 c 0,0 63.355,-28.052 80.648,34.562 0,0 18.114,72.98 -52.03,77.099 0,0 -89.444,-17.228 -28.618,-111.661"
       style="fill-rule:nonzero"
       id="path180" />
  </g>
  <g
     transform="matrix(0.05293903,-0.00477581,0.00477581,0.05293903,22.127058,18.729071)"
     id="g186"
     style="clip-rule:evenodd;fill-rule:evenodd;stroke-linejoin:round;stroke-miterlimit:1.41421">
    <path
       d="m 0,0.002 c 0,16.239 -9.572,29.409 -21.381,29.409 -11.804,0 -21.379,-13.17 -21.379,-29.409 0,-16.244 9.575,-29.411 21.379,-29.411 C -9.572,-29.409 0,-16.242 0,0.002"
       style="fill:#ffffff;fill-rule:nonzero"
       id="path184" />
  </g>
  <g
     transform="matrix(-0.05293903,0.00477581,-0.00477581,-0.05293903,29.458334,23.001779)"
     id="g190"
     style="clip-rule:evenodd;fill-rule:evenodd;stroke-linejoin:round;stroke-miterlimit:1.41421">
    <path
       d="m 0,-40.271 80.796,-6.484 c 0,0 -2.738,13.006 -13.279,22.769 0,0 -27.79,30.47 -59.673,-2.533 0,0 -5.217,-5.629 -7.844,-13.752"
       style="fill-rule:nonzero"
       id="path188" />
  </g>
</svg>
