<?xml version="1.0" encoding="UTF-8" standalone="no"?>
<svg
   xmlns:dc="http://purl.org/dc/elements/1.1/"
   xmlns:cc="http://creativecommons.org/ns#"
   xmlns:rdf="http://www.w3.org/1999/02/22-rdf-syntax-ns#"
   xmlns:svg="http://www.w3.org/2000/svg"
   xmlns="http://www.w3.org/2000/svg"
   xmlns:sodipodi="http://sodipodi.sourceforge.net/DTD/sodipodi-0.dtd"
   xmlns:inkscape="http://www.inkscape.org/namespaces/inkscape"
   width="1114.9938"
   height="749.44214"
   viewBox="0 0 1114.9938 749.44214"
   version="1.1"
   xml:space="preserve"
   style="clip-rule:evenodd;fill-rule:evenodd;stroke-linejoin:round;stroke-miterlimit:1.41421"
   id="svg51"
   sodipodi:docname="ferrisBorgar2.svg"
   inkscape:export-filename="Z:\Imágenes\ferrisBorgar.png"
   inkscape:export-xdpi="96"
   inkscape:export-ydpi="96"
   inkscape:version="1.0.2 (1.0.2+r75+1)"><metadata
   id="metadata57"><rdf:RDF><cc:Work
       rdf:about=""><dc:format>image/svg+xml</dc:format><dc:type
         rdf:resource="http://purl.org/dc/dcmitype/StillImage" /><dc:title /></cc:Work></rdf:RDF></metadata><defs
   id="defs55">
        
        
        
        
        
        
        
        
        
        
        
        
    </defs><sodipodi:namedview
   pagecolor="#ffffff"
   bordercolor="#666666"
   borderopacity="1"
   objecttolerance="10"
   gridtolerance="10"
   guidetolerance="10"
   inkscape:pageopacity="0"
   inkscape:pageshadow="2"
   inkscape:window-width="1920"
   inkscape:window-height="1005"
   id="namedview53"
   showgrid="false"
   fit-margin-top="0"
   fit-margin-left="0"
   fit-margin-right="0"
   fit-margin-bottom="0"
   inkscape:zoom="0.81583333"
   inkscape:cx="557.4989"
   inkscape:cy="359.244"
   inkscape:window-x="0"
   inkscape:window-y="0"
   inkscape:window-maximized="1"
   inkscape:current-layer="svg51"
   inkscape:snap-bbox="true"
   inkscape:bbox-paths="true"
   inkscape:bbox-nodes="true"
   inkscape:snap-bbox-edge-midpoints="true"
   inkscape:snap-bbox-midpoints="true"
   inkscape:object-paths="true"
   inkscape:snap-intersection-paths="true"
   inkscape:snap-smooth-nodes="true"
   inkscape:snap-midpoints="true"
   inkscape:snap-object-midpoints="true"
   inkscape:snap-center="true"
   inkscape:snap-text-baseline="true"
   inkscape:snap-page="true"
   inkscape:document-rotation="0" />
    
<g
   id="g1224"><g
     transform="translate(554.8429,596.264)"
     id="g4">
            <path
   d="m 0,-279.559 c -121.238,0 -231.39,14.576 -312.939,38.329 V -38.329 C -231.39,-14.575 -121.238,0 0,0 138.76,0 262.987,-19.092 346.431,-49.186 V -230.37 C 262.987,-260.465 138.76,-279.559 0,-279.559"
   style="fill:#a52b00;fill-rule:nonzero"
   id="path2" />
        </g><g
     transform="translate(1026.2489,534.886)"
     id="g8">
            <path
   d="m 0,-53.32 -14.211,-29.441 c 0.073,-1.118 0.131,-2.237 0.131,-3.36 0,-33.375 -34.706,-64.135 -93.097,-88.762 V 2.643 c 27.245,-11.492 49.348,-24.317 65.156,-38.125 -4.652,18.707 -20.564,56.553 -33.25,83.168 -20.85,38.066 -28.4,71.203 -27.432,72.844 0.617,1.033 7.73,-9.94 18.219,-27.721 C -60.074,58.028 -13.82,-8.373 -4.575,-25.287 5.897,-44.461 0,-53.32 0,-53.32"
   style="fill:#a52b00;fill-rule:nonzero"
   id="path6" />
        </g><g
     transform="translate(106.5629,550.665)"
     id="g12">
            <path
   d="m 0,-99.954 c 0,6.428 1.293,12.76 3.788,18.969 l -8.511,15.15 c 0,0 -6.818,8.846 5.188,27.508 10.59,16.455 63.635,80.867 91.632,114.598 12.026,17.293 20.179,27.945 20.893,26.916 1.124,-1.633 -7.476,-34.1 -31.359,-71.141 -11.144,-19.895 -24.454,-46.252 -32.442,-65.721 22.303,14.116 51.483,26.92 86.152,37.94 V -204.17 C 51.797,-177.622 0,-140.737 0,-99.954"
   style="fill:#a52b00;fill-rule:nonzero"
   id="path10" />
        </g><g
     transform="translate(1108.7689,241.057)"
     id="g16">
            <path
   d="m 0,240.343 -93.415,-68.811 c -0.88,-3.064 -1.756,-6.127 -2.662,-9.162 l 30.683,-44.451 c 3.13,-4.522 3.765,-10.398 1.731,-15.555 -2.037,-5.13 -6.491,-8.81 -11.763,-9.71 l -51.884,-8.805 c -2.008,-4.102 -4.116,-8.142 -6.23,-12.15 l 21.797,-49.903 c 2.243,-5.087 1.769,-10.995 -1.203,-15.608 -2.961,-4.636 -7.99,-7.344 -13.349,-7.133 l -52.656,1.913 c -2.727,-3.55 -5.496,-7.068 -8.321,-10.521 l 12.1,-53.49 c 1.225,-5.433 -0.322,-11.118 -4.103,-15.064 -3.762,-3.932 -9.229,-5.559 -14.426,-4.283 l -51.289,12.608 c -3.321,-2.935 -6.698,-5.833 -10.114,-8.673 l 1.848,-54.914 c 0.198,-5.559 -2.393,-10.842 -6.844,-13.925 -4.446,-3.104 -10.093,-3.573 -14.956,-1.266 l -47.847,22.747 c -3.854,-2.21 -7.728,-4.4 -11.644,-6.517 l -8.455,-54.115 c -0.857,-5.483 -4.385,-10.139 -9.326,-12.266 -4.923,-2.137 -10.568,-1.447 -14.891,1.808 l -42.659,32.007 c -4.2,-1.395 -8.419,-2.732 -12.692,-4.011 l -18.386,-51.316 c -1.87,-5.229 -6.181,-9.071 -11.438,-10.151 -5.239,-1.072 -10.63,0.742 -14.263,4.802 l -35.906,40.171 c -4.343,-0.5 -8.686,-0.956 -13.043,-1.331 l -27.724,-46.713 c -2.81,-4.732 -7.77,-7.612 -13.116,-7.612 -5.334,0 -10.304,2.88 -13.09,7.612 l -27.733,46.713 c -4.358,0.375 -8.722,0.831 -13.056,1.331 l -35.91,-40.171 c -3.636,-4.06 -9.047,-5.874 -14.268,-4.802 -5.255,1.092 -9.573,4.922 -11.433,10.151 l -18.402,51.316 c -4.26,1.279 -8.481,2.627 -12.691,4.011 l -42.644,-32.007 c -4.336,-3.266 -9.98,-3.955 -14.916,-1.808 -4.919,2.127 -8.461,6.783 -9.313,12.266 l -8.461,54.115 c -3.914,2.117 -7.789,4.294 -11.653,6.517 l -47.842,-22.747 c -4.858,-2.316 -10.529,-1.838 -14.954,1.266 -4.445,3.083 -7.042,8.366 -6.84,13.925 l 1.835,54.914 c -3.405,2.84 -6.774,5.738 -10.112,8.673 l -51.279,-12.608 c -5.21,-1.265 -10.67,0.351 -14.441,4.283 -3.795,3.946 -5.331,9.631 -4.113,15.064 l 12.079,53.49 c -2.802,3.467 -5.575,6.971 -8.293,10.521 l -52.655,-1.913 c -5.314,-0.157 -10.386,2.497 -13.356,7.133 -2.973,4.613 -3.423,10.521 -1.213,15.608 l 21.816,49.903 c -2.119,4.008 -4.224,8.048 -6.249,12.15 l -51.887,8.805 c -5.27,0.888 -9.71,4.566 -11.76,9.71 -2.04,5.157 -1.37,11.033 1.73,15.555 l 30.7,44.451 c -0.24,0.784 -0.46,1.577 -0.7,2.364 l -86.77,92.17 c 0,0 -13.29,10.423 6.07,34.916 17.07,21.605 104.724,107.252 151.018,152.123 19.554,22.779 32.948,36.886 34.349,35.666 2.208,-1.94 -9.387,-43.385 -47.902,-92.012 -29.685,-43.629 -68.215,-110.733 -59.175,-118.467 0,0 10.27,-13.045 30.893,-22.435 0.753,0.603 -0.781,-0.598 0,0 0,0 435.152,200.732 838.797,3.396 46.108,-8.273 74.023,16.43 74.023,16.43 9.628,5.58 -15.301,74.578 -35.798,120.254 -27.881,51.863 -31.97,92.332 -29.604,93.736 1.491,0.889 11.634,-14.545 26.104,-39.109 C -79.843,391.654 -12.354,296.816 0,273.782 14.006,247.663 0,240.343 0,240.343"
   style="fill:#f74c00;fill-rule:nonzero"
   id="path14" />
        </g><g
     id="g88"
     transform="matrix(31.74759,0,0,17.294846,-12.054553,-9.0624993)"><path
       fill="#d99e82"
       d="M 18,20.411 C 8.629,20.411 1.033,20.186 1.033,26.838 1.033,33.487 8.629,35 18,35 c 9.371,0 16.967,-1.513 16.967,-8.162 0,-6.651 -7.596,-6.427 -16.967,-6.427 z"
       id="path59" /><path
       fill="#662113"
       d="m 34.47,20.916 c 0,0 -8.219,-0.984 -16.47,-1.026 -8.251,0.042 -16.47,1.026 -16.47,1.026 -0.813,6.474 5.937,9.141 16.47,9.141 10.533,0 17.283,-2.667 16.47,-9.141 z"
       id="path61" /><path
       fill="#ffcc4d"
       d="M 33.886,18.328 2.031,18.974 c -1.1,0 -2.021,2.229 -0.854,2.812 8.708,2.708 15.708,5.448 15.708,5.448 0.962,0.532 1.287,0.534 2.25,0.003 0,0 9.666,-3.868 15.875,-5.493 0.881,-0.23 -0.025,-3.416 -1.124,-3.416 z"
       id="path63" /><path
       fill="#77b255"
       d="m 34.725,18.412 c -1.9,-1.751 -1.79,-0.819 -3.246,-1.23 -0.553,-0.156 -4.51,-5.271 -13.529,-5.271 h -0.02 c -9.019,0 -12.976,5.115 -13.529,5.271 -1.456,0.411 -1.346,-0.521 -3.246,1.23 -0.872,0.804 -1.108,1.222 -0.188,1.43 1.386,0.313 1.26,1.152 2.253,1.444 1.202,0.353 1.696,-0.292 3.634,-0.028 1.653,0.225 1.761,2.369 3.429,2.369 1.668,0 1.668,-0.8 3.335,-0.8 1.667,0 2.653,2.146 4.321,2.146 1.668,0 2.653,-2.146 4.321,-2.146 1.668,0 1.668,0.8 3.335,0.8 1.668,0 1.776,-2.144 3.429,-2.369 1.938,-0.263 2.433,0.381 3.634,0.028 0.993,-0.292 0.867,-1.13 2.253,-1.444 0.922,-0.207 0.687,-0.626 -0.186,-1.43 z"
       id="path65" /><path
       fill="#dd2e44"
       d="m 34.077,16.52 c 0,2.984 -7.198,4.393 -16.077,4.393 -8.879,0 -16.077,-1.409 -16.077,-4.393 0,-5.403 0.966,-5.403 16.077,-5.403 15.111,0 16.077,10e-4 16.077,5.403 z"
       id="path67" /><path
       fill="#d99e82"
       d="m 18,0.524 c -9.371,0 -16.967,4.391 -16.967,11.042 0,6.125 7.596,6.375 16.967,6.375 9.371,0 16.967,-0.25 16.967,-6.375 C 34.967,4.914 27.371,0.524 18,0.524 Z"
       id="path69" /><path
       d="M 10.784,3.695 C 10.286,3.376 9.625,3.522 9.307,4.02 8.989,4.518 9.134,5.18 9.632,5.497 10.13,5.816 11.392,6.054 11.711,5.556 12.029,5.058 11.282,4.013 10.784,3.695 Z M 20.518,2.66 C 19.956,2.842 18.969,3.666 19.152,4.228 19.335,4.79 20.616,4.876 21.178,4.694 21.74,4.512 22.047,3.908 21.864,3.346 21.682,2.785 21.078,2.477 20.518,2.66 Z m 10.909,7.035 c -0.452,-0.38 -1.585,0.225 -1.966,0.677 -0.38,0.453 -0.321,1.127 0.131,1.507 0.452,0.38 1.127,0.321 1.507,-0.131 0.381,-0.453 0.781,-1.673 0.328,-2.053 z m -3.643,-5 C 27.286,4.377 26.625,4.523 26.306,5.021 25.988,5.519 26.134,6.18 26.632,6.498 27.13,6.817 28.392,7.055 28.71,6.557 29.029,6.058 28.282,5.013 27.784,4.695 Z m -15,7 c -0.498,-0.318 -1.159,-0.172 -1.478,0.326 -0.318,0.497 -0.172,1.159 0.326,1.476 0.498,0.319 1.76,0.558 2.078,0.059 0.319,-0.498 -0.428,-1.543 -0.926,-1.861 z M 15.83,6.887 C 15.494,7.373 15.21,8.626 15.697,8.962 16.183,9.298 17.254,8.588 17.59,8.102 17.926,7.616 17.803,6.95 17.317,6.614 16.832,6.278 16.165,6.401 15.83,6.887 Z m 7.954,4.808 c -0.498,-0.318 -1.159,-0.172 -1.478,0.326 -0.318,0.497 -0.172,1.16 0.326,1.476 0.498,0.319 1.76,0.558 2.078,0.059 0.319,-0.498 -0.428,-1.543 -0.926,-1.861 z M 4.948,7.808 C 4.554,8.249 4.115,9.456 4.556,9.85 4.995,10.244 6.147,9.676 6.541,9.235 6.936,8.795 6.898,8.119 6.458,7.724 6.019,7.33 5.342,7.368 4.948,7.808 Z"
       fill="#ffe8b6"
       id="path71" /></g><g
     id="g123"><g
       transform="translate(407.8269,442.873)"
       id="g20">
            <path
   d="m 0,167.33 c -1.664,-1.42 -2.536,-2.262 -2.536,-2.262 L 140.006,153.391 C 23.733,0 -69.418,122.193 -79.333,135.855 v 31.475 z"
   style="fill-rule:nonzero"
   id="path18" />
        </g><g
       transform="translate(704.6189,436.577)"
       id="g24">
            <path
   d="m 0,171.974 c 1.663,-1.42 2.536,-2.264 2.536,-2.264 L -134.448,159.687 C -18.12,0 69.421,126.835 79.335,140.497 v 31.477 z"
   style="fill-rule:nonzero"
   id="path22" />
        </g><g
       transform="translate(923.5929,770.278)"
       id="g28">
            <path
   d="m 0,-314.014 c 0,0 -15.576,62.041 -112.453,127.238 l -27.166,6.367 c 0,0 -87.881,-160.259 -212.383,20.334 0,0 38.802,-22.591 142.822,4.92 0,0 -47.85,73.239 -144.242,70.989 0,0 92.373,110.82 232.94,-49.252 0,0 148.595,-57.463 160.646,-180.596 z"
   style="fill:#f74c00;fill-rule:nonzero"
   id="path26" />
        </g><g
       transform="translate(398.8959,646.879)"
       id="g48">
            <path
   d="M 0,-25.102 C 91.833,-36.676 144.904,-37.754 144.904,-37.754 22.037,-199.838 -77.661,-53.098 -77.661,-53.098 c -24.982,-8.932 -50.453,-43.613 -69.477,-75.59 l -76.237,-22.58 C -135.502,-2.127 -70.08,0.146 -70.08,0.146 66.134,174.736 130.663,34.441 130.663,34.441 54.195,25.759 0,-25.102 0,-25.102"
   style="fill:#f74c00;fill-rule:nonzero"
   id="path46" />
        </g></g><g
     transform="translate(614.8909,468.854)"
     id="g32">
            <path
   d="m 0,-92.063 c 0,0 43.486,-47.615 86.974,0 0,0 34.17,63.492 0,95.234 0,0 -55.912,44.444 -86.974,0 0,0 -37.275,-34.921 0,-95.234"
   style="fill-rule:nonzero"
   id="path30" />
        </g><g
     transform="translate(665.2369,394.453)"
     id="g36">
            <path
   d="m 0,0.002 c 0,18.541 -10.93,33.572 -24.408,33.572 -13.477,0 -24.406,-15.031 -24.406,-33.572 0,-18.541 10.929,-33.574 24.406,-33.574 C -10.93,-33.572 0,-18.539 0,0.002"
   style="fill:#ffffff;fill-rule:nonzero"
   id="path34" />
        </g><g
     transform="translate(420.7989,462.228)"
     id="g40">
            <path
   d="m 0,-98.439 c 0,0 74.596,-33.028 94.956,40.691 0,0 21.327,85.926 -61.259,90.776 0,0 -105.31,-20.283 -33.697,-131.467"
   style="fill-rule:nonzero"
   id="path38" />
        </g><g
     transform="translate(458.2649,395.672)"
     id="g44">
            <path
   d="m 0,0 c 0,19.119 -11.27,34.627 -25.173,34.627 -13.898,0 -25.171,-15.508 -25.171,-34.627 0,-19.124 11.273,-34.627 25.171,-34.627 C -11.27,-34.627 0,-19.124 0,0"
   style="fill:#ffffff;fill-rule:nonzero"
   id="path42" />
        </g></g></svg>
