<?xml version="1.0" encoding="UTF-8" standalone="no"?>
<svg
   xmlns:dc="http://purl.org/dc/elements/1.1/"
   xmlns:cc="http://creativecommons.org/ns#"
   xmlns:rdf="http://www.w3.org/1999/02/22-rdf-syntax-ns#"
   xmlns:svg="http://www.w3.org/2000/svg"
   xmlns="http://www.w3.org/2000/svg"
   xmlns:sodipodi="http://sodipodi.sourceforge.net/DTD/sodipodi-0.dtd"
   xmlns:inkscape="http://www.inkscape.org/namespaces/inkscape"
   width="100%"
   height="100%"
   viewBox="0 0 1200 800"
   version="1.1"
   xml:space="preserve"
   style="fill-rule:evenodd;clip-rule:evenodd;stroke-linejoin:round;stroke-miterlimit:1.41421;"
   id="svg3898"
   sodipodi:docname="ferrisJoy.svg"
   inkscape:version="0.92.5 (2060ec1f9f, 2020-04-08)"
   inkscape:export-filename="/media/fdschonborn/Elements/Imágenes/ferrisJoy.png"
   inkscape:export-xdpi="96"
   inkscape:export-ydpi="96"><metadata
   id="metadata3904"><rdf:RDF><cc:Work
       rdf:about=""><dc:format>image/svg+xml</dc:format><dc:type
         rdf:resource="http://purl.org/dc/dcmitype/StillImage" /><dc:title></dc:title></cc:Work></rdf:RDF></metadata><defs
   id="defs3902">
        
        
        
        
        
        
        
        
        
        
    </defs><sodipodi:namedview
   pagecolor="#ffffff"
   bordercolor="#666666"
   borderopacity="1"
   objecttolerance="10"
   gridtolerance="10"
   guidetolerance="10"
   inkscape:pageopacity="0"
   inkscape:pageshadow="2"
   inkscape:window-width="1920"
   inkscape:window-height="1005"
   id="namedview3900"
   showgrid="false"
   inkscape:zoom="0.834386"
   inkscape:cx="624.32066"
   inkscape:cy="472.89346"
   inkscape:window-x="0"
   inkscape:window-y="0"
   inkscape:window-maximized="1"
   inkscape:current-layer="svg3898" />
    <g
   id="g3859"
   transform="translate(654.172,668.359)">
            <path
   inkscape:connector-curvature="0"
   id="path3857"
   style="fill:#a52b00;fill-rule:nonzero"
   d="m 0,-322.648 c -114.597,0 -218.172,13.779 -296.172,36.229 v -5.071 c -78,25.095 -127.681,59.959 -127.681,98.506 0,6.077 1.345,12.062 3.703,17.931 l -7.984,14.321 c 0,0 -6.413,8.359 4.935,25.999 10.01,15.554 60.164,76.438 86.628,108.32 11.367,16.348 19.083,26.413 19.757,25.44 1.061,-1.543 -7.064,-32.229 -29.639,-67.242 -10.533,-18.805 -23.358,-43.719 -30.908,-62.12 21.081,13.342 49.189,25.445 81.189,35.861 v -0.159 c 78,22.453 181.575,36.229 296.172,36.229 131.156,0 248.828,-18.046 327.828,-46.491 V -276.153 C 248.828,-304.6 131.156,-322.648 0,-322.648" />
        </g><g
   id="g3863"
   transform="translate(1099.87,554.94)">
            <path
   inkscape:connector-curvature="0"
   id="path3861"
   style="fill:#a52b00;fill-rule:nonzero"
   d="m 0,-50.399 -13.433,-27.828 c 0.071,-1.056 0.124,-2.114 0.124,-3.175 0,-31.548 -32.805,-60.62 -87.997,-83.901 V 2.499 c 25.751,-10.864 46.645,-22.984 61.586,-36.037 -4.398,17.683 -19.437,53.455 -31.428,78.611 -19.707,35.981 -26.845,67.303 -25.929,68.853 0.584,0.978 7.307,-9.393 17.222,-26.2 C -56.783,54.85 -13.063,-7.914 -4.325,-23.901 5.574,-42.024 0,-50.399 0,-50.399" />
        </g><g
   id="g3867"
   transform="translate(1177.87,277.21)">
            <path
   inkscape:connector-curvature="0"
   id="path3865"
   style="fill:#f74c00;fill-rule:nonzero"
   d="m 0,227.175 -88.296,-65.043 c -0.83,-2.895 -1.66,-5.787 -2.516,-8.658 l 29.002,-42.016 c 2.961,-4.274 3.558,-9.829 1.635,-14.703 -1.925,-4.85 -6.136,-8.327 -11.117,-9.179 l -49.043,-8.321 c -1.898,-3.879 -3.89,-7.698 -5.889,-11.484 l 20.604,-47.172 c 2.119,-4.806 1.673,-10.39 -1.139,-14.751 -2.797,-4.383 -7.551,-6.942 -12.617,-6.743 l -49.77,1.809 c -2.577,-3.356 -5.194,-6.68 -7.866,-9.946 l 11.438,-50.56 c 1.159,-5.132 -0.302,-10.508 -3.879,-14.238 -3.555,-3.716 -8.722,-5.254 -13.636,-4.05 l -48.478,11.919 c -3.14,-2.775 -6.33,-5.513 -9.559,-8.196 l 1.745,-51.907 c 0.188,-5.254 -2.262,-10.247 -6.468,-13.163 -4.204,-2.934 -9.54,-3.376 -14.138,-1.196 l -45.226,21.502 c -3.64,-2.09 -7.302,-4.16 -11.005,-6.163 l -7.991,-51.148 c -0.812,-5.181 -4.146,-9.584 -8.815,-11.594 -4.655,-2.022 -9.99,-1.367 -14.077,1.71 l -40.321,30.253 c -3.97,-1.318 -7.958,-2.583 -11.996,-3.792 l -17.38,-48.504 c -1.766,-4.945 -5.842,-8.576 -10.81,-9.597 -4.953,-1.012 -10.048,0.703 -13.483,4.539 l -33.938,37.971 c -4.104,-0.471 -8.21,-0.901 -12.327,-1.259 l -26.208,-44.154 c -2.656,-4.472 -7.344,-7.193 -12.397,-7.193 -5.041,0 -9.739,2.721 -12.372,7.193 l -26.214,44.154 c -4.119,0.358 -8.244,0.788 -12.341,1.259 l -33.943,-37.971 c -3.437,-3.836 -8.551,-5.551 -13.487,-4.539 -4.966,1.035 -9.045,4.652 -10.806,9.597 l -17.393,48.504 c -4.027,1.209 -8.017,2.482 -11.997,3.792 l -40.308,-30.253 c -4.098,-3.088 -9.432,-3.741 -14.098,-1.71 -4.65,2.01 -7.997,6.413 -8.803,11.594 l -7.997,51.148 c -3.7,2.003 -7.363,4.062 -11.014,6.163 l -45.222,-21.502 c -4.592,-2.189 -9.952,-1.738 -14.135,1.196 -4.201,2.916 -6.656,7.909 -6.466,13.163 l 1.736,51.907 c -3.219,2.683 -6.403,5.421 -9.558,8.196 l -48.47,-11.919 c -4.925,-1.195 -10.086,0.334 -13.65,4.05 -3.585,3.73 -5.039,9.106 -3.885,14.238 l 11.415,50.56 c -2.649,3.279 -5.27,6.59 -7.839,9.946 l -49.771,-1.809 c -5.023,-0.148 -9.817,2.36 -12.623,6.743 -2.812,4.361 -3.237,9.945 -1.146,14.751 l 20.619,47.172 c -2.003,3.786 -3.992,7.605 -5.906,11.484 l -49.04,8.321 c -4.982,0.841 -9.183,4.316 -11.12,9.179 -1.925,4.874 -1.3,10.429 1.639,14.703 l 29.01,42.016 c -0.224,0.741 -0.43,1.49 -0.653,2.233 l -82.021,87.122 c 0,0 -12.56,9.851 5.73,33.002 16.14,20.421 98.993,101.376 142.752,143.789 18.483,21.532 31.143,34.866 32.466,33.712 2.088,-1.832 -8.871,-41.006 -45.275,-86.97 -28.06,-41.239 -64.478,-104.666 -55.939,-111.977 0,0 9.714,-12.331 29.204,-21.207 0.713,0.571 -0.737,-0.565 0,0 0,0 411.314,189.736 792.846,3.21 43.584,-7.817 69.968,15.529 69.968,15.529 9.099,5.276 -14.463,70.495 -33.838,113.666 -26.353,49.023 -30.217,87.276 -27.982,88.602 1.409,0.842 10.998,-13.747 24.674,-36.966 C -75.469,370.196 -11.675,280.554 0,258.781 13.239,234.094 0,227.175 0,227.175" />
        </g><g
   id="g3871"
   transform="translate(795.856,464.937)">
            <path
   inkscape:connector-curvature="0"
   id="path3869"
   style="fill-rule:nonzero"
   d="m 0,159.631 c 1.575,-1.342 2.4,-2.139 2.4,-2.139 L -132.25,144.985 C -22.348,0 65.618,116.967 74.988,129.879 v 29.752 z" />
        </g><g
   id="g3875"
   transform="translate(278.418,211.791)">
            <path
   inkscape:connector-curvature="0"
   id="path3873"
   style="fill:#f74c00;fill-rule:nonzero"
   d="m 0,253.04 c 0,0 -111.096,-43.25 -129.876,-89.798 0,0 130.391,-103.717 -25.621,-213.886 l -4.229,140.417 c 0,0 -46.226,-44.594 -44.186,-122.683 0,0 -143.773,69.178 24.476,191.577 0,0 5.676,65.698 156.977,145.017 z" />
        </g><g
   id="g3895"
   transform="translate(1002.23,778.679)">
            <path
   inkscape:connector-curvature="0"
   id="path3893"
   style="fill:#f74c00;fill-rule:nonzero"
   d="m 0,-296.808 c 0,0 -14.723,58.643 -106.292,120.267 l -25.678,6.018 c 0,0 -83.066,-151.481 -200.749,19.221 0,0 36.677,-21.354 135,4.65 0,0 -45.23,69.226 -136.342,67.099 0,0 87.313,104.749 220.18,-46.554 0,0 140.455,-54.315 151.845,-170.701 z" />
        </g>
<path
   inkscape:connector-curvature="0"
   style="fill:#000000;stroke-width:17.52523232"
   d="m 836.4158,310.35909 c -1.05152,-2.36591 -26.27032,-57.78069 -78.10996,-57.78069 -51.82211,0 -77.05845,55.41478 -78.10996,57.78069 -1.61232,3.62772 -0.56081,7.86883 2.54116,10.35741 3.06691,2.48858 7.46575,2.57621 10.69039,0.24535 0.2103,-0.15773 22.11684,-15.80776 64.87841,-15.80776 42.51621,0 64.3877,15.43973 64.87841,15.79024 1.54222,1.15666 3.39989,1.73499 5.22252,1.73499 1.92777,0 3.87307,-0.64843 5.46787,-1.91025 3.10197,-2.48858 4.17101,-6.76474 2.54116,-10.40998 z m -210.30279,0 c -1.05151,-2.36591 -26.27032,-57.78069 -78.10995,-57.78069 -51.82213,0 -77.05847,55.41478 -78.10998,57.78069 -1.61232,3.62772 -0.56081,7.86883 2.52363,10.35741 3.08444,2.48858 7.48328,2.57621 10.69039,0.24535 0.22783,-0.15773 22.11685,-15.80776 64.89596,-15.80776 42.51621,0 64.3877,15.43973 64.8784,15.79024 1.54222,1.15666 3.3999,1.73499 5.22252,1.73499 1.92778,0 3.87308,-0.64843 5.46788,-1.91025 3.11949,-2.48858 4.15348,-6.76474 2.54115,-10.40998 z m 254.86945,-31.49285 c -6.93999,0 -13.52948,-4.171 -16.28094,-11.02337 C 833.54166,189.94322 755.642,173.5396 754.85337,173.36435 c -9.48115,-1.89273 -15.65003,-11.12852 -13.73978,-20.6272 1.89272,-9.49868 11.12852,-15.61498 20.62719,-13.73978 3.96071,0.78863 97.37019,20.46947 135.5051,115.80673 3.59267,8.99044 -0.78864,19.19013 -9.77908,22.7828 -2.10303,0.87626 -4.31121,1.27934 -6.48434,1.27934 z m -455.65605,0 c -2.17312,0 -4.36378,-0.40308 -6.50186,-1.26181 -8.99044,-3.59268 -13.35422,-13.79236 -9.76155,-22.7828 38.1349,-95.33727 131.54441,-115.0181 135.50511,-115.80674 9.5162,-1.85767 18.71695,4.25863 20.6272,13.73978 1.89272,9.46363 -4.24111,18.6819 -13.68721,20.60968 -3.24217,0.66596 -78.96871,17.17472 -109.90075,94.47852 -2.75146,6.85237 -9.34094,11.02337 -16.28094,11.02337 z m 227.82804,105.1514 c -63.49392,0 -105.62458,-7.39565 -157.72711,-17.52524 -11.89963,-2.2958 -35.05046,0 -35.05046,35.05047 0,70.10093 80.52846,157.72709 192.77757,157.72709 112.23158,0 192.77755,-87.62616 192.77755,-157.72709 0,-35.05047 -23.15083,-37.3638 -35.05046,-35.05047 -52.10252,10.12959 -94.23318,17.52524 -157.72709,17.52524 z"
   id="path4" /><path
   inkscape:connector-curvature="0"
   style="fill:#ffffff;stroke-width:17.52523232"
   d="m 495.42734,401.54287 c 0,0 52.57572,17.52523 157.72711,17.52523 105.15139,0 157.72709,-17.52523 157.72709,-17.52523 0,0 -35.05047,70.10093 -157.72709,70.10093 -122.67663,0 -157.72711,-70.10093 -157.72711,-70.10093 z"
   id="path6" /><path
   inkscape:connector-curvature="0"
   style="fill:#5dadec;stroke-width:17.52523232"
   d="m 527.79645,493.18231 c -11.91716,46.91504 -59.58579,75.27087 -106.50084,63.35371 -46.89752,-11.89963 -75.27087,-59.56826 -63.37124,-106.48331 11.89963,-46.91505 111.0574,-152.60972 128.05687,-148.29851 16.99948,4.32873 53.71486,144.53059 41.81521,191.42811 z m 250.36548,0 c 11.91716,46.91504 59.58579,75.27087 106.50083,63.35371 46.91505,-11.89963 75.2884,-59.56826 63.37124,-106.48331 C 936.11684,403.13766 836.95908,297.44299 819.95961,301.7542 c -16.96443,4.32873 -53.69732,144.53059 -41.79768,191.42811 z"
   id="path8" /></svg>