<?xml version="1.0" encoding="UTF-8" standalone="no"?>
<svg
   xmlns:dc="http://purl.org/dc/elements/1.1/"
   xmlns:cc="http://creativecommons.org/ns#"
   xmlns:rdf="http://www.w3.org/1999/02/22-rdf-syntax-ns#"
   xmlns:svg="http://www.w3.org/2000/svg"
   xmlns="http://www.w3.org/2000/svg"
   xmlns:sodipodi="http://sodipodi.sourceforge.net/DTD/sodipodi-0.dtd"
   xmlns:inkscape="http://www.inkscape.org/namespaces/inkscape"
   viewBox="0 0 36 36"
   version="1.1"
   id="svg152"
   sodipodi:docname="gopherIce.svg"
   inkscape:export-filename="Z:\Imágenes\gopherIce.png"
   inkscape:export-xdpi="2730.6699"
   inkscape:export-ydpi="2730.6699"
   inkscape:version="1.0.2 (e86c870879, 2021-01-15, custom)">
  <metadata
     id="metadata158">
    <rdf:RDF>
      <cc:Work
         rdf:about="">
        <dc:format>image/svg+xml</dc:format>
        <dc:type
           rdf:resource="http://purl.org/dc/dcmitype/StillImage" />
        <dc:title></dc:title>
      </cc:Work>
    </rdf:RDF>
  </metadata>
  <defs
     id="defs156" />
  <sodipodi:namedview
     pagecolor="#ffffff"
     bordercolor="#666666"
     borderopacity="1"
     objecttolerance="10"
     gridtolerance="10"
     guidetolerance="10"
     inkscape:pageopacity="0"
     inkscape:pageshadow="2"
     inkscape:window-width="1920"
     inkscape:window-height="1001"
     id="namedview154"
     showgrid="false"
     inkscape:zoom="26.005816"
     inkscape:cx="-4.1387845"
     inkscape:cy="18.063381"
     inkscape:window-x="-9"
     inkscape:window-y="-9"
     inkscape:window-maximized="1"
     inkscape:current-layer="svg152"
     inkscape:document-rotation="0" />
  <path
     fill="#F5F8FA"
     d="M4.66 7.479c1.928.786 5.193 1.693 8.25 2.556 2.76.78 4.727 1.8 4.727 4.279 0 1.126-.136 4.519-.185 8.533.41-.104.791-.153 1.196-.117l-.001-.134c-.038-4.321-.179-8.044-.178-9.239.003-2.529 1.817-2.208 4.667-2.996 1.297-.359 7.232-1.686 9.209-2.103 1.658-.35 1.012-1.059.494-1.617-.034.107-.147.202-.383.273-1.51.453-10.716 2.236-12.941 2.859-1.569.439-3.591-.367-6.007-1.349-2.416-.981-8.53-2.416-9.738-2.869-.25-.094-.432-.222-.57-.362-.094.052-.19.103-.278.161.066-.003.12-.011.19-.012.477-.008-.195 1.427 1.548 2.137z"
     id="path136" />
  <path
     fill="#ADD3E0"
     d="M1.009 10.872c.096 2.553.356 9.03.119 11.941-.157 1.923.24 3.361.996 4.403.204-.333.64-.608 1.36-.736 3.752-.669 9.878-2.385 12.344-3.136.654-.199 1.16-.378 1.625-.496.049-4.014.185-7.407.185-8.533 0-2.479-1.967-3.499-4.727-4.279-3.058-.864-6.323-1.771-8.251-2.557-1.743-.71-1.071-2.145-1.548-2.138-.069.001-.123.01-.19.012C1.293 6.432.919 8.508 1.009 10.872z"
     id="path138" />
  <path
     fill="#C1E1EA"
     d="M33.208 27.8c.425.097.866.309 1.268.583.438-.907.341-2.082.275-3.431-.119-2.436.059-10.099.238-13.604.148-2.909-.822-4.267-2.167-4.907.037.071.038.137.019.2.517.558 1.163 1.267-.494 1.617-1.978.417-7.912 1.745-9.209 2.103-2.85.788-4.664.467-4.667 2.996-.001 1.195.14 4.919.178 9.239l.001.134c.47.042.98.194 1.638.526 1.367.691 10.883 4.079 12.92 4.544z"
     id="path140" />
  <path
     fill="#D2ECF3"
     d="M13.509 8.424c2.416.981 4.437 1.788 6.007 1.349 2.225-.622 11.431-2.406 12.941-2.859.237-.071.35-.166.383-.273-.109-.117-.211-.228-.286-.327-.193-.076-.391-.142-.595-.194-2.554-.654-8.436-2.495-10.931-3.386-1.977-.706-4.487-.591-6.594-.119-2.34.524-7.081 1.706-9.446 2.02-.71.094-1.296.289-1.788.559.138.139.32.268.57.362 1.209.452 7.323 1.886 9.739 2.868z"
     id="path142" />
  <path
     opacity=".5"
     fill="#CFE1EA"
     d="M18.648 22.73c-.405-.036-.786.014-1.196.117l-.006.493c-.048 4.716.194 8.644.127 9.281-.046.438-.315.814-.717 1.072.821.1 1.641.088 2.424-.042-.451-.385-.71-.998-.771-1.608-.064-.655.176-4.556.139-9.313z"
     id="path144" />
  <path
     fill="#9BC2D4"
     d="M17.573 32.621c.067-.637-.176-4.564-.127-9.281l.006-.493c-.465.117-.971.297-1.625.496-2.466.751-8.592 2.467-12.344 3.136-.719.128-1.156.404-1.36.736.548.754 1.279 1.308 2.152 1.657 2.079.832 6.772 2.495 9.743 3.98.9.45 1.868.721 2.838.84.403-.257.671-.633.717-1.071zm14.505-2.62c1.347-.331 2.046-.888 2.398-1.618-.402-.274-.843-.486-1.268-.583-2.037-.465-11.554-3.853-12.922-4.544-.658-.332-1.168-.485-1.638-.526.037 4.758-.203 8.658-.138 9.313.061.611.32 1.223.771 1.608.503-.083.991-.207 1.451-.382 2.019-.773 8.197-2.496 11.346-3.268z"
     id="path146" />
  <path
     fill="#C1E1EA"
     d="M7.571 18.69c-3.911 3.322-5.322 9.72-5.206 6.824.096-2.391-.017-9.487-.006-12.439.009-2.491.416-4.634 3.725-3.095 2.538 1.18 7.2 2.114 9.384 3.59 1.411.954-2.464.505-7.897 5.12z"
     id="path148" />
  <path
     fill="#D2ECF3"
     d="M30.169 15.439c2.65 1.793 3.569 5.587 3.497 3.781-.06-1.491.006-4.939 0-6.779-.006-1.553.19-2.874-1.997-2.245-1.88.54-5.124.847-6.486 1.767-.88.594 1.408 1.056 4.986 3.476z"
     id="path150" />
  <path
     fill-rule="evenodd"
     clip-rule="evenodd"
     fill="#ffffff"
     stroke="#000000"
     stroke-width="0.194644"
     stroke-linecap="round"
     d="m 27.511566,19.205696 c 1.128147,4.127426 7.881607,2.353832 6.486569,-1.784015 -1.250943,-3.710531 -7.103012,-2.083733 -6.486569,1.784015"
     id="path143" />
  <path
     fill-rule="evenodd"
     clip-rule="evenodd"
     fill="#ffffff"
     stroke="#000000"
     stroke-width="0.18884"
     stroke-linecap="round"
     d="m 19.378541,20.677837 c 1.289378,3.563585 7.049263,2.06197 6.474094,-1.582151 -0.688974,-4.364389 -7.80322,-2.821029 -6.474094,1.582151"
     id="path145" />
  <path
     fill-rule="evenodd"
     clip-rule="evenodd"
     fill="#ffffff"
     stroke="#000000"
     stroke-width="0.200794"
     stroke-linecap="round"
     d="m 28.826652,24.162242 c 0.05586,0.545392 0.236055,1.146336 0.189031,1.736849 -0.11383,0.276764 -0.38441,0.331053 -0.609686,0.460237 -0.330719,-0.01952 -0.62536,-0.206989 -0.785485,-0.49907 -0.14773,-0.654517 -0.095,-1.307179 -0.13802,-1.972094 z"
     id="path147" />
  <g
     id="g153"
     transform="matrix(0.06662042,-0.00644596,0.00644596,0.06662042,13.169548,14.261675)">
    <ellipse
       fill-rule="evenodd"
       clip-rule="evenodd"
       cx="107.324"
       cy="95.403999"
       rx="14.829"
       ry="16.062"
       id="ellipse149" />
    <ellipse
       fill-rule="evenodd"
       clip-rule="evenodd"
       fill="#ffffff"
       cx="114.069"
       cy="99.028999"
       rx="3.4960001"
       ry="4.0819998"
       id="ellipse151" />
  </g>
  <g
     id="g159"
     transform="matrix(0.06662042,-0.00644596,0.00644596,0.06662042,13.169548,14.261675)">
    <ellipse
       fill-rule="evenodd"
       clip-rule="evenodd"
       cx="231.571"
       cy="91.403999"
       rx="14.582"
       ry="16.062"
       id="ellipse155" />
    <ellipse
       fill-rule="evenodd"
       clip-rule="evenodd"
       fill="#ffffff"
       cx="238.20399"
       cy="95.028999"
       rx="3.438"
       ry="4.0819998"
       id="ellipse157" />
  </g>
  <path
     fill-rule="evenodd"
     clip-rule="evenodd"
     fill="#ffffff"
     stroke="#000000"
     stroke-width="0.200794"
     stroke-linecap="round"
     d="m 25.997728,24.375977 c -0.32996,1.086316 0.543552,3.110236 1.563998,1.456347 -0.147714,-0.654517 -0.095,-1.307179 -0.13802,-1.972095 z"
     id="path161" />
  <g
     id="g167"
     transform="matrix(0.06662042,-0.00644596,0.00644596,0.06662042,13.169548,14.261675)">
    <path
       fill-rule="evenodd"
       clip-rule="evenodd"
       fill="#f6d2a2"
       stroke="#231f20"
       stroke-width="3"
       stroke-linecap="round"
       d="m 178.431,138.673 c -12.059,1.028 -21.916,15.366 -15.646,26.709 8.303,15.024 26.836,-1.329 38.379,0.203 13.285,0.272 24.17,14.047 34.84,2.49 11.867,-12.854 -5.109,-25.373 -18.377,-30.97 z"
       id="path163" />
    <path
       fill-rule="evenodd"
       clip-rule="evenodd"
       d="m 176.913,138.045 c -0.893,-20.891 38.938,-23.503 43.642,-6.016 4.692,17.446 -41.681,21.498 -43.642,6.016 -1.565,-12.363 0,0 0,0 z"
       id="path165" />
  </g>
</svg>
