<?xml version="1.0" encoding="UTF-8" standalone="no"?>
<svg
   xmlns:serif="http://www.serif.com/"
   xmlns:dc="http://purl.org/dc/elements/1.1/"
   xmlns:cc="http://creativecommons.org/ns#"
   xmlns:rdf="http://www.w3.org/1999/02/22-rdf-syntax-ns#"
   xmlns:svg="http://www.w3.org/2000/svg"
   xmlns="http://www.w3.org/2000/svg"
   xmlns:sodipodi="http://sodipodi.sourceforge.net/DTD/sodipodi-0.dtd"
   xmlns:inkscape="http://www.inkscape.org/namespaces/inkscape"
   width="100%"
   height="100%"
   viewBox="0 0 1200 800"
   version="1.1"
   xml:space="preserve"
   style="fill-rule:evenodd;clip-rule:evenodd;stroke-linejoin:round;stroke-miterlimit:1.41421;"
   id="svg935"
   sodipodi:docname="gorrisSmooth.svg"
   inkscape:version="1.0.1 (3bc2e813f5, 2020-09-07)"
   inkscape:export-filename="/media/federico/Elements/Imágenes/gorrisSmooth.png"
   inkscape:export-xdpi="96"
   inkscape:export-ydpi="96"><metadata
   id="metadata941"><rdf:RDF><cc:Work
       rdf:about=""><dc:format>image/svg+xml</dc:format><dc:type
         rdf:resource="http://purl.org/dc/dcmitype/StillImage" /><dc:title></dc:title></cc:Work></rdf:RDF></metadata><defs
   id="defs939" /><sodipodi:namedview
   pagecolor="#ffffff"
   bordercolor="#666666"
   borderopacity="1"
   objecttolerance="10"
   gridtolerance="10"
   guidetolerance="10"
   inkscape:pageopacity="0"
   inkscape:pageshadow="2"
   inkscape:window-width="1848"
   inkscape:window-height="1016"
   id="namedview937"
   showgrid="false"
   inkscape:zoom="1.1549411"
   inkscape:cx="398.24099"
   inkscape:cy="371.06932"
   inkscape:window-x="0"
   inkscape:window-y="0"
   inkscape:window-maximized="1"
   inkscape:current-layer="Layer-1"
   inkscape:document-rotation="0" />
    <g
   id="Layer-1"
   serif:id="Layer 1">
        <g
   transform="translate(1009.4,506.362)"
   id="g900"
   style="fill:#356b72;fill-opacity:1">
            <path
   d="m 0,-7.203 -12.072,-25.006 c 0.063,-0.947 0.111,-1.898 0.111,-2.853 0,-28.346 -29.478,-54.471 -79.069,-75.389 v 17.393 c -4.836,-1.919 -9.871,-3.787 -15.117,-5.593 v -8.108 c -70.874,-25.56 -176.383,-41.778 -294.241,-41.778 -102.973,0 -196.529,12.38 -265.791,32.554 v 28.246 h -0.002 v -34.188 c -70.96,22.55 -114.954,53.877 -114.954,88.515 0,5.46 1.101,10.838 3.217,16.113 l -7.228,12.867 c 0,0 -5.792,7.512 4.406,23.362 8.994,13.977 54.048,68.685 77.827,97.335 10.214,14.687 17.141,23.734 17.746,22.859 0.955,-1.386 -6.351,-28.961 -26.635,-60.423 -9.466,-16.895 -20.768,-39.283 -27.554,-55.819 18.942,11.99 130.23,68.029 357.232,67.801 231.994,-0.232 335.115,-72.851 346.433,-82.737 -3.955,15.889 -17.468,48.033 -28.245,70.638 -17.706,32.331 -24.12,60.478 -23.296,61.87 0.524,0.878 6.565,-8.441 15.476,-23.543 C -51.025,87.37 -11.739,30.974 -3.889,16.608 5.007,0.323 0,-7.203 0,-7.203"
   style="fill:#356b72;fill-rule:nonzero;fill-opacity:1"
   id="path898"
   inkscape:connector-curvature="0" />
        </g>
        <g
   transform="translate(1079.49,294.885)"
   id="g904"
   style="fill:#6ad7e5;fill-opacity:1">
            <path
   d="m 0,204.135 c -437.41068,-502.79621 -506.11357,-444.65422 -937.944,14.066 0,0 -11.296,8.851 5.147,29.654 14.5,18.351 88.951,91.096 128.271,129.205 16.606,19.348 27.984,31.329 29.172,30.293 1.876,-1.645 -7.972,-36.847 -40.682,-78.149 -25.216,-37.056 -57.941,-94.049 -50.267,-100.618 0,0 8.729,-11.081 26.242,-19.057 0.641,0.512 -0.662,-0.507 0,0 0,0 369.595,170.491 712.429,2.884 39.164,-7.025 62.873,13.955 62.873,13.955 8.176,4.74 -12.996,63.344 -30.407,102.137 -23.679,44.05 -27.151,78.422 -25.144,79.614 1.268,0.757 9.883,-12.353 22.172,-33.217 C -67.814,332.649 -10.492,252.1 0,232.534 11.895,210.352 0,204.135 0,204.135"
   style="fill:#6ad7e5;fill-opacity:1;fill-rule:nonzero"
   id="path902"
   inkscape:connector-curvature="0"
   sodipodi:nodetypes="ccccccccccccccsc" />
        </g>
        <g
   transform="translate(917.896,244.679)"
   id="g908">
            <path
   d="m 0,232.466 c 0,0 53.179,-2.466 123.032,-73.462 l 9.898,-21.979 c 0,0 -108.417,-107.848 60.118,-182.291 0,0 -14.755,24.112 -10.426,117.272 0,0 50.815,-17.649 65.714,-99.94 0,0 74.12,97.724 -80.502,189.377 0,0 -72.54,116.289 -174.805,105.15 z"
   style="fill:#6ad7e5;fill-opacity:1;fill-rule:nonzero"
   id="path906"
   inkscape:connector-curvature="0" />
        </g>
        
        
        
        
        
        <g
   transform="translate(269.796,270.778)"
   id="g932"
   style="fill:#6ad7e5;fill-opacity:1">
            <path
   d="m 0,190.741 c -0.667,0 -1.321,0.049 -1.973,0.101 -26.234,-5.971 -99.973,-25.185 -119.464,-56.363 0,0 99.227,-112.872 -55.86,-185.019 l 18.057,124.878 c 0,0 -47.809,-31.949 -58.126,-101.346 0,0 -116.423,84.494 51.384,165.474 0,0 15.22,57.187 161.349,102.815 l 0.107,-0.435 c 1.471,0.272 2.977,0.435 4.526,0.435 13.808,0 25.003,-11.312 25.003,-25.271 0,-13.956 -11.195,-25.269 -25.003,-25.269"
   style="fill:#6ad7e5;fill-opacity:1;fill-rule:nonzero"
   id="path930"
   inkscape:connector-curvature="0" />
        </g>
    <path
   inkscape:connector-curvature="0"
   style="clip-rule:evenodd;fill:#ffffff;fill-rule:evenodd;stroke:#000000;stroke-width:5.41799831;stroke-linecap:round"
   d="m 629.52811,358.41775 c 20.28727,116.82769 213.05943,85.93843 185.3708,-31.88874 -24.82842,-105.65912 -192.11326,-76.41279 -185.3708,31.88874"
   id="path1070" /><path
   inkscape:connector-curvature="0"
   style="clip-rule:evenodd;fill:#ffffff;fill-rule:evenodd;stroke:#000000;stroke-width:5.2564702;stroke-linecap:round"
   d="m 399.16516,377.31326 c 26.29409,101.70943 190.67567,75.66922 184.47979,-26.35544 -7.42381,-122.19038 -209.61894,-98.61271 -184.47979,26.35544"
   id="path1072" /><path
   inkscape:connector-curvature="0"
   style="clip-rule:evenodd;fill:#ffffff;fill-rule:evenodd;stroke:#000000;stroke-width:5.5892148;stroke-linecap:round"
   d="m 652.78603,498.60801 c 0.0861,15.18873 3.48354,32.24105 0.58403,48.39959 -3.91407,7.32827 -11.59247,8.10338 -18.21138,11.06473 -9.15342,-1.42227 -16.85053,-7.37649 -20.52126,-15.85814 -2.34919,-18.44307 0.87604,-36.30016 1.46942,-54.75064 z"
   id="path1074" /><g
   transform="matrix(1.8718651,0,0,1.8543195,243.60756,183.81502)"
   id="g1080"><ellipse
     cx="107.324"
     cy="95.403999"
     rx="14.829"
     ry="16.062"
     id="ellipse1076"
     style="clip-rule:evenodd;fill-rule:evenodd" /><ellipse
     cx="114.069"
     cy="99.028999"
     rx="3.4960001"
     ry="4.0819998"
     id="ellipse1078"
     style="clip-rule:evenodd;fill:#ffffff;fill-rule:evenodd" /></g><g
   transform="matrix(1.8718651,0,0,1.8543195,243.60756,183.81502)"
   id="g1086"><ellipse
     cx="231.571"
     cy="91.403999"
     rx="14.582"
     ry="16.062"
     id="ellipse1082"
     style="clip-rule:evenodd;fill-rule:evenodd" /><ellipse
     cx="238.20399"
     cy="95.028999"
     rx="3.438"
     ry="4.0819998"
     id="ellipse1084"
     style="clip-rule:evenodd;fill:#ffffff;fill-rule:evenodd" /></g><path
   inkscape:connector-curvature="0"
   style="clip-rule:evenodd;fill:#ffffff;fill-rule:evenodd;stroke:#000000;stroke-width:5.5892148;stroke-linecap:round"
   d="m 573.46201,496.95396 c -12.11097,29.07573 6.75369,87.21791 39.61428,44.33307 -2.34919,-18.44306 0.87603,-36.30016 1.46941,-54.75064 z"
   id="path1088" /><g
   transform="matrix(1.8718651,0,0,1.8543195,243.60756,183.81502)"
   id="g1094"><path
     d="m 178.431,138.673 c -12.059,1.028 -21.916,15.366 -15.646,26.709 8.303,15.024 26.836,-1.329 38.379,0.203 13.285,0.272 24.17,14.047 34.84,2.49 11.867,-12.854 -5.109,-25.373 -18.377,-30.97 z"
     id="path1090"
     inkscape:connector-curvature="0"
     style="clip-rule:evenodd;fill:#f6d2a2;fill-rule:evenodd;stroke:#231f20;stroke-width:3;stroke-linecap:round" /><path
     d="m 176.913,138.045 c -0.893,-20.891 38.938,-23.503 43.642,-6.016 4.692,17.446 -41.681,21.498 -43.642,6.016 -1.565,-12.363 0,0 0,0 z"
     id="path1092"
     inkscape:connector-curvature="0"
     style="clip-rule:evenodd;fill-rule:evenodd" /></g></g>
</svg>
