<?xml version="1.0" encoding="UTF-8" standalone="no"?>
<svg
   xmlns:dc="http://purl.org/dc/elements/1.1/"
   xmlns:cc="http://creativecommons.org/ns#"
   xmlns:rdf="http://www.w3.org/1999/02/22-rdf-syntax-ns#"
   xmlns:svg="http://www.w3.org/2000/svg"
   xmlns="http://www.w3.org/2000/svg"
   xmlns:sodipodi="http://sodipodi.sourceforge.net/DTD/sodipodi-0.dtd"
   xmlns:inkscape="http://www.inkscape.org/namespaces/inkscape"
   xml:space="preserve"
   style="enable-background:new 0 0 144 144;"
   viewBox="19 19 106 106"
   height="144px"
   width="144px"
   y="0px"
   x="0px"
   id="Layer_1"
   version="1.1"
   sodipodi:docname="gorrisTheCrustaceanLogo.svg"
   inkscape:version="0.92.4 (5da689c313, 2019-01-14)"
   inkscape:export-filename="Z:\Imágenes\gorrisTheCrustaceanLogo.png"
   inkscape:export-xdpi="96"
   inkscape:export-ydpi="96"><metadata
     id="metadata1013"><rdf:RDF><cc:Work
         rdf:about=""><dc:format>image/svg+xml</dc:format><dc:type
           rdf:resource="http://purl.org/dc/dcmitype/StillImage" /><dc:title /></cc:Work></rdf:RDF></metadata><defs
     id="defs1011" /><sodipodi:namedview
     pagecolor="#ffffff"
     bordercolor="#666666"
     borderopacity="1"
     objecttolerance="10"
     gridtolerance="10"
     guidetolerance="10"
     inkscape:pageopacity="0"
     inkscape:pageshadow="2"
     inkscape:window-width="1920"
     inkscape:window-height="1017"
     id="namedview1009"
     showgrid="false"
     inkscape:zoom="4.2819244"
     inkscape:cx="-2.8482921"
     inkscape:cy="72.61099"
     inkscape:window-x="-8"
     inkscape:window-y="-8"
     inkscape:window-maximized="1"
     inkscape:current-layer="g3858" /><g
     transform="matrix(2.6097864,0,0,2.6097864,-9.792076,-6.5567224)"
     id="g3858"
     style="fill:#00acd7;fill-opacity:1"><g
       id="g3990"><g
         style="enable-background:new 0 0 144 144;fill:#00acd7;stroke:#00acd7"
         transform="matrix(0.38317313,0,-0.06288479,0.38317313,8.2765107,2.5123597)"
         id="g3928"><path
           inkscape:connector-curvature="0"
           id="path1301"
           style="fill:#00acd7;fill-opacity:1;stroke:#00acd7;stroke-width:1.37495995"
           d="m 72.152344,7.0390625 c -35.88833,0 -65.0976565,29.1301455 -65.0976565,64.8906255 0,35.760482 29.2230975,64.890622 65.0976565,64.890622 35.874556,0 65.097656,-29.13014 65.097656,-64.890622 0,-35.76048 -29.2231,-64.8906255 -65.097656,-64.8906255 z m -0.15625,5.7636715 a 4.2829128,4.2692934 0 0 1 0.06055,0.002 4.2691414,4.2692934 0 0 1 4.158203,4.269531 4.283203,4.2695827 0 0 1 -8.566406,0 4.2829128,4.2692934 0 0 1 4.347656,-4.271485 z m -9.621094,7.03125 6.595703,6.890625 c 1.487315,1.551223 3.953594,1.619353 5.509766,0.123047 l 7.380859,-7.013672 a 52.703238,52.535645 0 0 1 1.232422,0.246094 v -0.04102 A 52.569192,52.569192 0 0 1 96.744141,25 a 52.703238,52.535645 0 0 1 0.05859,0.03125 52.569192,52.569192 0 0 1 0.179688,0.0957 52.703238,52.535645 0 0 1 0.357422,0.193359 52.569192,52.569192 0 0 1 0.177734,0.09766 52.703238,52.535645 0 0 1 20.425785,20.03125 l -5.05469,11.367187 c -0.8676,1.963052 0.0269,4.267916 1.98242,5.146485 l 9.72266,4.296875 a 52.703238,52.535645 0 0 1 0.11133,9.115234 h -0.14453 a 52.569192,52.569192 0 0 1 -10.11524,27.27734 h 0.15039 a 52.703238,52.535645 0 0 1 -4.875,5.62891 l -9.04687,-1.93555 c -2.107032,-0.45301 -4.188126,0.89186 -4.642583,2.99219 l -2.146484,9.99414 a 52.703238,52.535645 0 0 1 -7.890625,2.83008 52.703238,52.535645 0 0 1 -0.433594,0.11719 52.569192,52.569192 0 0 1 -0.15625,0.041 52.703238,52.535645 0 0 1 -0.154297,0.0391 52.569192,52.569192 0 0 1 -0.591797,0.14843 52.569192,52.569192 0 0 1 -12.521484,1.51367 52.569192,52.569192 0 0 1 -11.101563,-1.1875 52.569192,52.569192 0 0 1 -1.191406,-0.27148 52.703238,52.535645 0 0 1 -0.244141,-0.0586 52.569192,52.569192 0 0 1 -0.113281,-0.0273 52.703238,52.535645 0 0 1 -0.478516,-0.12109 52.703238,52.535645 0 0 1 -0.589843,-0.15625 52.703238,52.535645 0 0 1 -0.587891,-0.16211 52.703238,52.535645 0 0 1 -7.890625,-2.91211 l -0.0059,-0.0234 a 52.569192,52.569192 0 0 1 -0.0918,-0.043 l 0.08008,-0.0176 -2.130859,-9.91016 c -0.454458,-2.10033 -2.519925,-3.4452 -4.626954,-2.99219 l -8.855468,1.89453 a 52.703238,52.535645 0 0 1 -4.572266,-5.38086 h 0.09375 A 52.569192,52.569192 0 0 1 21.582031,85.863281 h -0.123047 a 52.703238,52.535645 0 0 1 -1.707031,-20.05664 l 9.226563,-4.089844 c 1.969314,-0.878569 2.865746,-3.171714 1.984375,-5.134766 l -0.779297,-1.75 -4.025391,-8.861328 a 52.569192,52.569192 0 0 1 6.791016,-9.554687 h -0.05859 a 52.703238,52.535645 0 0 1 11.136719,-9.384766 52.569192,52.569192 0 0 1 0.02734,-0.01758 52.703238,52.535645 0 0 1 0.490234,-0.304688 52.569192,52.569192 0 0 1 0.02734,-0.01758 52.703238,52.535645 0 0 1 0.203125,-0.123047 52.569192,52.569192 0 0 1 0.320312,-0.193359 52.569192,52.569192 0 0 1 14.574219,-5.990234 v 0.03125 A 52.703238,52.535645 0 0 1 62.375,19.833984 Z m -41.619141,31.59961 a 4.2829128,4.2692934 0 0 1 0.236329,0 4.2829128,4.2692934 0 0 1 4.158203,4.269531 4.2832035,4.2695832 0 0 1 -8.566407,0 4.2829128,4.2692934 0 0 1 4.171875,-4.269531 z M 123.04492,51.625 a 4.2829128,4.2692934 0 0 1 0.0625,0.002 4.2829128,4.2692934 0 0 1 4.1582,4.269531 4.2832,4.2695797 0 0 1 -8.5664,0 4.2829128,4.2692934 0 0 1 4.3457,-4.271484 z m -82.939451,59.92188 a 4.2829128,4.2692934 0 0 1 0.234375,0 4.2829128,4.2692934 0 0 1 4.160156,4.26953 4.283203,4.2695827 0 0 1 -8.566406,0 4.2829128,4.2692934 0 0 1 4.171875,-4.26953 z m 63.591801,0.1914 a 4.2829128,4.2692934 0 0 1 0.0605,0.002 4.2829128,4.2692934 0 0 1 4.15821,4.26954 4.2829128,4.2692934 0 0 1 -8.564458,0 4.2829128,4.2692934 0 0 1 4.345708,-4.27149 z"
           transform="matrix(0.73611111,0,0,0.73611111,19,19)" /><path
           style="fill:#00acd7;fill-rule:evenodd;stroke:#00acd7;stroke-width:3.03635001;stroke-linecap:round;stroke-linejoin:round"
           inkscape:connector-curvature="0"
           d="M 117.35502,71.948243 A 45.242761,45.098892 0 0 1 72.112259,117.04713 45.242761,45.098892 0 0 1 26.869498,71.948243 45.242761,45.098892 0 0 1 72.112259,26.849352 45.242761,45.098892 0 0 1 117.35502,71.948243 Z m -0.85153,-4.355282 7.05556,4.355282 -7.05556,4.355282 6.0621,5.64873 -7.76517,2.900152 4.84563,6.719867 -8.20107,1.333868 3.44668,7.538378 -8.30245,-0.29305 1.90581,8.06384 -8.08956,-1.89975 0.29398,8.27604 -7.562425,-3.43572 -1.338123,8.175 -6.741303,-4.83022 -2.909405,7.74048 -5.666749,-6.04283 -4.369176,7.03312 -4.369175,-7.03312 -5.66675,6.04283 -2.909404,-7.74048 -6.741304,4.83022 -1.338123,-8.175 -7.562424,3.43572 0.293981,-8.27604 -8.089563,1.89975 1.905812,-8.06384 -8.302447,0.29305 3.446681,-7.538378 -8.201074,-1.333868 4.845628,-6.719867 -7.76517,-2.900152 6.062104,-5.64873 -7.055559,-4.355282 7.055559,-4.355282 -6.062104,-5.648729 7.76517,-2.900153 -4.845628,-6.719866 8.201074,-1.333868 -3.446681,-7.538377 8.302447,0.293047 -1.905812,-8.063839 8.089563,1.899751 -0.293981,-8.276045 7.562424,3.435721 1.338123,-8.174996 6.741304,4.83022 2.909404,-7.740477 5.66675,6.042827 4.369175,-7.033123 4.369176,7.033123 5.666749,-6.042827 2.909405,7.740477 6.741303,-4.83022 1.338123,8.174996 7.562425,-3.435721 -0.29398,8.276045 8.08956,-1.899751 -1.90581,8.063839 8.30245,-0.293047 -3.44668,7.538377 8.20107,1.333868 -4.84563,6.719866 7.76517,2.900153 z"
           id="path1303" /></g><g
         transform="matrix(0.65893799,0,0,1,12.000702,0)"
         style="fill:#00acd7;fill-opacity:1"
         id="g78"><g
           style="fill:#00acd7;fill-opacity:1"
           id="g76"><g
             style="fill:#00acd7;fill-opacity:1"
             id="g74"><path
               style="fill:#00acd7;fill-opacity:1"
               inkscape:connector-curvature="0"
               id="path72"
               d="M 15.5,23.2 C 15.1,23.2 15,23 15.2,22.7 L 17.3,20 c 0.2,-0.3 0.7,-0.5 1.1,-0.5 h 35.7 c 0.4,0 0.5,0.3 0.3,0.6 l -1.7,2.6 c -0.2,0.3 -0.7,0.6 -1,0.6 z"
               class="st0" /></g></g></g><g
         transform="matrix(0.64149042,0,0,1,12.976741,0)"
         style="fill:#00acd7;fill-opacity:1"
         id="g86"><g
           style="fill:#00acd7;fill-opacity:1"
           id="g84"><g
             style="fill:#00acd7;fill-opacity:1"
             id="g82"><path
               style="fill:#00acd7;fill-opacity:1"
               inkscape:connector-curvature="0"
               id="path80"
               d="M 0.4,32.4 C 0,32.4 -0.1,32.2 0.1,31.9 l 2.1,-2.7 c 0.2,-0.3 0.7,-0.5 1.1,-0.5 h 45.6 c 0.4,0 0.6,0.3 0.5,0.6 l -0.8,2.4 c -0.1,0.4 -0.5,0.6 -0.9,0.6 z"
               class="st0" /></g></g></g><g
         transform="matrix(0.90874904,0,0,1,2.6981056,-0.56411598)"
         style="fill:#00acd7;fill-opacity:1"
         id="g94"><g
           style="fill:#00acd7;fill-opacity:1"
           id="g92"><g
             style="fill:#00acd7;fill-opacity:1"
             id="g90"><path
               style="fill:#00acd7;fill-opacity:1"
               inkscape:connector-curvature="0"
               id="path88"
               d="m 24.6,41.6 c -0.4,0 -0.5,-0.3 -0.3,-0.6 l 1.4,-2.5 c 0.2,-0.3 0.6,-0.6 1,-0.6 h 20 c 0.4,0 0.6,0.3 0.6,0.7 L 47.1,41 c 0,0.4 -0.4,0.7 -0.7,0.7 z"
               class="st0" /></g></g></g></g></g></svg>