<?xml version="1.0" encoding="UTF-8" standalone="no"?>
<svg
   xmlns:dc="http://purl.org/dc/elements/1.1/"
   xmlns:cc="http://creativecommons.org/ns#"
   xmlns:rdf="http://www.w3.org/1999/02/22-rdf-syntax-ns#"
   xmlns:svg="http://www.w3.org/2000/svg"
   xmlns="http://www.w3.org/2000/svg"
   xmlns:sodipodi="http://sodipodi.sourceforge.net/DTD/sodipodi-0.dtd"
   xmlns:inkscape="http://www.inkscape.org/namespaces/inkscape"
   viewBox="0 0 36 36"
   version="1.1"
   id="svg64"
   sodipodi:docname="pickleFerris.svg"
   inkscape:version="1.0.2 (e86c870879, 2021-01-15)"
   inkscape:export-filename="/media/fdschonborn/Elements/Imágenes/pickleFerris.png"
   inkscape:export-xdpi="1365.33"
   inkscape:export-ydpi="1365.33">
  <metadata
     id="metadata70">
    <rdf:RDF>
      <cc:Work
         rdf:about="">
        <dc:format>image/svg+xml</dc:format>
        <dc:type
           rdf:resource="http://purl.org/dc/dcmitype/StillImage" />
        <dc:title></dc:title>
      </cc:Work>
    </rdf:RDF>
  </metadata>
  <defs
     id="defs68" />
  <sodipodi:namedview
     pagecolor="#ffffff"
     bordercolor="#666666"
     borderopacity="1"
     objecttolerance="10"
     gridtolerance="10"
     guidetolerance="10"
     inkscape:pageopacity="0"
     inkscape:pageshadow="2"
     inkscape:window-width="1920"
     inkscape:window-height="1019"
     id="namedview66"
     showgrid="false"
     inkscape:zoom="16.911637"
     inkscape:cx="-0.13786128"
     inkscape:cy="16.112764"
     inkscape:window-x="0"
     inkscape:window-y="0"
     inkscape:window-maximized="1"
     inkscape:current-layer="svg64" />
  <path
     fill="#5C913B"
     d="M20.958 8.542c-2.811 4.371-6.701 7.706-8.542 9.125C7.938 21.122.488 25.179 1 30.15c.375 3.642 2.714 5.669 8.143 5.283 5.184-.368 11.058-4.834 15.763-10.48 5.197-6.236 8.195-10.559 9.355-14.551.974-3.355 1.468-7.515-1.219-9.027C30.71.063 25.83.965 20.958 8.542z"
     id="path2" />
  <circle
     fill="#5C913B"
     cx="18.217"
     cy="30.997"
     r=".639"
     id="circle4" />
  <circle
     fill="#5C913B"
     cx="21.417"
     cy="27.975"
     r=".639"
     id="circle6" />
  <circle
     fill="#5C913B"
     cx="20.987"
     cy="28.668"
     r=".639"
     id="circle8" />
  <circle
     fill="#5C913B"
     cx="23.958"
     cy="25.404"
     r=".639"
     id="circle10" />
  <circle
     fill="#5C913B"
     cx="30.021"
     cy="17.935"
     r=".639"
     id="circle12" />
  <circle
     fill="#5C913B"
     cx="33.708"
     cy="10.81"
     r=".639"
     id="circle14" />
  <circle
     fill="#5C913B"
     cx="34.427"
     cy="4.06"
     r=".639"
     id="circle16" />
  <path
     fill="#77B255"
     d="M6.924 34.192c5.312-.377 11.331-4.953 16.152-10.739 5.325-6.39 8.397-10.819 9.585-14.911.687-2.365 1.141-5.12.46-7.114-.028-.017-.051-.038-.08-.054C30.709.062 25.83.964 20.958 8.541c-2.811 4.372-6.701 7.706-8.542 9.125C7.938 21.122.488 25.179 1 30.15c.161 1.561.686 2.822 1.656 3.727 1.146.323 2.556.437 4.268.315z"
     id="path18" />
  <path
     d="M16.497 25.752c-.441.097-.862-.029-1.258-.378-.396-.348-.575-.752-.535-1.2.004-.042.012-.13-.073-.168-.05-.021-.112-.007-.147.034-.469.533-.363 1.395.235 1.922.298.263.663.393 1.012.393.354 0 .69-.134.927-.402.036-.041.043-.104.016-.149-.049-.079-.135-.061-.177-.052zm8.904-8.142c-.449-.019-.826-.251-1.119-.69-.293-.44-.361-.877-.205-1.298.015-.04.046-.122-.028-.181-.043-.032-.104-.034-.15-.004-.289.192-.475.499-.524.865-.048.359.043.733.255 1.053.294.441.764.687 1.219.687.23 0 .458-.062.657-.195.044-.03.067-.089.053-.141-.028-.09-.116-.094-.158-.096zm-5.552.98h.002c.23 0 .438-.091.581-.253.036-.041.044-.102.017-.149-.027-.047-.104-.066-.159-.056-.237.054-.474-.017-.693-.21-.221-.193-.32-.417-.297-.662.005-.054-.024-.129-.074-.15-.051-.021-.109-.008-.146.034-.294.334-.23.874.143 1.202.177.156.4.243.626.244zm8.934-7.262c-.221-.193-.32-.417-.297-.662.005-.054-.024-.129-.074-.15-.051-.022-.11-.007-.146.034-.294.334-.23.874.143 1.202.179.157.401.244.627.245h.002c.23 0 .438-.091.581-.253.036-.041.044-.102.017-.149-.027-.046-.104-.067-.159-.056-.238.053-.474-.017-.694-.211zm-4.302.229h.002c.23 0 .438-.09.582-.254.036-.041.042-.102.015-.148-.028-.048-.108-.066-.158-.055-.245.054-.475-.018-.693-.21-.221-.194-.32-.417-.297-.662.005-.054-.024-.129-.074-.15-.05-.022-.11-.008-.146.033-.294.334-.23.874.143 1.202.178.157.401.244.626.244zm6.191-6.676c-.246.055-.475-.018-.693-.21-.221-.194-.32-.417-.297-.662.005-.054-.024-.129-.074-.15-.051-.022-.11-.008-.146.033-.294.334-.23.874.143 1.202.179.157.401.244.627.244h.002c.23 0 .438-.09.582-.254.036-.041.042-.102.015-.148-.028-.048-.108-.066-.159-.055zM5.82 28.208c-.337-.42-.375-1.015-.093-1.479.029-.049.021-.111-.018-.152-.04-.041-.103-.05-.152-.021-.065.038-.13.076-.189.124-.308.247-.501.598-.544.99s.069.777.315 1.084c.291.363.72.552 1.152.552.324 0 .65-.105.922-.323.058-.047.106-.099.162-.159.039-.042.044-.104.013-.152-.031-.049-.094-.068-.145-.051-.514.172-1.085.007-1.423-.413zm9.722-7.372c.324 0 .65-.105.922-.323.058-.047.106-.099.162-.159.039-.042.044-.104.013-.152-.031-.049-.094-.068-.145-.051-.514.174-1.086.009-1.424-.411-.337-.42-.375-1.015-.093-1.479.029-.049.021-.111-.018-.152-.04-.041-.104-.049-.152-.021-.065.038-.13.076-.189.124-.308.247-.501.598-.544.99s.069.777.315 1.084c.292.361.72.55 1.153.55zm9.622-14.159c-.337-.42-.375-1.015-.093-1.479.029-.049.021-.111-.018-.152-.04-.041-.104-.05-.152-.021-.065.038-.13.076-.189.124-.308.247-.501.598-.544.99s.069.777.315 1.084c.291.363.72.552 1.152.552.324 0 .65-.105.922-.323.058-.047.106-.099.162-.159.039-.042.044-.104.013-.152-.031-.049-.094-.068-.145-.051-.514.172-1.085.007-1.423-.413zM12.559 29.056c-.3.252-.727.292-1.064.098-.337-.193-.519-.583-.451-.97.008-.045-.016-.09-.058-.108-.04-.019-.091-.007-.119.029-.034.043-.068.087-.097.135-.145.251-.183.543-.107.823.075.28.256.513.507.657.166.096.352.145.538.145.095 0 .19-.013.284-.038.279-.075.513-.255.657-.507.028-.049.049-.101.068-.152.016-.042.001-.09-.036-.116-.038-.028-.087-.026-.122.004zm-2.836-5.818c-.092-.378.065-.777.393-.995.038-.025.054-.073.039-.116-.016-.043-.059-.071-.104-.066-.054.004-.108.01-.165.023-.281.068-.52.242-.67.489-.151.247-.196.538-.129.819.068.281.241.519.488.67.173.105.366.159.563.159.085 0 .171-.01.255-.03.055-.013.104-.032.159-.055.042-.018.067-.061.061-.106-.006-.045-.042-.081-.087-.086-.39-.045-.713-.328-.803-.706zm12.202-9.621c-.26.294-.677.396-1.038.256-.362-.142-.6-.5-.592-.892.001-.045-.028-.086-.072-.098-.045-.014-.092.006-.113.045-.028.048-.056.097-.075.149-.218.557.059 1.187.615 1.403.129.05.261.074.392.074.434 0 .845-.263 1.013-.691.02-.053.032-.106.044-.16.01-.044-.012-.09-.053-.111-.039-.019-.091-.009-.121.025zm-1.15 8.999c-.267.286-.688.377-1.045.226-.358-.152-.585-.517-.565-.908.003-.046-.027-.086-.07-.1-.044-.014-.092.005-.115.044-.029.046-.057.092-.079.144-.233.55.024 1.188.574 1.42.138.059.281.086.422.086.422 0 .824-.248.999-.66.021-.047.033-.096.05-.159.012-.045-.009-.091-.049-.113-.039-.021-.09-.013-.122.02z"
     fill="#5C913B"
     id="path20" />
  <circle
     fill="#77B255"
     cx="24.844"
     cy="20.719"
     r=".5"
     id="circle22" />
  <circle
     fill="#77B255"
     cx="30.875"
     cy="12.219"
     r=".5"
     id="circle24" />
  <circle
     fill="#77B255"
     cx="32.656"
     cy="7.219"
     r=".5"
     id="circle26" />
  <circle
     fill="#77B255"
     cx="28"
     cy="16.75"
     r=".5"
     id="circle28" />
  <circle
     fill="#77B255"
     cx="17.938"
     cy="28.344"
     r=".5"
     id="circle30" />
  <circle
     fill="#77B255"
     cx="20.656"
     cy="25.5"
     r=".789"
     id="circle32" />
  <circle
     fill="#77B255"
     cx="11.062"
     cy="32.938"
     r=".5"
     id="circle34" />
  <circle
     fill="#77B255"
     cx="25.781"
     cy="19.969"
     r=".5"
     id="circle36" />
  <circle
     fill="#77B255"
     cx="11.297"
     cy="19.828"
     r="1.422"
     id="circle38" />
  <circle
     fill="#77B255"
     cx="5.698"
     cy="23.355"
     r=".98"
     id="circle40" />
  <circle
     fill="#77B255"
     cx="26.448"
     cy="3.324"
     r=".98"
     id="circle42" />
  <circle
     fill="#77B255"
     cx="1.948"
     cy="27.23"
     r=".694"
     id="circle44" />
  <circle
     fill="#77B255"
     cx="2.48"
     cy="26.512"
     r=".694"
     id="circle46" />
  <circle
     fill="#77B255"
     cx="1.855"
     cy="31.324"
     r=".859"
     id="circle48" />
  <circle
     fill="#77B255"
     cx="13.509"
     cy="17.138"
     r=".639"
     id="circle50" />
  <circle
     fill="#77B255"
     cx="27.478"
     cy="2.169"
     r=".639"
     id="circle52" />
  <circle
     fill="#77B255"
     cx="31.447"
     cy="1.294"
     r=".639"
     id="circle54" />
  <circle
     fill="#77B255"
     cx="16.728"
     cy="14.201"
     r=".639"
     id="circle56" />
  <circle
     fill="#77B255"
     cx="19.697"
     cy="10.951"
     r=".639"
     id="circle58" />
  <circle
     fill="#77B255"
     cx="19.125"
     cy="11.594"
     r=".639"
     id="circle60" />
  <circle
     fill="#77B255"
     cx="22.009"
     cy="7.763"
     r=".639"
     id="circle62" />
  <g
     transform="matrix(0.03366615,0.01837132,-0.01837132,0.03366615,28.500706,11.213439)"
     id="g366"
     style="clip-rule:evenodd;fill-rule:evenodd;stroke-linejoin:round;stroke-miterlimit:1.41421">
    <path
       d="m 0,-78.192 c 0,0 36.935,-40.443 73.871,0 0,0 29.022,53.927 0,80.887 0,0 -47.487,37.748 -73.871,0 0,0 -31.658,-29.659 0,-80.887"
       style="fill-rule:nonzero"
       id="path364" />
  </g>
  <g
     transform="matrix(0.03366615,0.01837132,-0.01837132,0.03366615,31.101325,9.8716378)"
     id="g370"
     style="clip-rule:evenodd;fill-rule:evenodd;stroke-linejoin:round;stroke-miterlimit:1.41421">
    <path
       d="m 0,0.004 c 0,15.746 -9.282,28.514 -20.732,28.514 -11.448,0 -20.73,-12.768 -20.73,-28.514 0,-15.75 9.282,-28.518 20.73,-28.518 C -9.282,-28.514 0,-15.746 0,0.004"
       style="fill:#ffffff;fill-rule:nonzero"
       id="path368" />
  </g>
  <g
     transform="matrix(0.03366615,0.01837132,-0.01837132,0.03366615,23.054213,7.995572)"
     id="g374"
     style="clip-rule:evenodd;fill-rule:evenodd;stroke-linejoin:round;stroke-miterlimit:1.41421">
    <path
       d="m 0,-83.609 c 0,0 63.355,-28.052 80.648,34.562 0,0 18.114,72.98 -52.03,77.099 0,0 -89.444,-17.228 -28.618,-111.661"
       style="fill-rule:nonzero"
       id="path372" />
  </g>
  <g
     transform="matrix(0.03366615,0.01837132,-0.01837132,0.03366615,25.164037,6.6769327)"
     id="g378"
     style="clip-rule:evenodd;fill-rule:evenodd;stroke-linejoin:round;stroke-miterlimit:1.41421">
    <path
       d="m 0,0.002 c 0,16.239 -9.572,29.409 -21.381,29.409 -11.804,0 -21.379,-13.17 -21.379,-29.409 0,-16.244 9.575,-29.411 21.379,-29.411 C -9.572,-29.409 0,-16.242 0,0.002"
       style="fill:#ffffff;fill-rule:nonzero"
       id="path376" />
  </g>
  <g
     transform="matrix(0.03366615,0.01837132,-0.01837132,0.03366615,24.394738,12.66975)"
     id="g382"
     style="clip-rule:evenodd;fill-rule:evenodd;stroke-linejoin:round;stroke-miterlimit:1.41421">
    <path
       d="m -7.8919708,-36.672294 80.7959998,-6.484 c 0,0 -2.738,13.006 -13.279,22.769 0,0 -27.79,30.47 -59.67299976,-2.533 0,0 -5.21700004,-5.629 -7.84400004,-13.752"
       style="fill-rule:nonzero"
       id="path380" />
  </g>
</svg>
