<?xml version="1.0" encoding="UTF-8" standalone="no"?>
<svg
   version="1.1"
   id="Layer_2"
   x="0px"
   y="0px"
   viewBox="0 0 128 128"
   xml:space="preserve"
   sodipodi:docname="turtleGopher2.svg"
   inkscape:export-filename="/media/fdschonborn/Elements/Imágenes/turtleGopher2.png"
   inkscape:export-xdpi="96"
   inkscape:export-ydpi="96"
   style="enable-background:new 0 0 128 128;"
   inkscape:version="1.1.1 (1:1.1+202109281949+c3084ef5ed)"
   xmlns:inkscape="http://www.inkscape.org/namespaces/inkscape"
   xmlns:sodipodi="http://sodipodi.sourceforge.net/DTD/sodipodi-0.dtd"
   xmlns="http://www.w3.org/2000/svg"
   xmlns:svg="http://www.w3.org/2000/svg"
   xmlns:rdf="http://www.w3.org/1999/02/22-rdf-syntax-ns#"
   xmlns:cc="http://creativecommons.org/ns#"
   xmlns:dc="http://purl.org/dc/elements/1.1/"><metadata
   id="metadata19"><rdf:RDF><cc:Work
       rdf:about=""><dc:format>image/svg+xml</dc:format><dc:type
         rdf:resource="http://purl.org/dc/dcmitype/StillImage" /></cc:Work></rdf:RDF></metadata><defs
   id="defs17" /><sodipodi:namedview
   pagecolor="#ffffff"
   bordercolor="#666666"
   borderopacity="1"
   objecttolerance="10"
   gridtolerance="10"
   guidetolerance="10"
   inkscape:pageopacity="0"
   inkscape:pageshadow="2"
   inkscape:window-width="1280"
   inkscape:window-height="647"
   id="namedview15"
   showgrid="false"
   inkscape:zoom="2.2097087"
   inkscape:cx="72.634009"
   inkscape:cy="35.751319"
   inkscape:window-x="0"
   inkscape:window-y="0"
   inkscape:window-maximized="1"
   inkscape:current-layer="Layer_2"
   inkscape:document-rotation="0"
   inkscape:pagecheckerboard="0" />
<g
   id="g63"
   transform="matrix(0.23689745,0,0,0.23689745,-2.7648386,41.835033)"><path
     fill-rule="evenodd"
     clip-rule="evenodd"
     fill="#6ad7e5"
     stroke="#000000"
     stroke-width="3"
     stroke-linecap="round"
     d="M 46.997,112.853 C -13.3,95.897 31.536,19.189 79.956,50.74 Z"
     id="path6-6" /><path
     fill-rule="evenodd"
     clip-rule="evenodd"
     d="M 49.513,91.667 C 41.558,87.459 35.722,81.744 40.588,72.543 45.093,64.025 53.462,64.95 61.418,69.158 Z"
     id="path18" /></g><path
   style="fill:#6ad7e5;stroke:#000000;stroke-opacity:1"
   d="m 115.31817,59.21 c 0,0 3.94,-2.21 4.93,-2.77 0.99,-0.56 4.6,-2.82 5.91,-0.84 0.77,1.16 -0.7,4.44 -3.05,7.86 -2.14,3.13 -7.12,9.56 -7.4,10.83 -0.28,1.27 1.11,6.36 1.53,8.33 0.42,1.97 1.74,6.71 1.17,8.54 -0.57,1.83 -3.43,6.85 -10.75,6.76 -5.82,-0.07 -7.51,-1.78 -7.699999,-2.82 -0.14,-0.75 -0.56,-3.24 -0.56,-3.24 0,0 -4.79,2.96 -7.04,4.08 -2.25,1.12 -8.31,4.22 -8.31,4.22 0,0 1.17,5.35 1.36,7.51 0.19,2.16 0.86,5.25 -0.28,7.32 -1.03,1.88 -4.25,5.02 -11.83,4.97 -5.92,-0.04 -7.41,-1.88 -8.35,-3 -0.94,-1.13 -1.13,-6.48 -1.13,-7.6 0,-1.12 -0.19,-5.07 -0.19,-5.07 0,0 -8.02,-0.4 -12.86,-0.75 -4.38,-0.32 -10.16,-0.99 -10.16,-0.99 0,0 0.21,2.33 0.42,4.01 0.19,1.5 0.23,4.64 -1.34,6.17 -2.11,2.06 -7.56,2.21 -10.56,1.92 -3,-0.28 -7.18,-1.83 -8.4,-4.55 -1.22,-2.72 0.38,-6.29 1.03,-8.35 0.58,-1.81 1.6,-4.41 1.22,-5.16 -0.38,-0.75 -4.04,-1.69 -9.29,-6.95 -5.2600003,-5.26 -12.1300003,-23.52 3.28,-36.23 15.49,-12.76 43.81,1.1 45.31,2.04 1.54,0.96 53.039999,3.76 53.039999,3.76 z"
   id="path2" />
<path
   style="fill:#356b72;stroke:#000000;stroke-opacity:1"
   d="m 68.868171,25.28 c -13.93,0.62 -24.38,7.52 -29.57,15.06 -3.1,4.5 -4.65,7.74 -4.65,7.74 0,0 4.81,0.14 9.15,2.46 5,2.67 10.8,5.56 14.61,18.13 2.87,9.5 3.98,18.53 11.44,20.52 8.45,2.25 28.16,1.13 37.589999,-8.02 9.43,-9.15 11.26,-16.05 8.87,-25.06 -2.39,-9.01 -13.17,-25.05 -28.159999,-29.28 -6.47,-1.83 -12.95,-1.83 -19.28,-1.55 z"
   id="path4" />
<path
   style="fill:#2e2b2e;fill-opacity:1"
   d="m 114.54817,51.32 c -0.42,-0.99 -1.3,-2.5 -1.3,-2.5 0,0 -0.07,2.05 -0.25,3.13 -0.28,1.76 -1.25,5.42 -1.81,4.88 -1,-0.97 -5.73,-6.92 -7.98,-10.23 -1.71,-2.52 -7.599999,-9.11 -7.739999,-11.26 -0.07,-1.06 1.27,-4.65 1.27,-4.65 0,0 -1.22,-0.7 -2.35,-1.34 -0.88,-0.49 -2.16,-1.03 -2.16,-1.03 0,0 -0.77,4.9 -1.62,5.82 -0.75,0.81 -5.32,2.6 -8.87,3.94 -4.29,1.62 -8.45,3.73 -10,4.01 -1.36,0.25 -9.09,-1.41 -12,-1.97 -3.66,-0.7 -9.18,-2.26 -10.45,-3.17 -1.48,-1.06 -3.07,-3.78 -3.07,-3.78 0,0 -0.89,0.61 -1.78,1.31 -0.88,0.69 -2.02,2.06 -2.02,2.06 0,0 2.31,2.32 2.44,3.18 0.18,1.2 -1.27,2.83 -2.46,4.38 -0.72,0.93 -2.75,4.85 -2.75,4.85 0,0 0.97,0.09 2.15,0.63 1.23,0.57 2.38,1.16 2.38,1.16 0,0 2.97,-6.9 4.9,-7.53 1.65,-0.54 6.3,0.99 9.68,1.69 4.79,0.99 9.64,1.87 10.66,3.17 1.06,1.34 2.06,6.68 3.03,11.19 1.06,4.94 3.81,17.76 3.17,18.74 -0.63,0.99 -5.7,0.63 -8.59,0.28 -2.45,-0.3 -6.41,-1.76 -6.41,-1.76 0,0 0.58,2.11 0.77,2.67 0.28,0.81 1.16,3.06 1.16,3.06 0,0 5.67,2.5 22.42,0.95 16.749999,-1.55 25.029999,-12.96 27.379999,-18.02 3.14,-6.78 3.54,-10.39 3.54,-10.39 0,0 -0.92,-2.48 -1.34,-3.47 z M 99.268171,73.21 c -4.24,2.67 -15.2,5.49 -17.18,4.43 -1.58,-0.85 -3.94,-13.94 -5.07,-19.78 -0.72,-3.74 -2.45,-9.42 -1.41,-11.19 0.7,-1.2 4.79,-2.99 7.81,-4.4 2.87,-1.33 6.97,-3.13 8.17,-2.99 1.7,0.2 5.35,6.12 9.009999,11.19 3.66,5.07 7.67,10.35 7.74,12.18 0.09,1.84 -4.7,7.82 -9.069999,10.56 z"
   id="path6" />



<path
   inkscape:connector-curvature="0"
   style="clip-rule:evenodd;fill:#ffffff;fill-rule:evenodd;stroke:#000000;stroke-width:0.506144;stroke-linecap:round;stroke-linejoin:round;stroke-miterlimit:1.41421"
   d="M 34.109152,71.104178 C 36.037582,81.830139 54.361766,78.994193 51.729791,68.17647 49.369696,58.475897 33.46824,61.161005 34.109152,71.104178"
   id="path1070" /><path
   inkscape:connector-curvature="0"
   style="clip-rule:evenodd;fill:#ffffff;fill-rule:evenodd;stroke:#000000;stroke-width:0.491053;stroke-linecap:round;stroke-linejoin:round;stroke-miterlimit:1.41421"
   d="m 12.211732,72.838977 c 2.499415,9.337951 18.124899,6.947197 17.535942,-2.419696 C 29.041995,59.200972 9.8220997,61.365639 12.211732,72.838977"
   id="path1072" /><path
   inkscape:connector-curvature="0"
   style="clip-rule:evenodd;fill:#ffffff;fill-rule:evenodd;stroke:#000000;stroke-width:0.522139;stroke-linecap:round;stroke-linejoin:round;stroke-miterlimit:1.41421"
   d="m 36.319961,83.975058 c 0.0082,1.394478 0.331132,2.960054 0.05552,4.44357 -0.372057,0.67281 -1.101936,0.743973 -1.731104,1.015854 -0.87009,-0.130578 -1.601748,-0.677235 -1.950673,-1.455937 -0.223305,-1.69326 0.08327,-3.33272 0.139677,-5.026661 z"
   id="path1074" /><g
   transform="matrix(0.17793234,0,0,0.17024523,-2.5749794,55.073886)"
   id="g1080"
   style="clip-rule:evenodd;fill-rule:evenodd;stroke-linejoin:round;stroke-miterlimit:1.41421"><ellipse
     cx="107.324"
     cy="95.403999"
     rx="14.829"
     ry="16.062"
     id="ellipse1076"
     style="clip-rule:evenodd;fill-rule:evenodd" /><ellipse
     cx="114.069"
     cy="99.028999"
     rx="3.4960001"
     ry="4.0819998"
     id="ellipse1078"
     style="clip-rule:evenodd;fill:#ffffff;fill-rule:evenodd" /></g><g
   transform="matrix(0.17793234,0,0,0.17024523,-2.5749794,55.073886)"
   id="g1086"
   style="clip-rule:evenodd;fill-rule:evenodd;stroke-linejoin:round;stroke-miterlimit:1.41421"><ellipse
     cx="231.571"
     cy="91.403999"
     rx="14.582"
     ry="16.062"
     id="ellipse1082"
     style="clip-rule:evenodd;fill-rule:evenodd" /><ellipse
     cx="238.20399"
     cy="95.028999"
     rx="3.438"
     ry="4.0819998"
     id="ellipse1084"
     style="clip-rule:evenodd;fill:#ffffff;fill-rule:evenodd" /></g><path
   inkscape:connector-curvature="0"
   style="clip-rule:evenodd;fill:#ffffff;fill-rule:evenodd;stroke:#000000;stroke-width:0.522139;stroke-linecap:round;stroke-linejoin:round;stroke-miterlimit:1.41421"
   d="m 28.779723,83.8232 c -1.151222,2.669445 0.64198,8.007483 3.765582,4.070223 -0.223305,-1.693259 0.08327,-3.332721 0.139677,-5.026661 z"
   id="path1088" /><g
   transform="matrix(0.17793234,0,0,0.17024523,-2.5749794,55.073886)"
   id="g1094"
   style="clip-rule:evenodd;fill-rule:evenodd;stroke-linejoin:round;stroke-miterlimit:1.41421"><path
     d="m 178.431,138.673 c -12.059,1.028 -21.916,15.366 -15.646,26.709 8.303,15.024 26.836,-1.329 38.379,0.203 13.285,0.272 24.17,14.047 34.84,2.49 11.867,-12.854 -5.109,-25.373 -18.377,-30.97 z"
     id="path1090"
     inkscape:connector-curvature="0"
     style="clip-rule:evenodd;fill:#f6d2a2;fill-rule:evenodd;stroke:#231f20;stroke-width:3;stroke-linecap:round" /><path
     d="m 176.913,138.045 c -0.893,-20.891 38.938,-23.503 43.642,-6.016 4.692,17.446 -41.681,21.498 -43.642,6.016 -1.565,-12.363 0,0 0,0 z"
     id="path1092"
     inkscape:connector-curvature="0"
     style="clip-rule:evenodd;fill-rule:evenodd" /></g><g
   id="g67"
   transform="matrix(0.23689745,0,0,0.23689745,-23.732616,44.413293)"><path
     fill-rule="evenodd"
     clip-rule="evenodd"
     fill="#6ad7e5"
     stroke="#000000"
     stroke-width="3"
     stroke-linecap="round"
     d="m 314.895,44.984 c 47.727,-33.523 90.856,42.111 35.388,61.141 z"
     id="path8" /><path
     fill-rule="evenodd"
     clip-rule="evenodd"
     d="m 337.716,83.667 c 7.955,-4.208 13.791,-9.923 8.925,-19.124 -4.505,-8.518 -12.874,-7.593 -20.83,-3.385 z"
     id="path20" /></g></svg>
