<?xml version="1.0" encoding="UTF-8" standalone="no"?>
<svg
   viewBox="0 0 379 316"
   fill-rule="evenodd"
   clip-rule="evenodd"
   stroke-linejoin="round"
   stroke-miterlimit="2"
   version="1.1"
   id="svg420"
   sodipodi:docname="ziggo.svg"
   inkscape:version="1.1.1 (3bf5ae0d25, 2021-09-20)"
   inkscape:export-filename="/run/media/federico/Elements/Imágenes/ziggo.png"
   inkscape:export-xdpi="96"
   inkscape:export-ydpi="96"
   xmlns:inkscape="http://www.inkscape.org/namespaces/inkscape"
   xmlns:sodipodi="http://sodipodi.sourceforge.net/DTD/sodipodi-0.dtd"
   xmlns="http://www.w3.org/2000/svg"
   xmlns:svg="http://www.w3.org/2000/svg">
  <defs
     id="defs424" />
  <sodipodi:namedview
     id="namedview422"
     pagecolor="#ffffff"
     bordercolor="#666666"
     borderopacity="1.0"
     inkscape:pageshadow="2"
     inkscape:pageopacity="0.0"
     inkscape:pagecheckerboard="0"
     showgrid="false"
     inkscape:snap-nodes="false"
     inkscape:snap-others="false"
     inkscape:snap-global="false"
     inkscape:zoom="2.5221519"
     inkscape:cx="225.40276"
     inkscape:cy="147.69134"
     inkscape:window-width="1920"
     inkscape:window-height="1011"
     inkscape:window-x="0"
     inkscape:window-y="0"
     inkscape:window-maximized="1"
     inkscape:current-layer="svg420" />
  <path
     fill="none"
     d="M0 0h378.647v315.643H0z"
     id="path358" />
  <path
     d="m 277.141,209.379 -26.65,13.503 c 4.936,11.808 4.288,20.339 2.82,25.489 -1.484,5.206 -5.688,13.994 -6.516,15.703 -0.402,0.832 -0.814,1.662 -1.232,2.487 l 8.678,-3.365 -3.504,12.794 10.468,-8.308 3.37,11.984 c 5.304,-7.189 9.33,-15.079 11.986,-23.5 5.867,-18.602 3.725,-35.393 0.58,-46.787"
     fill="#f98a31"
     id="path360"
     style="fill-rule:nonzero;fill:#f6d2a2" />
  <path
     d="m 264.575,279.665 -3.37,-11.984 -10.469,8.309 3.506,-12.794 -8.679,3.364 c 0.418,-0.824 0.831,-1.655 1.233,-2.486 0.828,-1.709 5.032,-10.497 6.515,-15.702 1.468,-5.151 2.116,-13.682 -2.82,-25.489 l 26.651,-13.504 c 3.144,11.393 5.287,28.185 -0.582,46.787 -2.654,8.421 -6.681,16.311 -11.985,23.499 m 15.358,-73.334 -0.609,-2.014 -33.412,16.929 0.69,1.537 c 5.224,11.638 4.686,19.812 3.316,24.62 -1.434,5.03 -5.805,14.112 -6.298,15.132 a 146.141,146.141 0 0 1 -3.364,6.529 l -2.323,4.241 11.054,-4.287 -4.504,16.439 14.76,-11.714 3.814,13.558 2.145,-2.669 c 6.638,-8.255 11.593,-17.475 14.725,-27.404 6.497,-20.597 3.589,-39.047 0.006,-50.897"
     fill="#231f20"
     id="path362"
     style="fill-rule:nonzero" />
  <path
     d="m 253.727,273.616 -2.988,2.378 3.482,-12.729 c 0.119,0.566 0.223,1.154 0.294,1.764 0.388,3.294 -0.081,6.223 -0.788,8.587 m 23.914,-60.86 c -0.283,1.035 -0.894,1.94 -1.494,2.835 -2.906,4.294 -5.858,8.621 -9.504,12.338 -0.105,0.11 -0.224,0.227 -0.352,0.35 a 16.347,16.347 0 0 0 -4.774,8.92 58.641,58.641 0 0 1 -1.356,5.881 c -1.258,4.435 -3.729,12.752 -10.81,20.503 a 42.566,42.566 0 0 1 -2.399,2.434 l -1.388,0.541 c 0.411,-0.822 0.835,-1.657 1.235,-2.48 0.823,-1.718 5.035,-10.505 6.516,-15.705 0.859,-3.022 1.424,-7.211 0.765,-12.526 -0.471,-3.764 -1.541,-8.081 -3.588,-12.964 l 0.001,-0.002 a 6619.94,6619.94 0 0 0 14.785,-7.491 c 3.906,-1.975 7.822,-4.398 11.88,-5.974 0.424,1.105 0.812,2.129 0.483,3.34 m -12.809,66.555 c -0.083,0.117 -0.177,0.234 -0.26,0.352 l -3.175,-11.315 c 0.506,0.423 0.906,0.823 1.069,1.139 1.966,3.66 2.377,7.271 2.366,9.824"
     fill="#e56c2c"
     id="path364"
     style="fill-rule:nonzero;fill:#f6bd6f;fill-opacity:1" />
  <path
     d="m 324.693,136.489 c -0.833,-1.352 -3.475,-2.729 -11.306,-1.621 -11.317,1.603 -22.235,7.924 -32.449,18.788 -0.223,0.237 -0.406,0.432 -0.548,0.579 -0.49,0.504 -49.537,50.65 -97.845,64.293 -20.632,5.827 -37.82,3.583 -51.63,1.779 -5.632,-0.735 -10.66,-1.392 -15.095,-1.392 -7.017,0 -12.548,1.644 -16.643,7.22 -5.783,7.875 -6.654,20.049 -5.017,28.027 1.088,5.3 3.283,9.266 6.021,10.88 4.477,2.639 8.741,3.955 13.826,4.269 33.917,2.091 52.598,3.242 82.665,-5.415 8.747,-2.519 15.65,-4.506 24.626,-8.629 12.025,-5.523 43.967,-20.193 56.166,-51.791 2.431,-6.299 3.976,-12.992 4.592,-19.895 l 0.216,-2.413 1.549,1.863 c 1.884,2.263 4.469,3.664 6.917,3.746 1.257,0.033 2.353,-0.29 2.924,-0.89 1.233,-1.295 1.041,-4.792 -1.21,-7.932 l -1.235,-1.722 2.114,0.141 c 2.934,0.198 4.88,-0.301 5.776,-1.479 1.227,-1.612 0.403,-4.522 -0.258,-6.861 -0.649,-2.299 -1.211,-4.285 0.124,-5.257 1.371,-0.996 3.096,0.224 5.094,1.635 2.041,1.443 4.577,3.241 6.617,2.64 1.629,-0.48 2.352,-2.355 3.704,-6.214 0.297,-0.847 0.618,-1.765 0.986,-2.753 2.565,-6.908 5.177,-11.468 7.085,-14.797 2.201,-3.842 3.06,-5.455 2.234,-6.799"
     fill="#f15a29"
     id="path368"
     style="fill-rule:nonzero;fill:#3eccda;fill-opacity:1" />
  <path
     d="m 181.977,267.545 c -6.167,1.271 -14.937,3.858 -24.147,4.216 -22.107,0.857 -48.661,-1.124 -55.164,-4.208 -0.21,-2.96 -0.406,-4.571 -1.496,-7.422 1.37,-1.199 -0.781,-2.91 0.189,-4.36 7.78,1.25 37.378,4.884 50.908,5.194 9.76,0.221 20.324,-1.96 28.604,-3.62 0.64,3.09 3.297,7.051 4.357,9.96 m 113.879,-92.409 c -0.9,1.18 -2.84,1.68 -5.78,1.479 l -1.92,-0.129 c -0.04,-0.18 0.08,-0.371 0.2,-0.531 1.04,-1.38 2.87,-1.769 2.87,-1.769 1.29,-0.28 1.5,0.059 2.34,-0.13 1.18,-0.26 2.189,-1.24 2.83,-2.37 0.189,1.33 0.12,2.58 -0.54,3.45 m 23.269,-31.47 c -1.899,3.32 -4.47,7.84 -7,14.66 -0.37,0.99 -0.689,1.91 -0.989,2.75 -1.351,3.86 -2.071,5.74 -3.7,6.22 -2.04,0.6 -4.581,-1.2 -6.621,-2.64 -1.25,-0.88 -2.389,-1.69 -3.4,-1.93 0.21,-0.24 0.41,-0.4 0.53,-0.5 2.14,-1.67 4.93,-0.33 6.941,-0.51 2.559,-0.22 3.349,-2.83 7.279,-8.76 2.811,-4.25 5.311,-8.02 6.96,-9.29 m -29.259,42.86 c -0.6,0.34 -1.439,0.51 -2.38,0.49 -2.45,-0.08 -5.03,-1.48 -6.92,-3.75 l -1.54,-1.86 -0.22,2.42 c -0.62,6.9 -2.16,13.591 -4.589,19.89 -2.901,7.52 -6.921,14.081 -11.521,19.78 a 83.113,83.113 0 0 1 -5.47,6.131 c -5.45,5.569 -11.36,10.159 -17.03,13.909 -0.88,0.58 -1.76,1.14 -2.63,1.69 -7.889,4.941 -15.07,8.24 -19.52,10.28 a 118.34,118.34 0 0 1 -8.27,3.45 l -3.2,-8.789 c 12.265,-3.805 21.408,-8.91 27.373,-12.789 7.628,-4.962 30.107,-20.96 41.317,-50.001 a 96.361,96.361 0 0 0 2.68,-7.96 c 0.84,-0.521 2.05,-1.071 3.28,-0.761 1.65,0.41 2.161,2.07 3.42,3.74 1.38,1.82 3.38,3.32 5.22,4.13"
     fill="#c54827"
     id="path370"
     style="fill-rule:nonzero;fill:#25b3c0;fill-opacity:1" />
  <path
     d="M307.078 66.178a37.519 37.519 0 0 1-.639-12 37.514 37.514 0 0 1 3.448-12.127 40.33 40.33 0 0 0-13.533 21.574 56.202 56.202 0 0 1 1.405-29.489 46.806 46.806 0 0 0-8.809 12.51 46.883 46.883 0 0 0-4.468 16.341 116.292 116.292 0 0 1-6.765-26.426 116.292 116.292 0 0 1-.859-21.636c-3.393 3.451-9.055 10.156-12.291 20.232-4.745 14.779-1.261 27.436.256 32.042l-2.682 1.277a162.782 162.782 0 0 1-12.893-27.83 162.618 162.618 0 0 1-6.347-23.424c-2.075 5.437-4.379 13.504-4.504 23.424-.219 17.418 6.405 30.432 9.957 36.383-5.108-3.881-11.958-10.05-18-19.149a78.345 78.345 0 0 1-8.173-16.064c-1.013 4.301-1.914 10.636-.847 18.107 2.139 14.99 10.793 24.721 14.383 28.34-3.869-.705-10.502-2.453-17.235-7.276-9.453-6.774-13.497-15.598-14.981-19.405-.514 3.946-.89 11.151 2.088 19.277 4.884 13.33 15.385 19.851 18.638 21.702l-3 4.851a67.098 67.098 0 0 1-16.021-9.574 67.154 67.154 0 0 1-13.824-15.177c.28 3.76 1.393 11.82 6.93 20.028 6.225 9.229 14.459 13.332 17.903 14.818l-3.031 4.631a38.007 38.007 0 0 1-14.148-4.513c-7.629-4.233-11.875-10.061-13.788-13.107.216 3.149 1.021 8.503 4.256 14.128 5.403 9.396 13.938 13.204 16.85 14.353l-2.421 3.991c-2.546-.091-7.756-.622-13.238-3.876-6.309-3.745-9.385-8.966-10.553-11.234a37.346 37.346 0 0 0 5.106 14.298c4.274 6.99 9.813 10.835 12.767 12.596l-3.647 3.872a33.23 33.23 0 0 1-12.184-4.383c-6.632-3.999-10.178-9.337-11.744-12.085-.245 1.817-.984 8.894 3.575 15.83 4.13 6.287 10.05 8.558 11.914 9.191l-5.936 6.724a36.37 36.37 0 0 1-6.83-4.851c-6.034-5.44-8.877-11.709-10.212-15.49-.333 2.965-.729 10.232 3.404 17.702a28.862 28.862 0 0 0 6.872 8.256l-3.168 3.091a38.59 38.59 0 0 1-8.13-7.091 38.787 38.787 0 0 1-7.149-12.256 28.374 28.374 0 0 0 1.873 12.256 28.393 28.393 0 0 0 7.319 10.638l-4.596 2.979a37.431 37.431 0 0 1-6.638-6.128 37.667 37.667 0 0 1-6.639-11.404c-.386 2.273-.899 7.177 1.192 12.765a24.577 24.577 0 0 0 5.702 8.809l-5.234 3.575a38.484 38.484 0 0 1-6.255-6.256 38.803 38.803 0 0 1-6.468-12.085c-.374 2.28-.79 6.724.851 11.915a25.777 25.777 0 0 0 5.496 9.55l-5.911 2.078c-1.269-.482-5.953-2.435-8.777-7.628-2.413-4.436-2.063-8.652-1.872-10.128a19.847 19.847 0 0 0-1.958 10.639 19.838 19.838 0 0 0 3.83 9.911l-7.787 1.45a20.588 20.588 0 0 1-6.511-8.297 20.574 20.574 0 0 1-1.562-9.973 23.488 23.488 0 0 0-3.033 8.951 23.51 23.51 0 0 0 .952 10.079c-2.608.074-5.217.147-7.825.219a30.35 30.35 0 0 1-2.447-6.085 30.458 30.458 0 0 1-1.1-9.441c-1.5 1.745-3.84 4.957-5.027 9.569a23.456 23.456 0 0 0-.724 6.624c2.046.05 4.729.078 7.873.014 0 0 5.63-.116 10.695-.543 16.07-1.359 29.773-6.223 29.773-6.223 14.736-5.23 24.554-12.827 32.425-19.021 6.202-4.88 20.389-16.84 33.618-36.681 12.139-18.209 9.537-22.155 21.822-38.827 7.396-10.036 14.757-20.026 27.198-27.216 19.741-11.407 41.048-9.28 52.043-7.191"
     fill="#231f20"
     fill-rule="nonzero"
     id="path400" />
  <path
     d="m 314.388,160.838 c -1.353,3.858 -2.075,5.734 -3.704,6.214 -2.04,0.6 -4.576,-1.197 -6.617,-2.64 -1.998,-1.411 -3.723,-2.631 -5.094,-1.636 -1.335,0.973 -0.773,2.958 -0.124,5.258 0.661,2.339 1.484,5.249 0.258,6.861 -0.897,1.178 -2.842,1.676 -5.777,1.479 l -2.113,-0.141 1.234,1.722 c 2.251,3.14 2.444,6.637 1.21,7.932 -0.57,0.599 -1.667,0.923 -2.923,0.889 -2.449,-0.082 -5.034,-1.482 -6.917,-3.746 l -1.549,-1.862 -0.216,2.413 c -0.616,6.903 -2.161,13.596 -4.593,19.895 -12.198,31.598 -44.14,46.268 -56.165,51.791 -8.976,4.123 -15.88,6.11 -24.626,8.629 -30.067,8.657 -48.748,7.505 -82.665,5.415 -5.085,-0.314 -9.349,-1.63 -13.826,-4.269 -2.739,-1.614 -4.934,-5.58 -6.022,-10.88 -1.637,-7.978 -0.765,-20.152 5.018,-28.027 4.094,-5.576 9.626,-7.22 16.643,-7.22 4.434,0 9.463,0.656 15.095,1.392 13.81,1.803 30.997,4.048 51.629,-1.78 48.309,-13.642 97.356,-63.788 97.846,-64.293 0.142,-0.146 0.325,-0.341 0.548,-0.578 10.214,-10.864 21.132,-17.185 32.449,-18.788 7.831,-1.108 10.473,0.269 11.306,1.621 0.826,1.344 -0.034,2.956 -2.235,6.799 -1.907,3.329 -4.519,7.889 -7.085,14.797 -0.367,0.988 -0.688,1.906 -0.985,2.753 m 12.008,-25.397 c -2.51,-4.08 -10.624,-2.93 -13.29,-2.553 -11.779,1.668 -23.092,8.195 -33.625,19.398 -0.214,0.228 -0.39,0.415 -0.527,0.555 -0.486,0.501 -49.156,50.264 -96.954,63.763 -20.236,5.714 -37.198,3.5 -50.826,1.72 -14.655,-1.914 -26.228,-3.425 -33.609,6.627 -6.177,8.412 -7.146,20.934 -5.364,29.613 1.218,5.939 3.692,10.272 6.964,12.201 4.764,2.807 9.303,4.208 14.722,4.542 13.324,0.821 24.312,1.499 34.565,1.499 16.017,0 30.243,-1.653 48.78,-6.99 8.821,-2.54 15.788,-4.545 24.9,-8.731 12.228,-5.616 44.706,-20.532 57.196,-52.889 a 74.995,74.995 0 0 0 4.499,-18.3 c 2.028,1.771 4.436,2.798 6.843,2.879 1.859,0.057 3.468,-0.488 4.441,-1.509 1.778,-1.868 1.695,-5.525 -0.042,-8.863 2.652,-0.097 4.542,-0.868 5.63,-2.297 1.83,-2.406 0.857,-5.849 0.075,-8.616 -0.294,-1.041 -0.731,-2.586 -0.608,-3.072 0.506,0.044 1.845,0.99 2.745,1.628 2.394,1.692 5.378,3.8 8.337,2.924 2.686,-0.79 3.618,-3.447 5.028,-7.471 0.292,-0.835 0.61,-1.742 0.972,-2.718 2.508,-6.753 5.073,-11.23 6.946,-14.499 2.298,-4.011 3.684,-6.432 2.202,-8.841"
     fill="#231f20"
     id="path372"
     style="fill-rule:nonzero" />
  <g
     id="g5255"
     transform="matrix(0.32425171,0.07959729,-0.07959729,0.32425171,173.90371,-92.317341)">
    <path
       fill-rule="evenodd"
       clip-rule="evenodd"
       fill="#6ad7e5"
       stroke="#000000"
       stroke-width="3"
       stroke-linecap="round"
       d="m 318.76954,476.66313 c -60.297,-16.956 -15.461,-93.664 32.959,-62.113 z"
       id="path599" />
    <path
       fill-rule="evenodd"
       clip-rule="evenodd"
       d="m 321.28554,455.47713 c -7.955,-4.208 -13.791,-9.923 -8.925,-19.124 4.505,-8.518 12.874,-7.593 20.83,-3.385 z"
       id="path611" />
  </g>
  <path
     d="m 346.091,99.656 a 23.035,23.035 0 0 0 -5.516,-0.958 l -1.171,-0.061 -0.224,-1.15 a 28.42,28.42 0 0 0 -0.422,-1.83 c -4.232,-15.942 -21.294,-24.692 -28.434,-27.714 -28.067,-11.88 -55.257,4.641 -55.53,4.809 -8.142,5.047 -12.63,10.582 -20.928,22.009 -16.75,23.07 -25.172,37.172 -31.323,47.469 -6.665,11.159 -10.687,17.895 -19.643,26.759 -21.581,21.359 -43.857,29.09 -58.743,31.813 -11.636,2.129 -47.045,8.607 -63.992,-12.45 -7.309,-9.083 -13.7,-26.918 -2.638,-60.304 2.493,-7.525 5.595,-16.889 12.98,-26.97 2.866,-3.911 6.001,-7.43 8.768,-10.535 4.365,-4.9 8.488,-9.528 7.462,-11.571 -0.281,-0.558 -0.984,-1.01 -2.044,-1.317 -8.391,2.69 -16.059,6.633 -22.796,11.72 -32.698,24.691 -38.871,70.23 -30.769,102.094 8.561,33.667 25.787,48.791 38.73,55.549 12.487,6.522 24.488,6.382 48.395,6.1 l 1.186,-0.014 c 22.321,-0.26 39.662,-4.104 65.91,-9.923 18.25,-4.045 22.8,-6.085 25.244,-7.18 13.011,-5.835 25.42,-15.705 36.928,-29.356 7.898,-9.37 11.777,-17.068 15.2,-23.861 4.499,-8.927 8.384,-16.637 19.511,-24.835 13.124,-9.67 21.794,-16.058 34.577,-17.643 a 236.64,236.64 0 0 1 3.914,-0.441 c 6.94,-0.742 12.421,-1.328 15.187,-5.533 a 9.182,9.182 0 0 0 1.079,-2.291 c -5.381,1.049 -10.598,1.193 -15.544,0.428 l -0.283,-0.045 c -1.471,-0.184 -4.628,-0.641 -7.343,-1.448 l -0.638,-0.187 c -1.778,-0.518 -2.952,-0.861 -2.576,-2.308 l 10e-4,-0.003 c 0.386,-1.473 1.614,-1.16 3.313,-0.726 1.732,0.442 4.901,1.251 7.678,1.703 0.345,0.043 0.58,0.069 0.67,0.078 5.952,0.621 11.972,-0.089 16.479,-0.948 l 1.901,-0.457 -0.008,0.07 c 3.317,-0.722 5.444,-1.425 5.494,-1.442 6.739,-2.266 10.807,-3.633 12.739,-7.494 1.686,-3.366 1.003,-6.9 0.631,-8.264 -1.95,-7.154 -10.029,-10.315 -13.412,-11.342"
     fill="#fbb040"
     id="path376"
     style="fill-rule:nonzero;fill:#6ad7e5" />
  <path
     d="m 75.667,94.646 c -1.73,2.01 -3.49,4.15 -5.16,6.43 -7.38,10.08 -10.49,19.45 -12.98,26.97 -7.78,23.48 -6.93,39.27 -3.19,49.73 a 56.173,56.173 0 0 1 -4.33,-8.771 c -8.97,-23.169 -2.03,-52.029 16.6,-68.169 2.27,-1.97 5.24,-4.17 9.06,-6.19"
     fill="#f09d2e"
     id="path378"
     style="fill-rule:nonzero;fill:#90e1ee;fill-opacity:1" />
  <path
     d="m 358.926,119.29 a 7.956,7.956 0 0 1 -0.96,1.499 c -1.468,1.804 -3.658,2.842 -5.808,3.73 -12.12,5.006 -25.893,7.047 -38.424,3.184 -1.034,-0.319 -2.404,-0.565 -2.985,0.347 -0.643,1.009 0.485,2.289 1.637,2.611 a 62.437,62.437 0 0 0 8.78,1.764 c 0.09,0.011 0.181,0.03 0.281,0.04 4.94,0.77 10.16,0.62 15.54,-0.43 -0.26,0.84 -0.621,1.6 -1.081,2.3 -2.759,4.2 -8.24,4.79 -15.179,5.53 -1.271,0.13 -2.571,0.27 -3.92,0.44 -12.78,1.59 -21.45,7.97 -34.57,17.64 -11.13,8.2 -15.02,15.91 -19.52,24.84 -3.421,6.79 -7.301,14.49 -15.2,23.86 -11.5,13.65 -23.91,23.52 -36.92,29.35 -2.45,1.101 -7,3.141 -25.251,7.191 -26.25,5.809 -43.589,9.66 -65.909,9.919 l -1.18,0.01 c -23.911,0.28 -35.911,0.42 -48.4,-6.099 -12.94,-6.761 -30.17,-21.88 -38.73,-55.551 -2.881,-11.34 -3.96,-24.42 -2.671,-37.67 0.521,5.4 1.43,10.61 2.671,15.49 8.56,33.67 25.79,48.79 38.73,55.55 12.489,6.52 24.489,6.38 48.4,6.101 l 1.18,-0.01 c 16.243,-0.139 31.531,-3.527 47.38,-6.083 16.244,-2.621 32.741,-5.803 47.474,-13.451 13.548,-7.034 24.892,-17.536 34.825,-28.996 10.436,-12.039 18.691,-24.486 31.514,-34.279 6.342,-4.843 12.977,-9.297 19.173,-14.331 2.783,-2.261 5.232,-4.891 8.358,-6.623 3.386,-1.877 6.859,-3.37 10.679,-4.115 5.038,-0.983 10.096,-0.436 15.171,-0.877 5.085,-0.443 10.329,-2.566 14.144,-6.006 3.031,-2.735 5.439,-6.5 9.331,-7.734 0.26,-0.082 0.544,-0.152 0.802,-0.066 0.411,0.137 0.602,0.599 0.732,1.012 1.019,3.222 1.36,6.965 -0.094,9.913"
     fill="#f09d2e"
     id="path380"
     style="fill-rule:nonzero;fill:#91e1ee;fill-opacity:1" />
  <path
     d="m 358.872,119.262 c -1.933,3.861 -6,5.228 -12.739,7.494 -0.05,0.016 -2.177,0.719 -5.494,1.442 l 0.007,-0.07 -1.9,0.456 c -4.507,0.859 -10.527,1.57 -16.479,0.949 -0.09,-0.01 -0.326,-0.035 -0.67,-0.078 -2.777,-0.453 -5.947,-1.261 -7.678,-1.703 -1.699,-0.434 -2.927,-0.747 -3.314,0.725 l -0.001,0.004 c -0.376,1.447 0.799,1.789 2.577,2.308 l 0.637,0.187 c 2.716,0.807 5.872,1.264 7.344,1.448 l 0.282,0.045 c 4.947,0.765 10.163,0.621 15.545,-0.429 a 9.208,9.208 0 0 1 -1.079,2.292 c -2.767,4.205 -8.247,4.791 -15.187,5.533 -1.264,0.135 -2.571,0.274 -3.914,0.441 -12.784,1.585 -21.454,7.973 -34.578,17.643 -11.127,8.198 -15.011,15.908 -19.51,24.834 -3.423,6.793 -7.302,14.492 -15.201,23.862 -11.507,13.65 -23.917,23.52 -36.927,29.355 -2.445,1.096 -6.994,3.136 -25.244,7.181 -26.248,5.818 -43.589,9.662 -65.911,9.923 l -1.186,0.013 c -23.906,0.283 -35.907,0.422 -48.395,-6.099 -12.943,-6.759 -30.168,-21.883 -38.73,-55.55 -8.101,-31.863 -1.928,-77.403 30.77,-102.093 6.737,-5.088 14.405,-9.03 22.795,-11.721 1.061,0.307 1.763,0.759 2.044,1.318 1.027,2.042 -3.096,6.67 -7.462,11.57 -2.766,3.105 -5.902,6.624 -8.768,10.536 -7.384,10.08 -10.487,19.444 -12.98,26.969 -11.061,33.387 -4.67,51.222 2.639,60.305 16.946,21.056 52.355,14.579 63.992,12.45 14.886,-2.724 37.161,-10.454 58.742,-31.813 8.956,-8.865 12.979,-15.601 19.644,-26.759 6.15,-10.298 14.573,-24.4 31.323,-47.469 8.298,-11.428 12.785,-16.963 20.928,-22.009 0.272,-0.169 27.463,-16.689 55.53,-4.81 7.14,3.022 24.201,11.772 28.434,27.715 0.199,0.752 0.336,1.387 0.422,1.829 l 0.224,1.151 1.171,0.06 c 1.882,0.097 3.737,0.419 5.516,0.959 3.383,1.026 11.462,4.188 13.412,11.341 0.372,1.364 1.055,4.898 -0.631,8.265 m 3.525,-9.054 c -1.65,-6.054 -7.276,-10.946 -15.436,-13.424 a 26.062,26.062 0 0 0 -5.079,-0.999 c -0.07,-0.297 -0.145,-0.597 -0.224,-0.898 -4.574,-17.225 -22.618,-26.514 -30.165,-29.708 -29.479,-12.477 -57.117,4.302 -58.279,5.023 -8.559,5.303 -13.428,11.3 -21.776,22.796 -16.829,23.179 -25.292,37.347 -31.47,47.693 -6.544,10.956 -10.493,17.568 -19.179,26.165 -21.037,20.821 -42.702,28.347 -57.172,30.995 -30.052,5.5 -50.614,1.67 -61.115,-11.38 -6.842,-8.502 -12.765,-25.375 -2.128,-57.481 2.553,-7.706 5.447,-16.44 12.552,-26.139 2.781,-3.796 5.866,-7.258 8.588,-10.313 5.715,-6.415 9.845,-11.05 7.903,-14.914 -0.734,-1.46 -2.22,-2.466 -4.416,-2.99 l -0.403,-0.097 -0.396,0.125 C 75.323,77.459 67.21,81.603 60.089,86.98 45.302,98.146 34.538,114.727 28.96,134.93 c -5.137,18.609 -5.4,38.95 -0.74,57.277 8.835,34.742 26.764,50.428 40.249,57.471 10.731,5.603 20.857,6.54 37.471,6.54 3.757,0 7.847,-0.048 12.348,-0.101 l 1.186,-0.013 c 22.632,-0.265 40.093,-4.135 66.524,-9.993 18.549,-4.113 23.28,-6.234 25.866,-7.393 13.382,-6.001 26.15,-16.142 37.949,-30.14 8.126,-9.639 12.09,-17.504 15.587,-24.444 4.503,-8.937 8.061,-15.997 18.613,-23.771 13.195,-9.723 21.16,-15.591 33.165,-17.08 1.326,-0.164 2.616,-0.302 3.864,-0.436 7.421,-0.793 13.83,-1.478 17.374,-6.867 0.894,-1.359 1.508,-2.908 1.829,-4.617 3.971,-0.811 6.611,-1.685 6.845,-1.764 7.213,-2.425 11.978,-4.027 14.465,-8.994 2.149,-4.293 1.305,-8.701 0.842,-10.397"
     fill="#231f20"
     id="path382"
     style="fill-rule:nonzero" />
  <path
     d="M277.787 157.531c-.053 0-3.369-.194-3.423-.199-10.112-.936-15.19-7.759-17.791-16.965-3.205-11.341 1.442-17.806 2.264-18.816a1.5 1.5 0 0 1 2.328 1.892c-.722.887-4.498 6.225-1.705 16.109 2.27 8.036 6.864 13.856 15.737 14.804a1.5 1.5 0 0 1-.155 2.992"
     fill="#231f20"
     fill-rule="nonzero"
     id="path386" />
  <path
     d="M266.179 165.846c-.229 0-.46-.052-.678-.162-3.486-1.77-12.056-7.034-16.315-17.694-3.079-7.707-2.615-14.772-1.684-19.342a1.503 1.503 0 0 1 1.77-1.17 1.502 1.502 0 0 1 1.17 1.77c-.85 4.168-1.275 10.61 1.529 17.628 3.881 9.712 11.704 14.517 14.888 16.132a1.501 1.501 0 0 1-.68 2.838m-7.28 10.745c-.291 0-.586-.084-.845-.261-4.936-3.367-13.798-10.929-17.681-23.739-1.872-6.173-2.323-12.878-1.3-19.389a1.5 1.5 0 1 1 2.963.465c-.951 6.067-.534 12.31 1.208 18.054 3.617 11.929 11.891 18.986 16.502 22.131a1.501 1.501 0 0 1-.847 2.739m-5.715 10.766c-.27 0-.542-.072-.788-.225-6.121-3.787-14.551-10.757-19.957-22.454-4.542-9.824-5.047-19.062-4.672-25.081a1.493 1.493 0 0 1 1.591-1.404 1.5 1.5 0 0 1 1.403 1.59c-.353 5.675.122 14.381 4.401 23.637 5.362 11.601 14.088 18.238 18.812 21.162.705.435.923 1.36.486 2.064a1.496 1.496 0 0 1-1.276.711m22.896-43.714c-5.201 0-9.432-4.231-9.432-9.432 0-5.201 4.231-9.432 9.432-9.432 5.201 0 9.432 4.231 9.432 9.432 0 5.201-4.231 9.432-9.432 9.432"
     fill="#231f20"
     fill-rule="nonzero"
     id="path388" />
  <path
     d="m 215.485,284.183 -3.336,-16.325 15.414,7.078 c -7.699,-11.954 -13.767,-24.683 -18.071,-37.916 -2.236,-6.876 -3.455,-13.402 -4.53,-19.16 -1.62,-8.671 -2.898,-15.518 -6.659,-16.52 a 4.605,4.605 0 0 0 -1.18,-0.149 c -3.846,0 -8.202,4.366 -9.731,5.898 -7.702,7.715 -8.015,18.455 -8.183,24.227 -0.656,22.462 12.589,43.214 22.147,55.18 l 1.952,-14.373 z"
     fill="#f98a31"
     id="path402"
     style="fill-rule:nonzero;fill:#f6d2a2" />
  <path
     d="m 215.486,284.18 -12.174,-12.057 -0.024,0.141 c -0.153,-0.353 -0.235,-0.682 -0.106,-0.8 0.294,-0.247 1.553,0.788 1.871,1.059 1.129,0.906 3.598,2.552 9.232,5.764 v 0.011 z m -12.927,-6.505 -1.2,8.822 c -9.563,-11.963 -22.808,-32.723 -22.15,-55.18 0.165,-5.634 0.471,-15.972 7.623,-23.643 a 80.648,80.648 0 0 0 -1.6,10.41 c -0.329,3.789 -1.2,16.856 3.752,32.736 3.482,11.128 8.328,18.856 13.575,26.855 m 9.587,-9.822 0.011,0.071 c -0.224,-0.353 -0.352,-0.671 -0.235,-0.847 0.377,-0.577 2.846,0.764 5.939,1.729 2.872,0.894 4.965,1.034 6.6,1.117 a 159.86,159.86 0 0 0 3.105,5.011 z"
     fill="#e56c2c"
     id="path404"
     style="fill-rule:nonzero;fill:#f6bd6f" />
  <path
     d="m 179.209,231.316 c 0.168,-5.771 0.481,-16.513 8.183,-24.228 1.528,-1.53 5.885,-5.897 9.73,-5.897 0.4,0 0.796,0.048 1.18,0.15 3.762,1.001 5.041,7.848 6.66,16.52 1.075,5.756 2.294,12.282 4.53,19.16 4.304,13.233 10.373,25.961 18.07,37.915 l -15.413,-7.079 3.336,16.326 -12.177,-12.061 -1.952,14.373 c -9.558,-11.966 -22.802,-32.717 -22.147,-55.179 m 58.46,52.145 -3.709,-5.319 c -9.18,-13.161 -16.282,-27.363 -21.111,-42.213 -2.166,-6.658 -3.363,-13.066 -4.418,-18.717 -1.921,-10.28 -3.308,-17.709 -9.22,-19.281 -6.059,-1.608 -12.273,4.617 -14.317,6.665 -8.691,8.705 -9.044,20.803 -9.213,26.618 -0.75,25.721 15.676,49.047 25.535,60.662 l 2.561,3.017 2.075,-15.282 15.421,15.271 -4.274,-20.913 z"
     fill="#231f20"
     id="path406"
     style="fill-rule:nonzero" />
  <path
     d="m 105.967,258.017 -1.524,-3.239 c -0.502,-1.086 -1.11,-2.169 -1.684,-3.203 -1.179,-2.072 -2.494,-4.031 -4.025,-5.773 -3.029,-3.491 -7.073,-6.049 -11.476,-7.63 a 1.764,1.764 0 0 1 -1.067,-2.256 1.76,1.76 0 0 1 2.25,-1.069 c 4.894,1.733 9.498,4.602 12.983,8.586 1.742,1.965 3.199,4.132 4.472,6.35 a 77.84,77.84 0 0 1 1.272,2.349 c 0.203,-0.112 0.389,-0.228 0.556,-0.341 5.743,-5.792 7.451,-14.4 3.981,-21.268 -2.88,-5.7 -8.974,-9.394 -15.908,-9.643 -14.795,-0.572 -27.789,9.134 -30.236,22.577 -1.86,10.226 2.891,21.092 12.104,27.682 l 1.813,1.296 -7.573,6.626 14.051,-3.279 -1.567,3.305 a 234.575,234.575 0 0 1 -2.825,5.751 262.522,262.522 0 0 1 -1.747,3.364 l 14.229,-9.38 0.797,14.136 c 4.353,-3.283 9.985,-8.984 12.122,-17.51 1.414,-5.641 0.992,-11.61 -0.943,-17.311 z"
     fill="#f98a31"
     id="path410"
     style="fill-rule:nonzero;fill:#f6d2a2" />
  <path
     d="m 106.962,275.449 c -2.13,8.528 -7.764,14.221 -12.116,17.503 L 94.74,291.07 c 2.799,-4.011 6.352,-10.504 7.399,-19.021 0.482,-3.963 1.188,-9.68 -1.353,-15.985 -1.929,-4.8 -6.14,-10.951 -8.857,-13.068 -0.4,-0.307 -1.965,-1.459 -3.235,-3.529 -0.212,-0.341 -0.377,-0.659 -0.529,-0.942 4.046,1.589 7.751,4.035 10.563,7.282 1.54,1.741 2.858,3.692 4.034,5.764 0.577,1.035 1.176,2.117 1.682,3.211 l 1.518,3.235 0.058,0.117 c 1.941,5.705 2.365,11.669 0.942,17.315 m 0.764,-23.655 c -0.165,0.106 -0.353,0.223 -0.553,0.341 a 77.877,77.877 0 0 0 -1.282,-2.353 c -1.27,-2.211 -2.729,-4.386 -4.47,-6.35 -3.482,-3.978 -8.081,-6.848 -12.986,-8.589 a 1.735,1.735 0 0 0 -1.47,0.142 c 0.011,-0.283 0.117,-0.565 0.305,-0.777 0.659,-0.728 2.247,-0.364 3.823,0.154 4.835,1.599 6.058,3.54 9.846,4.953 2.082,0.788 4.529,1.704 7.128,0.975 2.811,-0.776 4.176,-3.023 5.246,-4.598 0.812,5.656 -1.223,11.691 -5.587,16.102"
     fill="#e56c2c"
     id="path412"
     style="fill-rule:nonzero;fill:#f6bd6f" />
  <path
     d="M 93.964,278.872 79.813,288.2 c 0.141,-0.259 0.271,-0.519 0.412,-0.776 0,-0.012 0.012,-0.024 0.023,-0.037 a 28.588,28.588 0 0 1 5.223,-4.798 c 1.776,-1.27 4.058,-3.27 7.575,-3.611 0.365,-0.035 0.659,-0.072 0.918,-0.106 m -8.434,-3 -13.586,3.176 c 2.776,-2.059 7.034,-4.281 11.892,-3.541 0.518,0.071 1.081,0.19 1.694,0.365"
     fill="#e56c2c"
     id="path414"
     style="fill-rule:nonzero;fill:#f6bd6f" />
  <path
     d="m 106.966,275.448 c -2.138,8.527 -7.77,14.227 -12.123,17.51 l -0.797,-14.135 -14.229,9.379 a 231.008,231.008 0 0 0 4.572,-9.115 l 1.567,-3.306 -14.051,3.279 7.573,-6.626 -1.813,-1.295 c -9.213,-6.59 -13.964,-17.456 -12.103,-27.681 2.446,-13.444 15.441,-23.149 30.235,-22.579 6.933,0.249 13.028,3.944 15.908,9.644 3.47,6.868 1.762,15.477 -3.981,21.269 a 8.122,8.122 0 0 1 -0.556,0.341 75.489,75.489 0 0 0 -1.272,-2.349 c -1.272,-2.219 -2.73,-4.385 -4.472,-6.352 -3.485,-3.983 -8.089,-6.852 -12.984,-8.586 a 1.76,1.76 0 0 0 -2.25,1.071 1.768,1.768 0 0 0 1.068,2.256 c 4.403,1.58 8.447,4.138 11.475,7.629 1.532,1.741 2.847,3.701 4.026,5.773 0.574,1.034 1.182,2.118 1.685,3.203 l 1.523,3.24 0.055,0.119 c 1.935,5.701 2.357,11.671 0.944,17.311 m 7.889,-46.517 c -3.46,-6.846 -10.714,-11.283 -18.927,-11.578 -16.51,-0.603 -31.079,10.311 -33.838,25.473 -1.982,10.887 2.608,22.374 11.766,29.84 l -14.908,13.045 20.647,-4.821 a 225.302,225.302 0 0 1 -6.29,11.833 l -3.654,6.405 21.216,-13.984 0.799,14.153 2.537,-1.608 c 4.806,-3.046 13.301,-9.875 16.185,-21.383 1.73,-6.902 1.133,-14.101 -1.436,-20.831 7.812,-6.814 10.308,-17.822 5.903,-26.544"
     fill="#231f20"
     id="path416"
     style="fill-rule:nonzero" />
  <path
     fill-rule="evenodd"
     clip-rule="evenodd"
     fill="#ffffff"
     stroke="#000000"
     stroke-width="0.959384"
     stroke-linecap="round"
     d="m 325.41962,111.02927 c -4.77651,18.65109 -34.63765,13.87593 -33.51212,-4.83297 1.34859,-22.406824 38.07883,-18.083235 33.51212,4.83297"
     id="path625" />
  <g
     id="g633"
     transform="matrix(-0.34003825,0,0,0.34003825,353.67782,75.546269)">
    <ellipse
       fill-rule="evenodd"
       clip-rule="evenodd"
       cx="107.324"
       cy="95.403999"
       rx="14.829"
       ry="16.062"
       id="ellipse629" />
    <ellipse
       fill-rule="evenodd"
       clip-rule="evenodd"
       fill="#ffffff"
       cx="114.069"
       cy="99.028999"
       rx="3.4960001"
       ry="4.0819998"
       id="ellipse631" />
  </g>
  <path
     fill-rule="evenodd"
     clip-rule="evenodd"
     fill="#ffffff"
     stroke="#000000"
     stroke-width="1.29706"
     stroke-linecap="round"
     d="m 350.43033,126.40555 c -0.0199,3.54142 -0.80461,7.51735 -0.13489,11.28489 0.90405,1.70867 2.67757,1.88939 4.20638,2.57987 2.11421,-0.33162 3.89206,-1.71991 4.73991,-3.6975 0.5426,-4.30021 -0.20235,-8.46378 -0.3394,-12.76572 z"
     id="path627" />
  <path
     fill-rule="evenodd"
     clip-rule="evenodd"
     fill="#ffffff"
     stroke="#000000"
     stroke-width="1.29706"
     stroke-linecap="round"
     d="m 340.70767,130.01989 c -2.79733,6.77932 1.55994,20.33581 9.14993,10.33674 -0.5426,-4.3002 0.20234,-8.46378 0.3394,-12.76571 z"
     id="path641" />
</svg>
