<?xml version="1.0" encoding="UTF-8" standalone="no"?>
<svg
   width="512"
   height="512"
   clip-rule="evenodd"
   version="1.1"
   id="svg4966"
   sodipodi:docname="daFerris.svg"
   inkscape:export-filename="/media/fdschonborn/Elements/Imágenes/daFerris.png"
   inkscape:export-xdpi="96"
   inkscape:export-ydpi="96"
   inkscape:version="1.1 (c68e22c387, 2021-05-23)"
   xmlns:inkscape="http://www.inkscape.org/namespaces/inkscape"
   xmlns:sodipodi="http://sodipodi.sourceforge.net/DTD/sodipodi-0.dtd"
   xmlns="http://www.w3.org/2000/svg"
   xmlns:svg="http://www.w3.org/2000/svg">
  <defs
     id="defs4970" />
  <sodipodi:namedview
     id="namedview4968"
     pagecolor="#ffffff"
     bordercolor="#666666"
     borderopacity="1.0"
     inkscape:pageshadow="2"
     inkscape:pageopacity="0.0"
     inkscape:pagecheckerboard="0"
     showgrid="false"
     inkscape:zoom="0.7734375"
     inkscape:cx="-162.26263"
     inkscape:cy="258.58586"
     inkscape:window-width="1920"
     inkscape:window-height="1007"
     inkscape:window-x="0"
     inkscape:window-y="0"
     inkscape:window-maximized="1"
     inkscape:current-layer="svg4966" />
  <metadata
     id="metadata98">image/svg+xml</metadata>
  <g
     id="g57"
     transform="matrix(0.85785312,0,0,0.85785312,598.15373,371.86178)">
    <path
       fill="#a52b00"
       fill-rule="nonzero"
       id="path55"
       d="m 0,-7.203 -12.072,-25.006 c 0.063,-0.947 0.111,-1.898 0.111,-2.853 0,-28.346 -29.478,-54.471 -79.069,-75.389 v 17.393 c -4.836,-1.919 -9.871,-3.787 -15.117,-5.593 v -8.108 c -70.874,-25.56 -176.383,-41.778 -294.241,-41.778 -102.973,0 -196.529,12.38 -265.791,32.554 v 28.246 h -0.002 v -34.188 c -70.96,22.55 -114.954,53.877 -114.954,88.515 0,5.46 1.101,10.838 3.217,16.113 l -7.228,12.867 c 0,0 -5.792,7.512 4.406,23.362 8.994,13.977 54.048,68.685 77.827,97.335 10.214,14.687 -25.21441,28.47407 -24.60941,27.59907 0.955,-1.386 36.00441,-33.70107 15.72041,-65.16307 -9.466,-16.895 -20.768,-39.283 -27.554,-55.819 18.942,11.99 130.23,68.029 357.232,67.801 231.994,-0.232 335.115,-72.851 346.433,-82.737 -3.955,15.889 -17.468,48.033 -28.245,70.638 -17.706,32.331 -24.12,60.478 -23.296,61.87 0.524,0.878 6.565,-8.441 15.476,-23.543 C -51.025,87.37 -11.739,30.974 -3.889,16.608 5.007,0.323 0,-7.203 0,-7.203" />
  </g>
  <g
     id="g61"
     transform="matrix(0.85785312,0,0,0.85785312,658.28065,190.44558)">
    <path
       fill="#f74c00"
       fill-rule="nonzero"
       id="path59"
       d="m 0,204.135 -79.343,-58.446 c -0.745,-2.6 -1.49,-5.201 -2.26,-7.781 l 26.062,-37.754 c 2.66,-3.84 3.196,-8.832 1.469,-13.211 -1.731,-4.358 -5.515,-7.482 -9.99,-8.247 l -44.066,-7.479 c -1.709,-3.485 -3.498,-6.916 -5.294,-10.319 L -94.907,18.51 c 1.903,-4.317 1.505,-9.335 -1.022,-13.254 -2.517,-3.937 -6.786,-6.237 -11.338,-6.058 l -44.724,1.625 c -2.315,-3.016 -4.667,-6.003 -7.067,-8.937 l 10.278,-45.432 c 1.042,-4.612 -0.274,-9.443 -3.487,-12.794 -3.195,-3.339 -7.838,-4.722 -12.253,-3.639 l -43.562,10.709 c -2.82,-2.493 -5.688,-4.953 -8.588,-7.365 l 1.567,-46.641 c 0.168,-4.721 -2.033,-9.208 -5.812,-11.829 -3.777,-2.636 -8.57,-3.032 -12.701,-1.074 l -40.638,19.321 c -3.273,-1.878 -6.565,-3.737 -9.892,-5.537 l -7.181,-45.961 c -0.729,-4.656 -3.724,-8.612 -7.919,-10.418 -4.185,-1.817 -8.976,-1.228 -12.648,1.536 l -36.232,27.185 c -3.569,-1.185 -7.153,-2.32 -10.779,-3.407 l -15.617,-43.585 c -1.588,-4.443 -5.25,-7.706 -9.716,-8.624 -4.45,-0.909 -9.028,0.632 -12.114,4.08 l -30.499,34.119 c -3.685,-0.423 -7.377,-0.81 -11.076,-1.131 l -23.549,-39.676 c -2.384,-4.018 -6.597,-6.464 -11.139,-6.464 -4.529,0 -8.75,2.446 -11.118,6.464 l -23.555,39.676 c -3.701,0.321 -7.408,0.708 -11.088,1.131 l -30.499,-34.119 c -3.09,-3.448 -7.684,-4.989 -12.122,-4.08 -4.46,0.93 -8.128,4.181 -9.707,8.624 l -15.629,43.585 c -3.621,1.087 -7.205,2.23 -10.78,3.407 l -36.22,-27.185 c -3.683,-2.774 -8.478,-3.361 -12.668,-1.536 -4.181,1.806 -7.188,5.762 -7.913,10.418 l -7.186,45.961 c -3.322,1.8 -6.614,3.649 -9.895,5.537 l -40.634,-19.321 c -4.127,-1.966 -8.945,-1.562 -12.704,1.074 -3.773,2.621 -5.98,7.108 -5.81,11.829 l 1.562,46.641 c -2.894,2.412 -5.756,4.872 -8.591,7.365 l -43.554,-10.709 c -4.423,-1.074 -9.062,0.3 -12.265,3.639 -3.221,3.351 -4.526,8.182 -3.491,12.794 l 10.257,45.432 c -2.378,2.945 -4.733,5.921 -7.042,8.937 l -44.724,-1.625 c -4.513,-0.135 -8.821,2.121 -11.343,6.058 -2.527,3.919 -2.91,8.937 -1.029,13.254 l 18.528,42.388 c -1.799,3.403 -3.586,6.834 -5.309,10.319 l -44.063,7.479 c -4.479,0.754 -8.252,3.876 -9.994,8.247 -1.728,4.379 -1.167,9.371 1.474,13.211 l 26.066,37.754 c -0.201,0.667 -0.387,1.339 -0.587,2.008 l -73.696,78.285 c 0,0 -11.296,8.851 5.147,29.654 14.5,18.351 88.951,91.096 128.271,129.205 16.606,19.348 27.984,31.329 29.172,30.293 1.876,-1.645 -7.972,-36.847 -40.682,-78.149 -25.216,-37.056 -57.941,-94.049 -50.267,-100.618 0,0 8.729,-11.081 26.242,-19.057 0.641,0.512 -0.662,-0.507 0,0 0,0 369.595,170.491 712.429,2.884 39.164,-7.025 62.873,13.955 62.873,13.955 8.176,4.74 -12.996,63.344 -30.407,102.137 -23.679,44.05 -27.151,78.422 -25.144,79.614 1.268,0.757 9.883,-12.353 22.172,-33.217 C -67.814,332.649 -10.492,252.1 0,232.534 11.895,210.352 0,204.135 0,204.135" />
  </g>
  <rect
     fill="#ffffff"
     stroke="#ffffff"
     y="0.22374"
     x="-123.86309"
     height="511.55252"
     width="123.36309"
     id="rect1244" />
  <rect
     clip-rule="evenodd"
     fill="#ffffff"
     fill-rule="evenodd"
     stroke="#ffffff"
     stroke-linejoin="round"
     stroke-miterlimit="1.41421"
     y="0.22374"
     x="512.5"
     height="511.55252"
     width="123.36309"
     id="rect1244-3" />
  <ellipse
     stroke="null"
     id="svg_5"
     ry="48.941494"
     rx="34.95821"
     cy="211.26859"
     cx="163.11124"
     fill="#000000"
     style="stroke-width:13.9833" />
  <path
     stroke="null"
     id="svg_6"
     d="m 402.36527,235.41751 c -0.84338,-1.8976 -21.07043,-46.3437 -62.64904,-46.3437 -41.56456,0 -61.80566,44.4461 -62.64905,46.3437 -1.29318,2.90965 -0.4498,6.31129 2.03817,8.30728 2.45986,1.996 5.988,2.06628 8.57436,0.19679 0.16868,-0.12651 17.73909,-12.67881 52.03652,-12.67881 34.10064,0 51.64293,12.38363 52.03651,12.66475 1.23696,0.92772 2.72692,1.39158 4.18878,1.39158 1.5462,0 3.10645,-0.52009 4.38558,-1.53214 2.48797,-1.996 3.34541,-5.42574 2.03817,-8.34946 z M 86.688321,160.37079 c -2.923718,0 -5.889598,-0.91367 -8.419736,-2.81127 -6.212899,-4.65264 -7.463909,-13.46596 -2.811267,-19.67886 C 121.30905,76.735652 182.51029,76.032836 185.09665,76.032836 c 7.7591,0 14.05633,6.297232 14.05633,14.056324 0,7.74504 -6.25506,14.02822 -14.0001,14.05632 -2.19278,0.0281 -50.16702,1.20885 -87.219501,50.60277 -2.740987,3.68276 -6.971941,5.62254 -11.245058,5.62254 z m 323.323589,29.86969 c -4.28718,0 -8.49002,-1.93978 -11.25912,-5.62254 -36.434,-48.59272 -97.84607,-36.92596 -98.4505,-36.82756 -7.68881,1.51808 -15.01215,-3.41569 -16.54429,-11.02016 -1.51809,-7.61853 3.41568,-15.01215 11.02015,-16.54429 3.24701,-0.66064 79.51663,-15.06838 126.4507,47.51038 4.6667,6.2129 3.40163,15.02621 -2.81127,19.67885 -2.51608,1.92572 -5.46791,2.82533 -8.40568,2.82533 z m -80.7817,126.42258 c -2.64259,-1.5462 -6.07233,-1.2229 -8.39163,0.84337 -0.14056,0.11246 -14.23905,12.13061 -65.4603,12.13061 -51.17908,0 -65.30568,-12.0041 -65.30568,-12.0041 -2.23496,-2.24901 -5.67876,-2.6707 -8.43379,-1.15262 -2.74099,1.56025 -4.11851,4.76509 -3.34541,7.82937 0.14056,0.61848 16.08044,61.55265 77.08488,61.55265 61.00445,0 76.94433,-60.93417 77.09894,-61.55265 0.74499,-2.994 -0.61848,-6.05828 -3.24701,-7.64664 z"
     fill="#000000"
     style="stroke-width:0.898605" />
  <circle
     fill="#292f33"
     cx="95.586838"
     cy="418.29999"
     r="90.575073"
     id="circle5198"
     style="stroke-width:22.6438" />
  <circle
     fill="#ccd6dd"
     cx="95.586838"
     cy="418.29999"
     r="45.287537"
     id="circle5200"
     style="stroke-width:22.6438" />
  <circle
     fill="#292f33"
     cx="419.30521"
     cy="418.29999"
     r="90.575073"
     id="circle5202"
     style="stroke-width:22.6438" />
  <circle
     fill="#ccd6dd"
     cx="419.30521"
     cy="418.29999"
     r="45.287537"
     id="circle5204"
     style="stroke-width:22.6438" />
</svg>
