<?xml version="1.0" encoding="UTF-8" standalone="no"?>
<svg
   width="512"
   height="512"
   viewBox="0 0 512 512"
   version="1.1"
   xml:space="preserve"
   style="clip-rule:evenodd;fill-rule:evenodd;stroke-linejoin:round;stroke-miterlimit:1.41421"
   id="svg92"
   sodipodi:docname="ferrisNerd.svg"
   inkscape:version="1.2 (dc2aedaf03, 2022-05-15)"
   inkscape:export-filename="/media/fdschonborn/Elements/Imágenes/ferrisInsane.png"
   inkscape:export-xdpi="96"
   inkscape:export-ydpi="96"
   xmlns:inkscape="http://www.inkscape.org/namespaces/inkscape"
   xmlns:sodipodi="http://sodipodi.sourceforge.net/DTD/sodipodi-0.dtd"
   xmlns="http://www.w3.org/2000/svg"
   xmlns:svg="http://www.w3.org/2000/svg"
   xmlns:rdf="http://www.w3.org/1999/02/22-rdf-syntax-ns#"
   xmlns:cc="http://creativecommons.org/ns#"
   xmlns:dc="http://purl.org/dc/elements/1.1/"><metadata
   id="metadata98"><rdf:RDF><cc:Work
       rdf:about=""><dc:format>image/svg+xml</dc:format><dc:type
         rdf:resource="http://purl.org/dc/dcmitype/StillImage" /></cc:Work></rdf:RDF></metadata><defs
   id="defs96">
        
        
        
        
        
        
        
        
        
    </defs><sodipodi:namedview
   pagecolor="#ffffff"
   bordercolor="#666666"
   borderopacity="1"
   objecttolerance="10"
   gridtolerance="10"
   guidetolerance="10"
   inkscape:pageopacity="0"
   inkscape:pageshadow="2"
   inkscape:window-width="1920"
   inkscape:window-height="1051"
   id="namedview94"
   showgrid="false"
   inkscape:snap-bbox="true"
   inkscape:bbox-paths="true"
   inkscape:bbox-nodes="true"
   inkscape:snap-bbox-edge-midpoints="true"
   inkscape:snap-bbox-midpoints="true"
   inkscape:object-paths="true"
   inkscape:snap-intersection-paths="true"
   inkscape:snap-smooth-nodes="true"
   inkscape:snap-midpoints="true"
   inkscape:snap-object-midpoints="true"
   inkscape:snap-center="true"
   inkscape:snap-text-baseline="true"
   inkscape:zoom="0.60754956"
   inkscape:cx="603.24297"
   inkscape:cy="232.07983"
   inkscape:window-x="0"
   inkscape:window-y="0"
   inkscape:window-maximized="1"
   inkscape:current-layer="svg92"
   inkscape:document-rotation="0"
   fit-margin-top="0"
   fit-margin-left="0"
   fit-margin-right="0"
   fit-margin-bottom="0"
   inkscape:showpageshadow="2"
   inkscape:pagecheckerboard="0"
   inkscape:deskcolor="#d1d1d1" />
    
<g
   transform="matrix(0.85785312,0,0,0.85785312,598.15373,371.86178)"
   id="g57">
            <path
   d="m 0,-7.203 -12.072,-25.006 c 0.063,-0.947 0.111,-1.898 0.111,-2.853 0,-28.346 -29.478,-54.471 -79.069,-75.389 v 17.393 c -4.836,-1.919 -9.871,-3.787 -15.117,-5.593 v -8.108 c -70.874,-25.56 -176.383,-41.778 -294.241,-41.778 -102.973,0 -196.529,12.38 -265.791,32.554 v 28.246 h -0.002 v -34.188 c -70.96,22.55 -114.954,53.877 -114.954,88.515 0,5.46 1.101,10.838 3.217,16.113 l -7.228,12.867 c 0,0 -5.792,7.512 4.406,23.362 8.994,13.977 54.048,68.685 77.827,97.335 10.214,14.687 -25.21441,28.47407 -24.60941,27.59907 0.955,-1.386 36.00441,-33.70107 15.72041,-65.16307 -9.466,-16.895 -20.768,-39.283 -27.554,-55.819 18.942,11.99 130.23,68.029 357.232,67.801 231.994,-0.232 335.115,-72.851 346.433,-82.737 -3.955,15.889 -17.468,48.033 -28.245,70.638 -17.706,32.331 -24.12,60.478 -23.296,61.87 0.524,0.878 6.565,-8.441 15.476,-23.543 C -51.025,87.37 -11.739,30.974 -3.889,16.608 5.007,0.323 0,-7.203 0,-7.203"
   style="fill:#a52b00;fill-rule:nonzero"
   id="path55"
   sodipodi:nodetypes="ccsccccsccccscccccccccccccc" />
        </g><g
   transform="matrix(0.85785312,0,0,0.85785312,658.28065,190.44558)"
   id="g61">
            <path
   d="m 0,204.135 -79.343,-58.446 c -0.745,-2.6 -1.49,-5.201 -2.26,-7.781 l 26.062,-37.754 c 2.66,-3.84 3.196,-8.832 1.469,-13.211 -1.731,-4.358 -5.515,-7.482 -9.99,-8.247 l -44.066,-7.479 c -1.709,-3.485 -3.498,-6.916 -5.294,-10.319 L -94.907,18.51 c 1.903,-4.317 1.505,-9.335 -1.022,-13.254 -2.517,-3.937 -6.786,-6.237 -11.338,-6.058 l -44.724,1.625 c -2.315,-3.016 -4.667,-6.003 -7.067,-8.937 l 10.278,-45.432 c 1.042,-4.612 -0.274,-9.443 -3.487,-12.794 -3.195,-3.339 -7.838,-4.722 -12.253,-3.639 l -43.562,10.709 c -2.82,-2.493 -5.688,-4.953 -8.588,-7.365 l 1.567,-46.641 c 0.168,-4.721 -2.033,-9.208 -5.812,-11.829 -3.777,-2.636 -8.57,-3.032 -12.701,-1.074 l -40.638,19.321 c -3.273,-1.878 -6.565,-3.737 -9.892,-5.537 l -7.181,-45.961 c -0.729,-4.656 -3.724,-8.612 -7.919,-10.418 -4.185,-1.817 -8.976,-1.228 -12.648,1.536 l -36.232,27.185 c -3.569,-1.185 -7.153,-2.32 -10.779,-3.407 l -15.617,-43.585 c -1.588,-4.443 -5.25,-7.706 -9.716,-8.624 -4.45,-0.909 -9.028,0.632 -12.114,4.08 l -30.499,34.119 c -3.685,-0.423 -7.377,-0.81 -11.076,-1.131 l -23.549,-39.676 c -2.384,-4.018 -6.597,-6.464 -11.139,-6.464 -4.529,0 -8.75,2.446 -11.118,6.464 l -23.555,39.676 c -3.701,0.321 -7.408,0.708 -11.088,1.131 l -30.499,-34.119 c -3.09,-3.448 -7.684,-4.989 -12.122,-4.08 -4.46,0.93 -8.128,4.181 -9.707,8.624 l -15.629,43.585 c -3.621,1.087 -7.205,2.23 -10.78,3.407 l -36.22,-27.185 c -3.683,-2.774 -8.478,-3.361 -12.668,-1.536 -4.181,1.806 -7.188,5.762 -7.913,10.418 l -7.186,45.961 c -3.322,1.8 -6.614,3.649 -9.895,5.537 l -40.634,-19.321 c -4.127,-1.966 -8.945,-1.562 -12.704,1.074 -3.773,2.621 -5.98,7.108 -5.81,11.829 l 1.562,46.641 c -2.894,2.412 -5.756,4.872 -8.591,7.365 l -43.554,-10.709 c -4.423,-1.074 -9.062,0.3 -12.265,3.639 -3.221,3.351 -4.526,8.182 -3.491,12.794 l 10.257,45.432 c -2.378,2.945 -4.733,5.921 -7.042,8.937 l -44.724,-1.625 c -4.513,-0.135 -8.821,2.121 -11.343,6.058 -2.527,3.919 -2.91,8.937 -1.029,13.254 l 18.528,42.388 c -1.799,3.403 -3.586,6.834 -5.309,10.319 l -44.063,7.479 c -4.479,0.754 -8.252,3.876 -9.994,8.247 -1.728,4.379 -1.167,9.371 1.474,13.211 l 26.066,37.754 c -0.201,0.667 -0.387,1.339 -0.587,2.008 l -73.696,78.285 c 0,0 -11.296,8.851 5.147,29.654 14.5,18.351 88.951,91.096 128.271,129.205 16.606,19.348 27.984,31.329 29.172,30.293 1.876,-1.645 -7.972,-36.847 -40.682,-78.149 -25.216,-37.056 -57.941,-94.049 -50.267,-100.618 0,0 8.729,-11.081 26.242,-19.057 0.641,0.512 -0.662,-0.507 0,0 0,0 369.595,170.491 712.429,2.884 39.164,-7.025 62.873,13.955 62.873,13.955 8.176,4.74 -12.996,63.344 -30.407,102.137 -23.679,44.05 -27.151,78.422 -25.144,79.614 1.268,0.757 9.883,-12.353 22.172,-33.217 C -67.814,332.649 -10.492,252.1 0,232.534 11.895,210.352 0,204.135 0,204.135"
   style="fill:#f74c00;fill-rule:nonzero"
   id="path59" />
        </g><rect
   style="fill:#ffffff;stroke:#ffffff"
   id="rect1244"
   width="123.36309"
   height="511.55252"
   x="-123.86309"
   y="0.22373962" /><rect
   style="clip-rule:evenodd;fill:#ffffff;fill-rule:evenodd;stroke:#ffffff;stroke-linejoin:round;stroke-miterlimit:1.41421"
   id="rect1244-3"
   width="123.36309"
   height="511.55252"
   x="512.5"
   y="0.22373962" /><g
   id="g1446"
   transform="matrix(0.75144523,0,0,0.75144523,494.26991,54.546713)"><g
     transform="translate(-232.04039,215.54696)"
     id="g1209"
     style="clip-rule:evenodd;fill-rule:evenodd;stroke-linejoin:round;stroke-miterlimit:1.41421">
            <path
   d="m 0,-78.192 c 0,0 36.935,-40.443 73.871,0 0,0 29.022,53.927 0,80.887 0,0 -47.487,37.748 -73.871,0 0,0 -31.658,-29.659 0,-80.887"
   style="fill-rule:nonzero"
   id="path1207" />
        </g><g
     transform="translate(-189.27639,152.35496)"
     id="g1213"
     style="clip-rule:evenodd;fill-rule:evenodd;stroke-linejoin:round;stroke-miterlimit:1.41421">
            <path
   d="m 0,0.004 c 0,15.746 -9.282,28.514 -20.732,28.514 -11.448,0 -20.73,-12.768 -20.73,-28.514 0,-15.75 9.282,-28.518 20.73,-28.518 C -9.282,-28.514 0,-15.746 0,0.004"
   style="fill:#ffffff;fill-rule:nonzero"
   id="path1211" />
        </g></g><g
   id="g1452"
   transform="matrix(0.66817146,0,0,0.66817146,411.42351,69.903866)"><g
     transform="translate(-396.88939,209.92196)"
     id="g1217"
     style="clip-rule:evenodd;fill-rule:evenodd;stroke-linejoin:round;stroke-miterlimit:1.41421">
            <path
   d="m 0,-83.609 c 0,0 63.355,-28.052 80.648,34.562 0,0 18.114,72.98 -52.03,77.099 0,0 -89.444,-17.228 -28.618,-111.661"
   style="fill-rule:nonzero"
   id="path1215" />
        </g><g
     transform="translate(-365.06939,153.38996)"
     id="g1221"
     style="clip-rule:evenodd;fill-rule:evenodd;stroke-linejoin:round;stroke-miterlimit:1.41421">
            <path
   d="m 0,0.002 c 0,16.239 -9.572,29.409 -21.381,29.409 -11.804,0 -21.379,-13.17 -21.379,-29.409 0,-16.244 9.575,-29.411 21.379,-29.411 C -9.572,-29.409 0,-16.242 0,0.002"
   style="fill:#ffffff;fill-rule:nonzero"
   id="path1219" />
        </g></g><path
   fill="#664500"
   d="m 383.48891,320.12272 c -2.4514,-2.21734 -6.1149,-2.35506 -8.7454,-0.39939 -0.5371,0.39939 -54.0151,39.93976 -119.81927,39.93976 -65.63893,0 -119.29593,-39.54037 -119.81928,-39.93976 -2.63052,-1.95567 -6.29396,-1.79041 -8.74543,0.39939 -2.4377,2.20358 -2.9886,5.83947 -1.2946,8.64903 1.77663,2.96105 44.30559,72.20833 129.85931,72.20833 85.55377,0 128.09647,-69.24728 129.85927,-72.20833 1.694,-2.82333 1.1569,-6.44545 -1.2946,-8.64903 z"
   id="path244"
   style="fill:#000000;stroke-width:13.7723" /><path
   fill="#65471b"
   d="m 254.92424,360.91637 c -2.0383,0 -4.00775,-0.1515 -6.03228,-0.22036 v 62.19585 h 12.05079 v -62.20962 c -1.99699,0.0689 -3.9802,0.23413 -6.01851,0.23413 z"
   id="path246"
   style="fill:#000000;stroke-width:13.7723" /><path
   fill="#ffffff"
   d="m 310.01357,363.54926 c 0.22036,-0.0466 -19.96988,4.40626 -33.68712,5.6652 -5.04068,0.48958 -10.15021,0.88592 -15.3837,1.03745 v 52.65372 h 21.52616 c 15.14956,0 27.54466,-10.4911 27.54466,-23.31357 z m -110.17865,0 c -0.22036,-0.0466 19.96988,4.40626 33.68712,5.6652 5.04067,0.48958 10.15021,0.88592 15.38369,1.03745 v 52.65372 h -21.52615 c -15.14957,0 -27.54466,-10.4911 -27.54466,-23.31357 z"
   id="path248"
   style="stroke-width:12.6704" /><path
   fill="#292f33"
   d="m 486.40961,127.28254 c -2.3551,-2.28621 -17.4496,3.77362 -32.7231,-4.00775 -31.5111,-16.05854 -111.1427,-31.552413 -162.98175,5.1784 -5.55025,3.92511 -28.74286,4.58618 -35.22962,4.31074 -6.48677,0.28922 -29.67938,-0.37186 -35.22963,-4.31074 -51.82528,-36.730813 -131.456896,-21.23694 -162.967996,-5.1784 -15.27351,7.78137 -30.36799,1.72154 -32.72306,4.00775 -3.40176,3.29159 -3.40176,16.47171 0.0138,19.77707 3.38799,3.29158 20.34173,7.09275 23.71595,16.96751 3.40177,9.88853 3.42931,68.28322 30.47817,88.47346 25.327316,18.89564 84.410616,24.58361 121.857586,3.27781 32.66797,-18.57887 31.52487,-57.69229 37.51583,-80.99508 2.13471,-8.30471 8.15322,-12.4915 17.35314,-12.4915 9.19992,0 15.21842,4.18679 17.35314,12.4915 5.99096,23.28901 4.83408,62.41621 37.51583,80.99508 37.44701,21.29203 96.53031,15.60405 121.84381,-3.27781 27.0626,-20.17647 27.0902,-78.58493 30.4782,-88.47346 3.3742,-9.87476 20.3279,-13.6897 23.7159,-16.96751 3.4156,-3.30536 3.4293,-16.48548 0.014,-19.77707 z m -278.11848,50.26901 c -1.06047,15.21843 -3.77362,44.44331 -21.99442,54.81388 -11.16936,6.36282 -25.72671,10.23284 -40.95891,10.23284 h -0.0138 c -16.87111,0 -40.25653,-4.779 -49.401346,-11.5963 -11.43104,-8.52508 -15.7831,-43.61698 -17.422,-56.74201 -1.0467,-8.3598 -3.85626,-28.78417 5.34366,-31.92426 14.59867,-4.97181 34.967946,-8.85561 55.805486,-8.85561 9.54422,0 41.60621,0.59221 57.22404,10.2053 13.84119,8.49753 12.00947,25.49258 11.41726,33.86616 z m 224.18598,-3.4844 c -1.6389,13.1388 -5.9909,48.40974 -17.422,56.93482 -9.1448,6.8173 -32.5302,11.5963 -49.4013,11.5963 h -0.014 c -15.246,0 -29.7896,-3.87002 -40.9727,-10.23284 -18.2208,-10.35679 -20.93395,-39.40264 -21.99441,-54.62107 -0.57844,-8.37358 -2.42394,-25.49258 11.41721,-33.99011 15.6316,-9.61309 47.6799,-10.27416 57.2241,-10.27416 20.8375,0 41.193,3.81493 55.8055,8.78675 9.1999,3.14009 6.4041,23.4405 5.3574,31.80031 z"
   id="path252"
   style="stroke-width:13.7723" /></svg>
