<?xml version="1.0" encoding="UTF-8" standalone="no"?>
<svg
   width="1171.7501"
   height="635.93451"
   viewBox="0 0 1171.7501 635.93451"
   version="1.1"
   xml:space="preserve"
   style="clip-rule:evenodd;fill-rule:evenodd;stroke-linejoin:round;stroke-miterlimit:1.41421"
   id="svg462"
   sodipodi:docname="ferrisBonk.svg"
   inkscape:version="1.1 (c4e8f9ed74, 2021-05-24)"
   inkscape:export-filename="/run/media/fdschonborn/Elements/Imágenes/ferrisBonk.png"
   inkscape:export-xdpi="96"
   inkscape:export-ydpi="96"
   xmlns:inkscape="http://www.inkscape.org/namespaces/inkscape"
   xmlns:sodipodi="http://sodipodi.sourceforge.net/DTD/sodipodi-0.dtd"
   xmlns="http://www.w3.org/2000/svg"
   xmlns:svg="http://www.w3.org/2000/svg"
   xmlns:i="http://ns.adobe.com/AdobeIllustrator/10.0/"><defs
   id="defs466">
        
        
        
        
        
        
        
        
        
    <clipPath
   clipPathUnits="userSpaceOnUse"
   id="clipPath1482"><rect
     style="fill:#0000ff;fill-rule:evenodd;stroke-width:0.611656"
     id="rect1484"
     width="459.13962"
     height="392.61096"
     x="-341.397"
     y="-373.37793"
     transform="rotate(142.73005)" /></clipPath><clipPath
   clipPathUnits="userSpaceOnUse"
   id="clipPath1486"><rect
     style="fill:#0000ff;fill-rule:evenodd;stroke-width:1.56098"
     id="rect1488"
     width="1171.7501"
     height="1001.9653"
     x="-255.69749"
     y="-376.22549" /></clipPath><clipPath
   clipPathUnits="userSpaceOnUse"
   id="clipPath1490"><rect
     style="fill:#0000ff;fill-rule:evenodd;stroke-width:1.56098"
     id="rect1492"
     width="1171.7501"
     height="1001.9653"
     x="-660.01453"
     y="-624.10229"
     transform="scale(-1)" /></clipPath><clipPath
   clipPathUnits="userSpaceOnUse"
   id="clipPath1494"><rect
     style="fill:#0000ff;fill-rule:evenodd;stroke-width:1.56098"
     id="rect1496"
     width="1171.7501"
     height="1001.9653"
     x="-529.86951"
     y="-531.65149" /></clipPath><clipPath
   clipPathUnits="userSpaceOnUse"
   id="clipPath1498"><rect
     style="fill:#0000ff;fill-rule:evenodd;stroke-width:1.56098"
     id="rect1500"
     width="1171.7501"
     height="1001.9653"
     x="-498.0495"
     y="-588.18347" /></clipPath><clipPath
   clipPathUnits="userSpaceOnUse"
   id="clipPath1502"><rect
     style="fill:#0000ff;fill-rule:evenodd;stroke-width:1.56098"
     id="rect1504"
     width="1171.7501"
     height="1001.9653"
     x="-705.66248"
     y="-530.61652" /></clipPath><clipPath
   clipPathUnits="userSpaceOnUse"
   id="clipPath1506"><rect
     style="fill:#0000ff;fill-rule:evenodd;stroke-width:1.56098"
     id="rect1508"
     width="1171.7501"
     height="1001.9653"
     x="-662.8985"
     y="-593.80847" /></clipPath><clipPath
   clipPathUnits="userSpaceOnUse"
   id="clipPath1510"><rect
     style="fill:#0000ff;fill-rule:evenodd;stroke-width:1.56098"
     id="rect1512"
     width="1171.7501"
     height="1001.9653"
     x="-903.79749"
     y="-350.1265" /></clipPath><clipPath
   clipPathUnits="userSpaceOnUse"
   id="clipPath1514"><rect
     style="fill:#0000ff;fill-rule:evenodd;stroke-width:1.56098"
     id="rect1516"
     width="1171.7501"
     height="1001.9653"
     x="-1065.3915"
     y="-400.33249" /></clipPath><clipPath
   clipPathUnits="userSpaceOnUse"
   id="clipPath1518"><rect
     style="fill:#0000ff;fill-rule:evenodd;stroke-width:1.56098"
     id="rect1520"
     width="1171.7501"
     height="1001.9653"
     x="-995.30151"
     y="-611.80951" /></clipPath></defs><sodipodi:namedview
   id="namedview464"
   pagecolor="#ffffff"
   bordercolor="#666666"
   borderopacity="1.0"
   inkscape:pageshadow="2"
   inkscape:pageopacity="0.0"
   inkscape:pagecheckerboard="0"
   showgrid="false"
   fit-margin-top="0"
   fit-margin-left="0"
   fit-margin-right="0"
   fit-margin-bottom="0"
   inkscape:zoom="0.22627417"
   inkscape:cx="775.60775"
   inkscape:cy="128.1631"
   inkscape:window-width="1920"
   inkscape:window-height="1011"
   inkscape:window-x="0"
   inkscape:window-y="0"
   inkscape:window-maximized="1"
   inkscape:current-layer="svg462" />
    <g
   transform="translate(995.30149,439.26139)"
   id="g427"
   clip-path="url(#clipPath1518)">
            <path
   d="m 0,-7.203 -12.072,-25.006 c 0.063,-0.947 0.111,-1.898 0.111,-2.853 0,-28.346 -29.478,-54.471 -79.069,-75.389 v 17.393 c -4.836,-1.919 -9.871,-3.787 -15.117,-5.593 v -8.108 c -70.874,-25.56 -176.383,-41.778 -294.241,-41.778 -102.973,0 -196.529,12.38 -265.791,32.554 v 28.246 h -0.002 v -34.188 c -70.96,22.55 -114.954,53.877 -114.954,88.515 0,5.46 1.101,10.838 3.217,16.113 l -7.228,12.867 c 0,0 -5.792,7.512 4.406,23.362 8.994,13.977 54.048,68.685 77.827,97.335 10.214,14.687 17.141,23.734 17.746,22.859 0.955,-1.386 -6.351,-28.961 -26.635,-60.423 -9.466,-16.895 -20.768,-39.283 -27.554,-55.819 18.942,11.99 130.23,68.029 357.232,67.801 231.994,-0.232 335.115,-72.851 346.433,-82.737 -3.955,15.889 -17.468,48.033 -28.245,70.638 -17.706,32.331 -24.12,60.478 -23.296,61.87 0.524,0.878 6.565,-8.441 15.476,-23.543 C -51.025,87.37 -11.739,30.974 -3.889,16.608 5.007,0.323 0,-7.203 0,-7.203"
   style="fill:#a52b00;fill-rule:nonzero"
   id="path425" />
        </g><g
   transform="translate(1065.3915,227.78439)"
   id="g431"
   clip-path="url(#clipPath1514)">
            <path
   d="m 0,204.135 -79.343,-58.446 c -0.745,-2.6 -1.49,-5.201 -2.26,-7.781 l 26.062,-37.754 c 2.66,-3.84 3.196,-8.832 1.469,-13.211 -1.731,-4.358 -5.515,-7.482 -9.99,-8.247 l -44.066,-7.479 c -1.709,-3.485 -3.498,-6.916 -5.294,-10.319 L -94.907,18.51 c 1.903,-4.317 1.505,-9.335 -1.022,-13.254 -2.517,-3.937 -6.786,-6.237 -11.338,-6.058 l -44.724,1.625 c -2.315,-3.016 -4.667,-6.003 -7.067,-8.937 l 10.278,-45.432 c 1.042,-4.612 -0.274,-9.443 -3.487,-12.794 -3.195,-3.339 -7.838,-4.722 -12.253,-3.639 l -43.562,10.709 c -2.82,-2.493 -5.688,-4.953 -8.588,-7.365 l 1.567,-46.641 c 0.168,-4.721 -2.033,-9.208 -5.812,-11.829 -3.777,-2.636 -8.57,-3.032 -12.701,-1.074 l -17.49652,85.794389 c -3.273,-1.878 -6.565,-3.737 -9.892,-5.537 l -7.181,-45.961 c -0.729,-4.656 -3.724,-8.611999 -7.919,-10.417999 -4.185,-1.817 -8.976,-1.228 -12.648,1.536 l -36.232,27.184999 c -3.569,-1.185 -7.153,-2.32 -10.779,-3.407 l -15.617,-43.584999 c -1.588,-4.443 -5.25,-7.706 -9.716,-8.624 -4.45,-0.909 -9.028,0.632 -12.114,4.08 l -30.499,34.118999 c -3.685,-0.423 -7.377,-0.81 -11.076,-1.131 l -17.97649,1.522731 c -2.384,-4.018 -6.597,-6.464 -11.139,-6.464 -4.529,0 -8.75,2.446 -11.118,6.464 l -29.12751,-1.522731 c -3.701,0.321 -7.408,0.708 -11.088,1.131 l -24.92649,7.079731 c -3.09,-3.448 -7.684,-4.989 -12.122,-4.08 -4.46,0.93 -8.128,4.181 -9.707,8.624 l -21.20151,2.386269 c -3.621,1.087 -7.205,2.23 -10.78,3.407 l -36.22,-27.184999 c -3.683,-2.774 -8.478,-3.361 -12.668,-1.536 -4.181,1.806 -7.188,5.761999 -7.913,10.417999 l -7.186,45.961 c -3.322,1.8 -6.614,3.649 -9.895,5.537 l -40.634,-19.321 c -4.127,-1.966 -8.945,-1.562 -12.704,1.074 -3.773,2.621 -5.98,7.108 -5.81,11.829 l 1.562,46.64099992 C -708.33352,2.2503889 -734.337,-61.763 -737.172,-59.27 l -20.41252,55.7643889 c -4.423,-1.074 -9.062,0.3 -12.265,3.63900002 C -773.07052,3.4843889 -797.517,-58.158 -796.482,-53.546 l 10.257,45.432 c -2.378,2.945 -4.733,5.921 -7.042,8.937 l -44.724,-1.625 c -4.513,-0.135 -8.821,2.121 -11.343,6.058 -2.527,3.919 -2.91,8.937 -1.029,13.254 l 18.528,42.388 c -1.799,3.403 -3.586,6.834 -5.309,10.319 l -44.063,7.479 c -4.479,0.754 -8.252,3.876 -9.994,8.247 -1.728,4.379 -1.167,9.371 1.474,13.211 l 26.066,37.754 c -0.201,0.667 -0.387,1.339 -0.587,2.008 l -73.696,78.285 c 0,0 -11.296,8.851 5.147,29.654 14.5,18.351 88.951,91.096 128.271,129.205 16.606,19.348 27.984,31.329 29.172,30.293 1.876,-1.645 -7.972,-36.847 -40.682,-78.149 -25.216,-37.056 -57.941,-94.049 -50.267,-100.618 0,0 8.729,-11.081 26.242,-19.057 0.641,0.512 -0.662,-0.507 0,0 0,0 369.595,170.491 712.429,2.884 39.164,-7.025 62.873,13.955 62.873,13.955 8.176,4.74 -12.996,63.344 -30.407,102.137 -23.679,44.05 -27.151,78.422 -25.144,79.614 1.268,0.757 9.883,-12.353 22.172,-33.217 C -67.814,332.649 -10.492,252.1 0,232.534 11.895,210.352 0,204.135 0,204.135"
   style="fill:#f74c00;fill-rule:nonzero"
   id="path429"
   sodipodi:nodetypes="ccccccccccccccccccccccccccccccccccsccccccccccccccccccccccccccccccccccccccccccccccsc" />
        </g><g
   transform="translate(903.79749,177.57839)"
   id="g435"
   clip-path="url(#clipPath1510)">
            <path
   d="m 0,232.466 c 0,0 53.179,-2.466 123.032,-73.462 l 9.898,-21.979 c 0,0 -108.417,-107.848 60.118,-182.291 0,0 -14.755,24.112 -10.426,117.272 0,0 50.815,-17.649 65.714,-99.94 0,0 74.12,97.724 -80.502,189.377 0,0 -72.54,116.289 -174.805,105.15 z"
   style="fill:#f74c00;fill-rule:nonzero"
   id="path433" />
        </g><g
   transform="translate(662.89849,421.26039)"
   id="g439"
   clip-path="url(#clipPath1506)">
            <path
   d="m 0,-78.192 c 0,0 36.935,-40.443 73.871,0 0,0 29.022,53.927 0,80.887 0,0 -47.487,37.748 -73.871,0 0,0 -31.658,-29.659 0,-80.887"
   style="fill-rule:nonzero"
   id="path437" />
        </g><g
   transform="translate(738.76949,405.95139)"
   id="g443"
   clip-path="url(#clipPath1502)">
            <path
   d="m 0,0.004 c 0,15.746 -9.282,28.514 -20.732,28.514 -11.448,0 -20.73,-12.768 -20.73,-28.514 0,-15.75 9.282,-28.518 20.73,-28.518 C -9.282,-28.514 0,-15.746 0,0.004"
   style="fill:#ffffff;fill-rule:nonzero"
   id="path441" />
        </g><g
   transform="translate(498.04949,415.63539)"
   id="g447"
   clip-path="url(#clipPath1498)">
            <path
   d="m 0,-83.609 c 0,0 63.355,-28.052 80.648,34.562 0,0 18.114,72.98 -52.03,77.099 0,0 -89.444,-17.228 -28.618,-111.661"
   style="fill-rule:nonzero"
   id="path445" />
        </g><g
   transform="translate(529.86949,359.10339)"
   id="g451"
   clip-path="url(#clipPath1494)">
            <path
   d="m 0,0.002 c 0,16.239 -9.572,29.409 -21.381,29.409 -11.804,0 -21.379,-13.17 -21.379,-29.409 0,-16.244 9.575,-29.411 21.379,-29.411 C -9.572,-29.409 0,-16.242 0,0.002"
   style="fill:#ffffff;fill-rule:nonzero"
   id="path449" />
        </g><g
   transform="rotate(180,330.00725,225.77709)"
   id="g455"
   clip-path="url(#clipPath1490)">
            <path
   d="m 0,-40.271 80.796,-6.484 c 0,0 -2.738,13.006 -13.279,22.769 0,0 -27.79,30.47 -59.673,-2.533 0,0 -5.217,-5.629 -7.844,-13.752"
   style="fill-rule:nonzero"
   id="path453" />
        </g><g
   transform="translate(255.69749,203.67739)"
   id="g459"
   clip-path="url(#clipPath1486)">
            <path
   d="m 0,190.741 c -0.667,0 -1.321,0.049 -1.973,0.101 -26.234,-5.971 -99.973,-25.185 -119.464,-56.363 0,0 99.227,-112.872 -55.86,-185.019 l 18.057,124.878 c 0,0 -47.809,-31.949 -58.126,-101.346 0,0 -116.423,84.494 51.384,165.474 0,0 15.22,57.187 161.349,102.815 l 0.107,-0.435 c 1.471,0.272 2.977,0.435 4.526,0.435 13.808,0 25.003,-11.312 25.003,-25.271 0,-13.956 -11.195,-25.269 -25.003,-25.269"
   style="fill:#f74c00;fill-rule:nonzero"
   id="path457" />
        </g>
<g
   i:dimmedPercent="50"
   i:layer="yes"
   i:rgbTrio="#4F008000FFFF"
   id="Layer_1"
   transform="matrix(-2.030904,-1.5454514,1.5454514,-2.030904,871.26433,780.33333)"
   clip-path="url(#clipPath1482)"><g
     id="g40"><path
       clip-rule="evenodd"
       d="m 238.914,66.838 c 5.796,-7.344 11.952,-14.832 18.468,-22.608 6.517,-7.956 14.292,-17.388 20.412,-24.12 6.048,-6.804 10.152,-12.456 15.805,-15.84 5.544,-3.456 11.088,-4.788 17.46,-4.14 6.3,0.612 14.58,2.088 20.268,7.92 5.508,5.868 13.104,17.604 13.212,26.604 0.036,8.712 1.692,9.288 -12.815,25.884 -14.868,16.668 -44.713,44.64 -74.664,73.08 -30.133,28.332 -78.805,73.152 -103.824,95.724 -24.876,22.355 -30.456,24.695 -44.784,38.123 -14.4,13.32 -26.964,26.785 -40.896,41.51 -14.112,14.65 -27.972,29.592 -42.552,45.646 1.116,3.025 1.008,5.797 -0.18,8.461 -1.26,2.627 -4.14,6.119 -7.236,7.271 -3.24,0.973 -8.82,0.9 -11.736,-1.043 -2.988,-2.125 -5.436,-7.273 -5.832,-10.98 -0.396,-3.816 0.684,-8.568 3.24,-10.943 2.484,-2.342 6.192,-3.313 11.412,-2.916 8.388,-9.576 18.252,-20.846 30.564,-34.488 12.204,-13.717 26.28,-27.396 42.228,-46.873 15.948,-19.729 37.296,-50.328 52.092,-70.02 14.472,-19.692 21.6,-30.6 34.704,-47.304 13.248,-16.92 32.437,-39.708 43.524,-52.956 10.798,-13.212 17.746,-21.78 21.13,-25.992 z"
       fill="#c79687"
       fill-rule="evenodd"
       i:knockout="Off"
       stroke="#c79687"
       stroke-miterlimit="10"
       stroke-width="0.036"
       id="path4" /><path
       clip-rule="evenodd"
       d="m 300.223,25.798 c 1.619,3.276 9.468,7.596 10.907,6.984 1.188,-0.756 -1.584,-7.704 -3.168,-10.98 -1.691,-3.384 -5.04,-9.468 -6.3,-8.82 -1.368,0.684 -3.096,9.396 -1.439,12.816 z"
       fill="#e1cdcc"
       fill-rule="evenodd"
       i:knockout="Off"
       id="path6" /><path
       clip-rule="evenodd"
       d="m 323.694,14.746 c 2.412,3.096 9.036,10.224 10.836,10.692 1.692,0.324 1.979,-4.752 -0.396,-7.992 -2.663,-3.312 -12.42,-10.692 -14.292,-11.16 -1.764,-0.396 1.368,5.148 3.852,8.46 z"
       fill="#e1cdcc"
       fill-rule="evenodd"
       i:knockout="Off"
       id="path8" /><path
       clip-rule="evenodd"
       d="m 203.994,126.346 c 11.412,-12.42 21.96,-26.136 35.964,-42.264 13.896,-16.308 40.104,-43.776 47.088,-54.216 6.624,-10.404 -1.08,-11.232 -6.3,-7.488 -5.22,3.816 -9.828,11.628 -24.66,29.952 -14.976,18.324 -50.256,60.948 -64.332,78.84 -14.111,17.676 -21.816,27.252 -19.8,26.64 2.088,-0.936 20.592,-19.152 32.04,-31.464 z"
       fill="#e1cdcc"
       fill-rule="evenodd"
       i:knockout="Off"
       id="path10" /><path
       clip-rule="evenodd"
       d="m 22.482,356.278 c 0.72,0.828 0.54,1.836 -0.54,3.168 -1.188,1.225 -3.852,3.852 -5.904,4.537 -2.16,0.611 -4.86,0.576 -6.552,-0.648 -1.728,-1.439 -3.276,-4.859 -3.528,-7.201 -0.252,-2.447 0.936,-4.967 2.016,-6.588 1.008,-1.619 2.268,-2.627 3.924,-3.023 -2.988,-0.432 -5.256,0.037 -6.948,1.801 -1.872,1.691 -3.384,5.039 -3.276,8.244 0.18,3.096 1.908,8.063 4.356,10.332 2.448,2.195 6.66,2.916 9.72,2.555 2.736,-0.646 5.832,-3.348 7.344,-5.58 1.476,-2.23 1.44,-6.191 1.44,-7.451 -0.108,-1.299 -0.792,-1.299 -2.052,-0.146 z"
       fill="#a37157"
       fill-rule="evenodd"
       i:knockout="Off"
       id="path12" /><path
       clip-rule="evenodd"
       d="m 300.223,49.738 c -4.104,2.412 -14.04,13.608 -22.572,20.952 -8.532,7.272 -26.136,23.292 -27.973,22.356 -1.871,-1.224 9.108,-19.332 16.849,-28.908 7.668,-9.612 22.572,-23.652 28.872,-27.972 6.156,-4.284 7.452,2.664 8.315,2.232 0.757,-0.504 -0.54,-5.436 -3.348,-5.22 -2.808,0.108 -6.588,0 -13.572,6.192 -7.308,6.192 -20.952,19.512 -28.872,30.672 -7.92,11.088 -19.764,32.976 -17.892,35.244 2.052,1.944 18.828,-14.4 29.231,-22.644 10.152,-8.316 26.353,-20.844 31.645,-26.352 5.113,-5.652 3.132,-8.856 -0.683,-6.552 z"
       fill="#b57d61"
       fill-rule="evenodd"
       i:knockout="Off"
       id="path14" /><path
       clip-rule="evenodd"
       d="m 268.218,93.01 c -5.004,3.384 -9.936,6.984 -18.54,14.544 -8.783,7.596 -30.42,31.716 -33.264,30.42 -2.771,-1.62 9.864,-27.396 16.524,-39.276 6.66,-11.88 21.527,-28.404 22.932,-31.5 1.044,-3.096 -8.928,4.5 -15.624,12.78 -6.804,8.136 -19.08,25.056 -24.048,36.18 -5.004,11.052 -8.28,27.936 -5.112,29.952 3.313,1.764 13.068,-8.604 24.553,-18.468 11.411,-9.936 37.907,-34.668 43.523,-40.464 5.364,-5.868 -6.012,2.412 -10.944,5.832 z"
       fill="#b57d61"
       fill-rule="evenodd"
       i:knockout="Off"
       id="path16" /><path
       clip-rule="evenodd"
       d="m 204.21,161.338 c -0.071,1.332 -15.479,18.18 -20.376,20.412 -4.896,2.196 -11.844,2.34 -8.352,-7.632 3.636,-10.404 26.928,-49.608 29.483,-53.064 2.16,-3.132 -11.556,24.588 -15.3,33.588 -3.744,8.856 -8.964,17.892 -6.516,19.188 2.45,1.044 20.809,-13.86 21.061,-12.492 z"
       fill="#b57d61"
       fill-rule="evenodd"
       i:knockout="Off"
       id="path18" /><path
       clip-rule="evenodd"
       d="m 153.954,187.727 c -1.224,-0.072 -9.18,14.832 -8.46,18.324 0.648,3.383 5.004,5.795 12.384,2.23 7.344,-3.816 17.171,-11.627 31.284,-23.868 14.076,-12.312 46.296,-42.948 52.488,-48.852 5.796,-5.796 -9.145,7.236 -16.92,14.112 -7.956,6.84 -19.872,18.108 -29.628,26.46 -9.828,8.316 -21.061,17.136 -28.26,22.429 -7.128,5.076 -12.096,9.395 -14.22,7.703 -2.16,-1.979 2.448,-18.431 1.332,-18.538 z"
       fill="#b57d61"
       fill-rule="evenodd"
       i:knockout="Off"
       id="path20" /><path
       clip-rule="evenodd"
       d="m 146.178,221.747 c -3.816,2.988 -6.984,4.715 -10.044,5.58 -3.132,0.791 -8.208,2.412 -7.992,-0.973 0.252,-3.6 3.528,-10.08 9.684,-20.016 -5.652,8.893 -7.776,14.473 -6.372,17.137 1.368,2.52 6.228,1.943 14.724,-1.728 z"
       fill="#b57d61"
       fill-rule="evenodd"
       i:knockout="Off"
       id="path22" /><path
       clip-rule="evenodd"
       d="m 139.338,230.567 c 1.62,-0.541 -8.352,7.055 -13.248,10.152 -4.968,3.023 -14.94,9.252 -16.164,7.848 -1.332,-1.656 6.444,-13.357 8.748,-17.064 2.268,-3.709 5.112,-7.02 4.788,-4.932 -0.504,2.051 -9.972,16.631 -7.308,17.352 2.736,0.503 21.384,-12.745 23.184,-13.356 z"
       fill="#b57d61"
       fill-rule="evenodd"
       i:knockout="Off"
       id="path24" /><path
       clip-rule="evenodd"
       d="m 111.474,254.579 c -3.924,2.34 -11.16,6.695 -12.564,6.264 -1.404,-0.648 4.932,-9.469 4.284,-9.539 -0.756,-0.072 -6.696,5.867 -8.496,8.928 -1.908,2.951 -4.248,8.496 -2.448,8.711 1.764,0.072 8.136,-4.139 13.14,-7.775 4.968,-3.816 15.444,-13.176 16.56,-14.328 0.9,-1.047 -6.624,5.289 -10.476,7.739 z"
       fill="#b57d61"
       fill-rule="evenodd"
       i:knockout="Off"
       id="path26" /><path
       clip-rule="evenodd"
       d="m 18.774,355.198 c 3.456,-3.203 9.864,-9.756 20.592,-20.771 10.728,-11.268 30.924,-33.301 42.948,-45.396 11.88,-12.023 25.344,-23.76 27.612,-26.316 1.98,-2.592 -7.02,3.602 -15.048,10.945 -8.1,7.379 -20.484,18.971 -33.12,32.436 -12.852,13.283 -35.604,38.736 -42.84,47.053 -7.2,8.17 -3.636,5.109 -0.144,2.049 z"
       fill="#b57d61"
       fill-rule="evenodd"
       i:knockout="Off"
       id="path28" /><path
       clip-rule="evenodd"
       d="m 21.006,348.213 c -0.252,0.686 5.112,-6.336 10.692,-12.168 5.364,-5.902 21.528,-21.635 21.852,-22.463 0.216,-0.684 -14.616,11.627 -20.052,17.641 -5.544,5.867 -12.168,16.02 -12.492,16.99 z"
       fill="#b57d61"
       fill-rule="evenodd"
       i:knockout="Off"
       id="path30" /><path
       clip-rule="evenodd"
       d="m 56.862,306.67 c -0.036,0.611 6.264,-7.813 10.98,-12.24 4.572,-4.607 16.812,-13.68 16.848,-14.436 -0.036,-0.613 -12.276,5.76 -16.848,10.367 -4.716,4.429 -11.016,15.554 -10.98,16.309 z"
       fill="#b57d61"
       fill-rule="evenodd"
       i:knockout="Off"
       id="path32" /><path
       clip-rule="evenodd"
       d="m 146.394,235.499 c -3.096,1.043 -5.868,1.404 -8.856,0.936 -2.988,-0.539 -6.588,-2.053 -8.712,-3.852 -2.124,-1.98 -3.492,-4.285 -4.248,-7.309 -0.828,-3.061 -1.296,-6.443 -1.008,-10.547 l -14.688,20.303 c 1.044,3.961 2.808,6.984 5.436,9.361 2.52,2.34 7.092,3.924 10.26,4.463 3.168,0.396 5.94,-0.18 8.604,-1.871 4.392,-3.816 8.784,-7.633 13.212,-11.484 z"
       fill="#212121"
       fill-rule="evenodd"
       i:knockout="Off"
       id="path34" /><path
       clip-rule="evenodd"
       d="m 257.094,127.21 c -2.628,3.708 31.645,-30.6 43.524,-43.2 11.736,-12.672 22.572,-22.104 26.532,-31.752 3.672,-9.684 -3.853,-24.48 -3.96,-25.92 -0.108,-1.296 3.996,11.448 3.132,17.388 -1.008,5.652 2.376,2.844 -9.145,16.848 -11.771,14.04 -57.202,62.496 -60.083,66.636 z"
       fill="#b57d61"
       fill-rule="evenodd"
       i:knockout="Off"
       id="path36" /><path
       clip-rule="evenodd"
       d="m 307.71,65.687 c 0.324,-0.18 12.313,-15.229 14.185,-20.844 1.764,-5.616 -3.313,-12.672 -3.564,-12.564 -0.359,0.072 3.313,7.056 1.584,12.744 -1.944,5.615 -12.493,20.555 -12.205,20.664 z"
       fill="#b57d61"
       fill-rule="evenodd"
       i:knockout="Off"
       id="path38" /></g></g><path
   sodipodi:type="star"
   style="fill:#ffff00;fill-rule:evenodd"
   id="path5690"
   inkscape:flatsided="false"
   sodipodi:sides="5"
   sodipodi:cx="185.94781"
   sodipodi:cy="44.131203"
   sodipodi:r1="45.141674"
   sodipodi:r2="22.570839"
   sodipodi:arg1="0.73602719"
   sodipodi:arg2="1.3643457"
   inkscape:rounded="0"
   inkscape:randomized="0"
   d="m 219.40418,74.437012 -28.82963,-8.21427 -23.11069,19.092369 -1.09661,-29.956963 -25.29951,-16.079699 28.15189,-10.300152 7.47472,-29.03016949 18.49544,23.59111849 29.91915,-1.861932 -16.72108,24.880265 z"
   inkscape:transform-center-x="2.8594778"
   inkscape:transform-center-y="-1.4995833" /><path
   sodipodi:type="star"
   style="fill:#ffff00;fill-rule:evenodd"
   id="path5692"
   inkscape:flatsided="false"
   sodipodi:sides="5"
   sodipodi:cx="279.40417"
   sodipodi:cy="74.437012"
   sodipodi:r1="62.824852"
   sodipodi:r2="39.7785"
   sodipodi:arg1="-0.14407322"
   sodipodi:arg2="0.48424531"
   inkscape:rounded="0"
   inkscape:randomized="0"
   d="m 341.57812,65.416914 -26.96892,27.538603 -7.4136,37.825073 -34.52462,-17.13907 -38.26471,4.63783 5.63153,-38.131128 -16.23529,-34.958728 38.0051,-6.427264 28.23075,-26.243521 17.85691,34.158864 z"
   inkscape:transform-center-x="-3.2861435"
   inkscape:transform-center-y="-2.7873636" /><path
   sodipodi:type="star"
   style="fill:#ffff00;fill-rule:evenodd"
   id="path5694"
   inkscape:flatsided="false"
   sodipodi:sides="5"
   sodipodi:cx="171.67052"
   sodipodi:cy="139.48224"
   sodipodi:r1="57.005257"
   sodipodi:r2="36.093735"
   sodipodi:arg1="0.19354434"
   sodipodi:arg2="0.82186288"
   inkscape:rounded="0"
   inkscape:randomized="0"
   d="m 227.61141,150.44653 -31.36619,15.47132 -17.71568,30.15549 -24.40678,-25.05011 -34.15403,-7.53006 16.28197,-30.95314 -3.39267,-34.809322 34.46959,5.920022 32.05724,-13.98329 5.02142,34.61192 z"
   inkscape:transform-center-x="-2.1195555"
   inkscape:transform-center-y="3.3881527" /></svg>
