<?xml version="1.0" encoding="UTF-8" standalone="no"?>
<svg
   xmlns:dc="http://purl.org/dc/elements/1.1/"
   xmlns:cc="http://creativecommons.org/ns#"
   xmlns:rdf="http://www.w3.org/1999/02/22-rdf-syntax-ns#"
   xmlns:svg="http://www.w3.org/2000/svg"
   xmlns="http://www.w3.org/2000/svg"
   xmlns:sodipodi="http://sodipodi.sourceforge.net/DTD/sodipodi-0.dtd"
   xmlns:inkscape="http://www.inkscape.org/namespaces/inkscape"
   width="100%"
   height="100%"
   viewBox="0 0 1200 800"
   version="1.1"
   xml:space="preserve"
   style="fill-rule:evenodd;clip-rule:evenodd;stroke-linejoin:round;stroke-miterlimit:1.41421;"
   id="svg280"
   sodipodi:docname="ferrisSmug.svg"
   inkscape:version="0.92.5 (2060ec1f9f, 2020-04-08)"
   inkscape:export-filename="/media/fdschonborn/Elements/Imágenes/ferrisSmug.png"
   inkscape:export-xdpi="96"
   inkscape:export-ydpi="96"><metadata
   id="metadata286"><rdf:RDF><cc:Work
       rdf:about=""><dc:format>image/svg+xml</dc:format><dc:type
         rdf:resource="http://purl.org/dc/dcmitype/StillImage" /><dc:title></dc:title></cc:Work></rdf:RDF></metadata><defs
   id="defs284">
        
        
        
        
        
        
        
        
        
        
        
        
    </defs><sodipodi:namedview
   pagecolor="#ffffff"
   bordercolor="#666666"
   borderopacity="1"
   objecttolerance="10"
   gridtolerance="10"
   guidetolerance="10"
   inkscape:pageopacity="0"
   inkscape:pageshadow="2"
   inkscape:window-width="1920"
   inkscape:window-height="1005"
   id="namedview282"
   showgrid="false"
   inkscape:zoom="1.18"
   inkscape:cx="473.6562"
   inkscape:cy="401.54621"
   inkscape:window-x="0"
   inkscape:window-y="0"
   inkscape:window-maximized="1"
   inkscape:current-layer="svg280" />
    <g
   id="g233"
   transform="translate(597.344,637.02)">
            <path
   inkscape:connector-curvature="0"
   id="path231"
   style="fill:#a52b00;fill-rule:nonzero"
   d="m 0,-279.559 c -121.238,0 -231.39,14.576 -312.939,38.329 V -38.329 C -231.39,-14.575 -121.238,0 0,0 138.76,0 262.987,-19.092 346.431,-49.186 V -230.37 C 262.987,-260.465 138.76,-279.559 0,-279.559" />
        </g><g
   id="g237"
   transform="translate(1068.75,575.642)">
            <path
   inkscape:connector-curvature="0"
   id="path235"
   style="fill:#a52b00;fill-rule:nonzero"
   d="m 0,-53.32 -14.211,-29.441 c 0.073,-1.118 0.131,-2.237 0.131,-3.36 0,-33.375 -34.706,-64.135 -93.097,-88.762 V 2.643 c 27.245,-11.492 49.348,-24.317 65.156,-38.125 -4.652,18.707 -20.564,56.553 -33.25,83.168 -20.85,38.066 -28.4,71.203 -27.432,72.844 0.617,1.033 7.73,-9.94 18.219,-27.721 C -60.074,58.028 -13.82,-8.373 -4.575,-25.287 5.897,-44.461 0,-53.32 0,-53.32" />
        </g><g
   id="g241"
   transform="translate(149.064,591.421)">
            <path
   inkscape:connector-curvature="0"
   id="path239"
   style="fill:#a52b00;fill-rule:nonzero"
   d="m 0,-99.954 c 0,6.428 1.293,12.76 3.788,18.969 l -8.511,15.15 c 0,0 -6.818,8.846 5.188,27.508 10.59,16.455 63.635,80.867 91.632,114.598 12.026,17.293 20.179,27.945 20.893,26.916 1.124,-1.633 -7.476,-34.1 -31.359,-71.141 -11.144,-19.895 -24.454,-46.252 -32.442,-65.721 22.303,14.116 51.483,26.92 86.152,37.94 V -204.17 C 51.797,-177.622 0,-140.737 0,-99.954" />
        </g><g
   id="g245"
   transform="translate(1151.27,281.813)">
            <path
   inkscape:connector-curvature="0"
   id="path243"
   style="fill:#f74c00;fill-rule:nonzero"
   d="m 0,240.343 -93.415,-68.811 c -0.88,-3.064 -1.756,-6.127 -2.662,-9.162 l 30.683,-44.451 c 3.13,-4.522 3.765,-10.398 1.731,-15.555 -2.037,-5.13 -6.491,-8.81 -11.763,-9.71 l -51.884,-8.805 c -2.008,-4.102 -4.116,-8.142 -6.23,-12.15 l 21.797,-49.903 c 2.243,-5.087 1.769,-10.995 -1.203,-15.608 -2.961,-4.636 -7.99,-7.344 -13.349,-7.133 l -52.656,1.913 c -2.727,-3.55 -5.496,-7.068 -8.321,-10.521 l 12.1,-53.49 c 1.225,-5.433 -0.322,-11.118 -4.103,-15.064 -3.762,-3.932 -9.229,-5.559 -14.426,-4.283 l -51.289,12.608 c -3.321,-2.935 -6.698,-5.833 -10.114,-8.673 l 1.848,-54.914 c 0.198,-5.559 -2.393,-10.842 -6.844,-13.925 -4.446,-3.104 -10.093,-3.573 -14.956,-1.266 l -47.847,22.747 c -3.854,-2.21 -7.728,-4.4 -11.644,-6.517 l -8.455,-54.115 c -0.857,-5.483 -4.385,-10.139 -9.326,-12.266 -4.923,-2.137 -10.568,-1.447 -14.891,1.808 l -42.659,32.007 c -4.2,-1.395 -8.419,-2.732 -12.692,-4.011 l -18.386,-51.316 c -1.87,-5.229 -6.181,-9.071 -11.438,-10.151 -5.239,-1.072 -10.63,0.742 -14.263,4.802 l -35.906,40.171 c -4.343,-0.5 -8.686,-0.956 -13.043,-1.331 l -27.724,-46.713 c -2.81,-4.732 -7.77,-7.612 -13.116,-7.612 -5.334,0 -10.304,2.88 -13.09,7.612 l -27.733,46.713 c -4.358,0.375 -8.722,0.831 -13.056,1.331 l -35.91,-40.171 c -3.636,-4.06 -9.047,-5.874 -14.268,-4.802 -5.255,1.092 -9.573,4.922 -11.433,10.151 l -18.402,51.316 c -4.26,1.279 -8.481,2.627 -12.691,4.011 l -42.644,-32.007 c -4.336,-3.266 -9.98,-3.955 -14.916,-1.808 -4.919,2.127 -8.461,6.783 -9.313,12.266 l -8.461,54.115 c -3.914,2.117 -7.789,4.294 -11.653,6.517 l -47.842,-22.747 c -4.858,-2.316 -10.529,-1.838 -14.954,1.266 -4.445,3.083 -7.042,8.366 -6.84,13.925 l 1.835,54.914 c -3.405,2.84 -6.774,5.738 -10.112,8.673 l -51.279,-12.608 c -5.21,-1.265 -10.67,0.351 -14.441,4.283 -3.795,3.946 -5.331,9.631 -4.113,15.064 l 12.079,53.49 c -2.802,3.467 -5.575,6.971 -8.293,10.521 l -52.655,-1.913 c -5.314,-0.157 -10.386,2.497 -13.356,7.133 -2.973,4.613 -3.423,10.521 -1.213,15.608 l 21.816,49.903 c -2.119,4.008 -4.224,8.048 -6.249,12.15 l -51.887,8.805 c -5.27,0.888 -9.71,4.566 -11.76,9.71 -2.04,5.157 -1.37,11.033 1.73,15.555 l 30.7,44.451 c -0.24,0.784 -0.46,1.577 -0.7,2.364 l -86.77,92.17 c 0,0 -13.29,10.423 6.07,34.916 17.07,21.605 104.724,107.252 151.018,152.123 19.554,22.779 32.948,36.886 34.349,35.666 2.208,-1.94 -9.387,-43.385 -47.902,-92.012 -29.685,-43.629 -68.215,-110.733 -59.175,-118.467 0,0 10.27,-13.045 30.893,-22.435 0.753,0.603 -0.781,-0.598 0,0 0,0 435.152,200.732 838.797,3.396 46.108,-8.273 74.023,16.43 74.023,16.43 9.628,5.58 -15.301,74.578 -35.798,120.254 -27.881,51.863 -31.97,92.332 -29.604,93.736 1.491,0.889 11.634,-14.545 26.104,-39.109 C -79.843,391.654 -12.354,296.816 0,273.782 14.006,247.663 0,240.343 0,240.343" />
        </g><g
   id="g249"
   transform="translate(450.328,483.629)">
            <path
   inkscape:connector-curvature="0"
   id="path247"
   style="fill-rule:nonzero"
   d="m 0,167.33 c -1.664,-1.42 -2.536,-2.262 -2.536,-2.262 L 140.006,153.391 C 23.733,0 -69.418,122.193 -79.333,135.855 v 31.475 z" />
        </g><g
   id="g253"
   transform="translate(747.12,477.333)">
            <path
   inkscape:connector-curvature="0"
   id="path251"
   style="fill-rule:nonzero"
   d="m 0,171.974 c 1.663,-1.42 2.536,-2.264 2.536,-2.264 L -134.448,159.687 C -18.12,0 69.421,126.835 79.335,140.497 v 31.477 z" />
        </g><g
   id="g257"
   transform="translate(966.094,811.034)">
            <path
   inkscape:connector-curvature="0"
   id="path255"
   style="fill:#f74c00;fill-rule:nonzero"
   d="m 0,-314.014 c 0,0 -15.576,62.041 -112.453,127.238 l -27.166,6.367 c 0,0 -87.881,-160.259 -212.383,20.334 0,0 38.802,-22.591 142.822,4.92 0,0 -47.85,73.239 -144.242,70.989 0,0 92.373,110.82 232.94,-49.252 0,0 148.595,-57.463 160.646,-180.596 z" />
        </g><g
   id="g277"
   transform="translate(441.397,687.635)">
            <path
   inkscape:connector-curvature="0"
   id="path275"
   style="fill:#f74c00;fill-rule:nonzero"
   d="M 0,-25.102 C 91.833,-36.676 144.904,-37.754 144.904,-37.754 22.037,-199.838 -77.661,-53.098 -77.661,-53.098 c -24.982,-8.932 -50.453,-43.613 -69.477,-75.59 l -76.237,-22.58 C -135.502,-2.127 -70.08,0.146 -70.08,0.146 66.134,174.736 130.663,34.441 130.663,34.441 54.195,25.759 0,-25.102 0,-25.102" />
        </g>
<path
   style="fill:#000000;stroke-width:21.68315315"
   inkscape:connector-curvature="0"
   d="m 737.18268,461.71311 c -3.31756,-2.86215 -7.97942,-3.44763 -11.94742,-1.49613 l -86.73265,43.36629 c -40.56918,20.27379 -145.86255,20.53395 -146.92503,20.53395 -5.98454,0 -10.84161,4.85707 -10.84161,10.84159 0,4.01138 2.19002,7.52406 5.42083,9.3888 v 0.0206 h 0.0206 v 0.0206 c 1.53951,0.86732 3.31753,1.36602 5.20395,1.4094 h 151.95557 c 57.63378,0 88.66239,-47.37768 97.03207,-72.46508 1.38772,-4.16317 0.13025,-8.73836 -3.18737,-11.62222 z M 881.89601,296.44415 c -6.61333,0 -13.09661,-2.99227 -17.36822,-8.67326 -57.26518,-76.3464 -131.42153,-78.0377 -134.5656,-78.05937 -11.92578,-0.13007 -21.55305,-9.88753 -21.488,-21.79158 0.0648,-11.94742 9.69235,-21.57473 21.61805,-21.57473 3.98972,0 98.37646,1.08415 169.12862,95.40585 7.19878,9.584 5.24731,23.17932 -4.33661,30.35643 -3.90299,2.92724 -8.45645,4.33666 -12.98824,4.33666 z m -563.80538,0 c -4.51004,0 -9.0852,-1.40942 -12.98815,-4.33666 -9.58399,-7.17711 -11.51378,-20.77243 -4.3366,-30.35643 70.73042,-94.3217 165.13886,-95.40585 169.12856,-95.40585 11.9691,0 21.68314,9.71406 21.68314,21.68315 0,11.94742 -9.64902,21.63979 -21.59641,21.68316 -3.3826,0.0432 -77.38721,1.86475 -134.54394,78.05937 -4.22829,5.68099 -10.75493,8.67326 -17.3466,8.67326 z m 236.30301,30.26966 c 0.4988,-1.12749 1.27933,-2.08161 1.58293,-3.33921 2.90552,-11.62215 -4.16318,-23.39612 -15.76368,-26.30164 -3.90296,-0.97577 -96.85864,-23.41781 -169.06355,24.67539 -9.95262,6.63507 -12.64126,20.10032 -6.00616,30.07455 4.16309,6.28812 11.03668,9.67067 18.04034,9.67067 4.11975,0 8.3046,-1.19259 12.01241,-3.64275 23.67802,-15.80701 51.21565,-21.57472 75.19721,-23.00585 -0.19509,1.64793 -0.49881,3.2742 -0.49881,4.96548 0,23.93821 19.42811,43.3663 43.36633,43.3663 23.93816,0 43.3663,-19.42809 43.3663,-43.3663 0,-4.59687 -0.9107,-8.93346 -2.23342,-13.09664 z m 260.17617,-0.0206 c 0.49881,-1.12757 1.27931,-2.05996 1.58287,-3.29588 2.92722,-11.62215 -4.1415,-23.39612 -15.76365,-26.30164 -3.90294,-0.97577 -96.83695,-23.4178 -169.06353,24.67543 -9.97427,6.63504 -12.66298,20.10026 -6.00625,30.0745 4.16318,6.26646 11.05841,9.649 18.06207,9.649 4.11983,0 8.30466,-1.19257 12.01247,-3.64274 23.678,-15.80702 51.19394,-21.55306 75.21891,-22.98413 -0.19513,1.6479 -0.52046,3.25248 -0.52046,4.94375 0,23.93821 19.4281,43.3663 43.3663,43.3663 23.93825,0 43.36635,-19.42809 43.36635,-43.3663 0,-4.59685 -0.9107,-8.95516 -2.25508,-13.11829 z"
   id="path12" /></svg>