<svg width="512" height="512" xmlns="http://www.w3.org/2000/svg" clip-rule="evenodd">
 <metadata id="metadata98">image/svg+xml</metadata>

 <g>
  <title>Layer 1</title>
  <g id="g57" transform="matrix(0.85785312,0,0,0.85785312,598.15373,371.86178) ">
   <path fill="#a52b00" fill-rule="nonzero" id="path55" d="m0,-7.203l-12.072,-25.006c0.063,-0.947 0.111,-1.898 0.111,-2.853c0,-28.346 -29.478,-54.471 -79.069,-75.389l0,17.393c-4.836,-1.919 -9.871,-3.787 -15.117,-5.593l0,-8.108c-70.874,-25.56 -176.383,-41.778 -294.241,-41.778c-102.973,0 -196.529,12.38 -265.791,32.554l0,28.246l-0.002,0l0,-34.188c-70.96,22.55 -114.954,53.877 -114.954,88.515c0,5.46 1.101,10.838 3.217,16.113l-7.228,12.867c0,0 -5.792,7.512 4.406,23.362c8.994,13.977 54.048,68.685 77.827,97.335c10.214,14.687 -25.21441,28.47407 -24.60941,27.59907c0.955,-1.386 36.00441,-33.70107 15.72041,-65.16307c-9.466,-16.895 -20.768,-39.283 -27.554,-55.819c18.942,11.99 130.23,68.029 357.232,67.801c231.994,-0.232 335.115,-72.851 346.433,-82.737c-3.955,15.889 -17.468,48.033 -28.245,70.638c-17.706,32.331 -24.12,60.478 -23.296,61.87c0.524,0.878 6.565,-8.441 15.476,-23.543c20.731,-29.543 60.017,-85.939 67.867,-100.305c8.896,-16.285 3.889,-23.811 3.889,-23.811"/>
  </g>
  <g id="g61" transform="matrix(0.85785312,0,0,0.85785312,658.28065,190.44558) ">
   <path fill="#f74c00" fill-rule="nonzero" id="path59" d="m0,204.135l-79.343,-58.446c-0.745,-2.6 -1.49,-5.201 -2.26,-7.781l26.062,-37.754c2.66,-3.84 3.196,-8.832 1.469,-13.211c-1.731,-4.358 -5.515,-7.482 -9.99,-8.247l-44.066,-7.479c-1.709,-3.485 -3.498,-6.916 -5.294,-10.319l18.515,-42.388c1.903,-4.317 1.505,-9.335 -1.022,-13.254c-2.517,-3.937 -6.786,-6.237 -11.338,-6.058l-44.724,1.625c-2.315,-3.016 -4.667,-6.003 -7.067,-8.937l10.278,-45.432c1.042,-4.612 -0.274,-9.443 -3.487,-12.794c-3.195,-3.339 -7.838,-4.722 -12.253,-3.639l-43.562,10.709c-2.82,-2.493 -5.688,-4.953 -8.588,-7.365l1.567,-46.641c0.168,-4.721 -2.033,-9.208 -5.812,-11.829c-3.777,-2.636 -8.57,-3.032 -12.701,-1.074l-40.638,19.321c-3.273,-1.878 -6.565,-3.737 -9.892,-5.537l-7.181,-45.961c-0.729,-4.656 -3.724,-8.612 -7.919,-10.418c-4.185,-1.817 -8.976,-1.228 -12.648,1.536l-36.232,27.185c-3.569,-1.185 -7.153,-2.32 -10.779,-3.407l-15.617,-43.585c-1.588,-4.443 -5.25,-7.706 -9.716,-8.624c-4.45,-0.909 -9.028,0.632 -12.114,4.08l-30.499,34.119c-3.685,-0.423 -7.377,-0.81 -11.076,-1.131l-23.549,-39.676c-2.384,-4.018 -6.597,-6.464 -11.139,-6.464c-4.529,0 -8.75,2.446 -11.118,6.464l-23.555,39.676c-3.701,0.321 -7.408,0.708 -11.088,1.131l-30.499,-34.119c-3.09,-3.448 -7.684,-4.989 -12.122,-4.08c-4.46,0.93 -8.128,4.181 -9.707,8.624l-15.629,43.585c-3.621,1.087 -7.205,2.23 -10.78,3.407l-36.22,-27.185c-3.683,-2.774 -8.478,-3.361 -12.668,-1.536c-4.181,1.806 -7.188,5.762 -7.913,10.418l-7.186,45.961c-3.322,1.8 -6.614,3.649 -9.895,5.537l-40.634,-19.321c-4.127,-1.966 -8.945,-1.562 -12.704,1.074c-3.773,2.621 -5.98,7.108 -5.81,11.829l1.562,46.641c-2.894,2.412 -5.756,4.872 -8.591,7.365l-43.554,-10.709c-4.423,-1.074 -9.062,0.3 -12.265,3.639c-3.221,3.351 -4.526,8.182 -3.491,12.794l10.257,45.432c-2.378,2.945 -4.733,5.921 -7.042,8.937l-44.724,-1.625c-4.513,-0.135 -8.821,2.121 -11.343,6.058c-2.527,3.919 -2.91,8.937 -1.029,13.254l18.528,42.388c-1.799,3.403 -3.586,6.834 -5.309,10.319l-44.063,7.479c-4.479,0.754 -8.252,3.876 -9.994,8.247c-1.728,4.379 -1.167,9.371 1.474,13.211l26.066,37.754c-0.201,0.667 -0.387,1.339 -0.587,2.008l-73.696,78.285c0,0 -11.296,8.851 5.147,29.654c14.5,18.351 88.951,91.096 128.271,129.205c16.606,19.348 27.984,31.329 29.172,30.293c1.876,-1.645 -7.972,-36.847 -40.682,-78.149c-25.216,-37.056 -57.941,-94.049 -50.267,-100.618c0,0 8.729,-11.081 26.242,-19.057c0.641,0.512 -0.662,-0.507 0,0c0,0 369.595,170.491 712.429,2.884c39.164,-7.025 62.873,13.955 62.873,13.955c8.176,4.74 -12.996,63.344 -30.407,102.137c-23.679,44.05 -27.151,78.422 -25.144,79.614c1.268,0.757 9.883,-12.353 22.172,-33.217c30.324,-42.253 87.646,-122.802 98.138,-142.368c11.895,-22.182 0,-28.399 0,-28.399"/>
  </g>
  <rect fill="#ffffff" stroke="#ffffff" y="0.22374" x="-123.86309" height="511.55252" width="123.36309" id="rect1244"/>
  <rect clip-rule="evenodd" fill="#ffffff" fill-rule="evenodd" stroke="#ffffff" stroke-linejoin="round" stroke-miterlimit="1.41421" y="0.22374" x="512.5" height="511.55252" width="123.36309" id="rect1244-3"/>
  <g stroke="null" id="svg_9">
   <ellipse stroke="null" transform="matrix(15.64239098841563,0,0,15.64239098841563,-40.55568205412543,-40.04218372429146) " id="svg_5" ry="3.5" rx="2.5" cy="17.94664" cx="12.95875" fill="#000000"/>
   <path stroke="null" id="svg_6" d="m427.39813,260.97428c-0.93854,-2.11172 -23.44794,-51.57296 -69.71814,-51.57296c-46.25455,0 -68.77959,49.46124 -69.71814,51.57296c-1.4391,3.23797 -0.50056,7.02343 2.26815,9.24465c2.73742,2.22122 6.66366,2.29943 9.54186,0.21899c0.18771,-0.14078 19.7407,-14.10944 57.90813,-14.10944c37.94844,0 57.47014,13.78095 57.90813,14.09379c1.37653,1.0324 3.03462,1.5486 4.66143,1.5486c1.72066,0 3.45697,-0.57877 4.88043,-1.70502c2.7687,-2.22122 3.72289,-6.03796 2.26815,-9.29158zm-351.29682,-83.51473c-3.25362,0 -6.55416,-1.01676 -9.36979,-3.12848c-6.91394,-5.17763 -8.30611,-14.98541 -3.12848,-21.89935c51.02548,-68.0444 119.13245,-68.82652 122.01065,-68.82652c8.6346,0 15.64239,7.00779 15.64239,15.64239c0,8.61896 -6.96086,15.61111 -15.57982,15.64239c-2.44021,0.03128 -55.82769,1.34525 -97.06104,56.31261c-3.05027,4.09831 -7.75863,6.25696 -12.51391,6.25696zm359.80628,33.24008c-4.77093,0 -9.448,-2.15865 -12.52956,-6.25696c-40.54508,-54.07575 -108.88668,-41.09256 -109.55931,-40.98306c-8.55639,1.68938 -16.70607,-3.8011 -18.41109,-12.26363c-1.68938,-8.47818 3.8011,-16.70607 12.26363,-18.41109c3.61339,-0.73519 88.48901,-16.76864 140.71895,52.87128c5.19327,6.91394 3.78546,16.72172 -3.12848,21.89935c-2.79999,2.14301 -6.08489,3.14412 -9.35415,3.14412zm-89.89682,140.68766c-2.94077,-1.72066 -6.75751,-1.36089 -9.33851,0.93854c-0.15642,0.12514 -15.84574,13.49938 -72.84661,13.49938c-56.95395,0 -72.67455,-13.3586 -72.67455,-13.3586c-2.48714,-2.50278 -6.31953,-2.97205 -9.38543,-1.28268c-3.05027,1.73631 -4.58322,5.30277 -3.72289,8.71281c0.15642,0.68827 17.8949,68.49803 85.78287,68.49803s85.62645,-67.80976 85.79851,-68.49803c0.82905,-3.33183 -0.68827,-6.74187 -3.61339,-8.50946z" fill="#000000"/>
  </g>
 </g>
</svg>