<?xml version="1.0" encoding="UTF-8" standalone="no"?>
<svg
   width="512"
   height="512"
   viewBox="0 0 512 512"
   version="1.1"
   xml:space="preserve"
   style="clip-rule:evenodd;fill-rule:evenodd;stroke-linejoin:round;stroke-miterlimit:1.41421"
   id="svg92"
   sodipodi:docname="ferrisCursingFinalFinal.svg"
   inkscape:version="1.1 (c4e8f9ed74, 2021-05-24)"
   inkscape:export-filename="/run/media/fdschonborn/Elements/Imágenes/ferrisCursingFinalFinal.png"
   inkscape:export-xdpi="96"
   inkscape:export-ydpi="96"
   xmlns:inkscape="http://www.inkscape.org/namespaces/inkscape"
   xmlns:sodipodi="http://sodipodi.sourceforge.net/DTD/sodipodi-0.dtd"
   xmlns="http://www.w3.org/2000/svg"
   xmlns:svg="http://www.w3.org/2000/svg"
   xmlns:rdf="http://www.w3.org/1999/02/22-rdf-syntax-ns#"
   xmlns:cc="http://creativecommons.org/ns#"
   xmlns:dc="http://purl.org/dc/elements/1.1/"><metadata
   id="metadata98"><rdf:RDF><cc:Work
       rdf:about=""><dc:format>image/svg+xml</dc:format><dc:type
         rdf:resource="http://purl.org/dc/dcmitype/StillImage" /></cc:Work></rdf:RDF></metadata><defs
   id="defs96">









    </defs><sodipodi:namedview
   pagecolor="#ffffff"
   bordercolor="#666666"
   borderopacity="1"
   objecttolerance="10"
   gridtolerance="10"
   guidetolerance="10"
   inkscape:pageopacity="0"
   inkscape:pageshadow="2"
   inkscape:window-width="1920"
   inkscape:window-height="1011"
   id="namedview94"
   showgrid="false"
   inkscape:snap-bbox="true"
   inkscape:bbox-paths="true"
   inkscape:bbox-nodes="true"
   inkscape:snap-bbox-edge-midpoints="true"
   inkscape:snap-bbox-midpoints="true"
   inkscape:object-paths="true"
   inkscape:snap-intersection-paths="true"
   inkscape:snap-smooth-nodes="true"
   inkscape:snap-midpoints="true"
   inkscape:snap-object-midpoints="true"
   inkscape:snap-center="true"
   inkscape:snap-text-baseline="true"
   inkscape:zoom="1.04375"
   inkscape:cx="-74.251497"
   inkscape:cy="246.22754"
   inkscape:window-x="0"
   inkscape:window-y="0"
   inkscape:window-maximized="1"
   inkscape:current-layer="svg92"
   inkscape:document-rotation="0"
   fit-margin-top="0"
   fit-margin-left="0"
   fit-margin-right="0"
   fit-margin-bottom="0"
   inkscape:pagecheckerboard="0" />

<g
   transform="matrix(0.85785312,0,0,0.85785312,598.15373,371.86178)"
   id="g57">
            <path
   d="m 0,-7.203 -12.072,-25.006 c 0.063,-0.947 0.111,-1.898 0.111,-2.853 0,-28.346 -29.478,-54.471 -79.069,-75.389 v 17.393 c -4.836,-1.919 -9.871,-3.787 -15.117,-5.593 v -8.108 c -70.874,-25.56 -176.383,-41.778 -294.241,-41.778 -102.973,0 -196.529,12.38 -265.791,32.554 v 28.246 h -0.002 v -34.188 c -70.96,22.55 -114.954,53.877 -114.954,88.515 0,5.46 1.101,10.838 3.217,16.113 l -7.228,12.867 c 0,0 -5.792,7.512 4.406,23.362 8.994,13.977 54.048,68.685 77.827,97.335 10.214,14.687 -25.21441,28.47407 -24.60941,27.59907 0.955,-1.386 36.00441,-33.70107 15.72041,-65.16307 -9.466,-16.895 -20.768,-39.283 -27.554,-55.819 18.942,11.99 130.23,68.029 357.232,67.801 231.994,-0.232 335.115,-72.851 346.433,-82.737 -3.955,15.889 -17.468,48.033 -28.245,70.638 -17.706,32.331 -24.12,60.478 -23.296,61.87 0.524,0.878 6.565,-8.441 15.476,-23.543 C -51.025,87.37 -11.739,30.974 -3.889,16.608 5.007,0.323 0,-7.203 0,-7.203"
   style="fill:#a52b00;fill-rule:nonzero"
   id="path55"
   sodipodi:nodetypes="ccsccccsccccscccccccccccccc" />
        </g><g
   transform="matrix(0.85785312,0,0,0.85785312,658.28065,190.44558)"
   id="g61">
            <path
   d="m 0,204.135 -79.343,-58.446 c -0.745,-2.6 -1.49,-5.201 -2.26,-7.781 l 26.062,-37.754 c 2.66,-3.84 3.196,-8.832 1.469,-13.211 -1.731,-4.358 -5.515,-7.482 -9.99,-8.247 l -44.066,-7.479 c -1.709,-3.485 -3.498,-6.916 -5.294,-10.319 L -94.907,18.51 c 1.903,-4.317 1.505,-9.335 -1.022,-13.254 -2.517,-3.937 -6.786,-6.237 -11.338,-6.058 l -44.724,1.625 c -2.315,-3.016 -4.667,-6.003 -7.067,-8.937 l 10.278,-45.432 c 1.042,-4.612 -0.274,-9.443 -3.487,-12.794 -3.195,-3.339 -7.838,-4.722 -12.253,-3.639 l -43.562,10.709 c -2.82,-2.493 -5.688,-4.953 -8.588,-7.365 l 1.567,-46.641 c 0.168,-4.721 -2.033,-9.208 -5.812,-11.829 -3.777,-2.636 -8.57,-3.032 -12.701,-1.074 l -40.638,19.321 c -3.273,-1.878 -6.565,-3.737 -9.892,-5.537 l -7.181,-45.961 c -0.729,-4.656 -3.724,-8.612 -7.919,-10.418 -4.185,-1.817 -8.976,-1.228 -12.648,1.536 l -36.232,27.185 c -3.569,-1.185 -7.153,-2.32 -10.779,-3.407 l -15.617,-43.585 c -1.588,-4.443 -5.25,-7.706 -9.716,-8.624 -4.45,-0.909 -9.028,0.632 -12.114,4.08 l -30.499,34.119 c -3.685,-0.423 -7.377,-0.81 -11.076,-1.131 l -23.549,-39.676 c -2.384,-4.018 -6.597,-6.464 -11.139,-6.464 -4.529,0 -8.75,2.446 -11.118,6.464 l -23.555,39.676 c -3.701,0.321 -7.408,0.708 -11.088,1.131 l -30.499,-34.119 c -3.09,-3.448 -7.684,-4.989 -12.122,-4.08 -4.46,0.93 -8.128,4.181 -9.707,8.624 l -15.629,43.585 c -3.621,1.087 -7.205,2.23 -10.78,3.407 l -36.22,-27.185 c -3.683,-2.774 -8.478,-3.361 -12.668,-1.536 -4.181,1.806 -7.188,5.762 -7.913,10.418 l -7.186,45.961 c -3.322,1.8 -6.614,3.649 -9.895,5.537 l -40.634,-19.321 c -4.127,-1.966 -8.945,-1.562 -12.704,1.074 -3.773,2.621 -5.98,7.108 -5.81,11.829 l 1.562,46.641 c -2.894,2.412 -5.756,4.872 -8.591,7.365 l -43.554,-10.709 c -4.423,-1.074 -9.062,0.3 -12.265,3.639 -3.221,3.351 -4.526,8.182 -3.491,12.794 l 10.257,45.432 c -2.378,2.945 -4.733,5.921 -7.042,8.937 l -44.724,-1.625 c -4.513,-0.135 -8.821,2.121 -11.343,6.058 -2.527,3.919 -2.91,8.937 -1.029,13.254 l 18.528,42.388 c -1.799,3.403 -3.586,6.834 -5.309,10.319 l -44.063,7.479 c -4.479,0.754 -8.252,3.876 -9.994,8.247 -1.728,4.379 -1.167,9.371 1.474,13.211 l 26.066,37.754 c -0.201,0.667 -0.387,1.339 -0.587,2.008 l -73.696,78.285 c 0,0 -11.296,8.851 5.147,29.654 14.5,18.351 88.951,91.096 128.271,129.205 16.606,19.348 27.984,31.329 29.172,30.293 1.876,-1.645 -7.972,-36.847 -40.682,-78.149 -25.216,-37.056 -57.941,-94.049 -50.267,-100.618 0,0 8.729,-11.081 26.242,-19.057 0.641,0.512 -0.662,-0.507 0,0 0,0 369.595,170.491 712.429,2.884 39.164,-7.025 62.873,13.955 62.873,13.955 8.176,4.74 -12.996,63.344 -30.407,102.137 -23.679,44.05 -27.151,78.422 -25.144,79.614 1.268,0.757 9.883,-12.353 22.172,-33.217 C -67.814,332.649 -10.492,252.1 0,232.534 11.895,210.352 0,204.135 0,204.135"
   style="fill:#f74c00;fill-rule:nonzero"
   id="path59" />
        </g><rect
   style="fill:#ffffff;stroke:#ffffff"
   id="rect1244"
   width="123.36309"
   height="511.55252"
   x="-123.86309"
   y="0.22373962" /><rect
   style="clip-rule:evenodd;fill:#ffffff;fill-rule:evenodd;stroke:#ffffff;stroke-linejoin:round;stroke-miterlimit:1.41421"
   id="rect1244-3"
   width="123.36309"
   height="511.55252"
   x="512.5"
   y="0.22373962" /><path
   fill="#292f33"
   d="M 375.0689,399.26727 C 374.35306,396.4198 356.48874,329.60759 256,329.60759 c -100.50466,0 -118.35306,66.81221 -119.0689,69.65968 -0.87493,3.45196 0.68403,7.03119 3.77011,8.81285 3.102,1.73394 6.98348,1.25671 9.5446,-1.22488 0.30226,-0.30225 31.08359,-29.52465 105.75419,-29.52465 74.67059,0 105.46784,29.2224 105.75418,29.50874 1.52713,1.51122 3.56332,2.3066 5.5995,2.3066 1.33624,0 2.68839,-0.33405 3.91329,-1.01808 3.1179,-1.78165 4.67685,-5.39271 3.80193,-8.86058 z M 219.52371,167.23802 C 167.74424,115.45857 84.531242,114.85407 81.015642,114.85407 c -8.781028,0 -15.891754,7.11073 -15.891754,15.87585 -0.01588,8.78103 7.094816,15.90767 15.875855,15.93949 0.461319,0 30.622257,0.36587 63.360237,11.72395 -9.43325,10.1809 -15.62134,25.99312 -15.62134,43.95288 0,30.76543 17.80069,55.67685 39.76918,55.67685 21.96849,0 39.76916,-24.91142 39.76916,-55.67685 0,-2.76792 -0.30223,-5.4086 -0.58858,-8.06519 0.2068,0 0.3977,0.11136 0.58858,0.11136 4.07237,0 8.14473,-1.55896 11.24673,-4.66095 6.21989,-6.21989 6.21989,-16.27354 0,-22.49344 z m 211.46065,-52.38395 c -3.5156,0 -86.71271,0.6045 -138.50808,52.38395 -6.21989,6.2199 -6.21989,16.27355 0,22.49344 3.102,3.10199 7.17437,4.66095 11.24673,4.66095 0.20679,0 0.38178,-0.11136 0.57267,-0.11136 -0.25453,2.65659 -0.57267,5.29727 -0.57267,8.06519 0,30.76543 17.80067,55.67685 39.76916,55.67685 21.96849,0 39.76918,-24.91142 39.76918,-55.67685 0,-17.95976 -6.18809,-33.77198 -15.62133,-43.95288 32.73797,-11.35808 62.89892,-11.72395 63.37615,-11.72395 8.76513,-0.0318 15.87585,-7.15846 15.85994,-15.93949 -0.0159,-8.76512 -7.11072,-15.87585 -15.89175,-15.87585 z"
   id="path525"
   style="fill:#000000;stroke-width:15.9077" /><rect
   style="fill:#000000;stroke-width:1.23087"
   id="rect407"
   width="506.36084"
   height="159.66563"
   x="-21.084032"
   y="303.69199"
   rx="43.346237"
   ry="28.004025"
   transform="rotate(-3.6435651)" /><text
   xml:space="preserve"
   style="font-style:normal;font-variant:normal;font-weight:bold;font-stretch:normal;font-size:103.361px;line-height:1.25;font-family:'Fira Code';-inkscape-font-specification:'Fira Code Bold';stroke-width:1.16185"
   x="-22.222187"
   y="419.70108"
   id="text4443"
   transform="rotate(-3.6435651)"><tspan
     sodipodi:role="line"
     id="tspan4441"
     x="-22.222187"
     y="419.70108"
     style="font-style:normal;font-variant:normal;font-weight:bold;font-stretch:normal;font-size:103.361px;font-family:'Fira Code';-inkscape-font-specification:'Fira Code Bold';fill:#ffffff;stroke-width:1.16185">::&lt;!&gt;()?</tspan></text></svg>
