<?xml version="1.0" encoding="UTF-8" standalone="no"?>
<svg
   width="1237.4696"
   height="612.89111"
   viewBox="0 0 1237.4696 612.89111"
   version="1.1"
   xml:space="preserve"
   style="clip-rule:evenodd;fill-rule:evenodd;stroke-linejoin:round;stroke-miterlimit:1.41421"
   id="svg435"
   sodipodi:docname="ferrisBased.svg"
   inkscape:version="1.1 (1:1.1+202105261517+ce6663b3b7)"
   inkscape:export-filename="/media/fdschonborn/Elements/Imágenes/ferrisBased.png"
   inkscape:export-xdpi="136.61426"
   inkscape:export-ydpi="136.61426"
   xmlns:inkscape="http://www.inkscape.org/namespaces/inkscape"
   xmlns:sodipodi="http://sodipodi.sourceforge.net/DTD/sodipodi-0.dtd"
   xmlns="http://www.w3.org/2000/svg"
   xmlns:svg="http://www.w3.org/2000/svg"><defs
   id="defs439">
        
        
        
        
        
        
        
        
        
    </defs><sodipodi:namedview
   id="namedview437"
   pagecolor="#ffffff"
   bordercolor="#666666"
   borderopacity="1.0"
   inkscape:pageshadow="2"
   inkscape:pageopacity="0.0"
   inkscape:pagecheckerboard="0"
   showgrid="false"
   fit-margin-top="0"
   fit-margin-left="0"
   fit-margin-right="0"
   fit-margin-bottom="0"
   inkscape:zoom="0.35885669"
   inkscape:cx="-181.1308"
   inkscape:cy="-390.12788"
   inkscape:window-width="1920"
   inkscape:window-height="1007"
   inkscape:window-x="0"
   inkscape:window-y="0"
   inkscape:window-maximized="1"
   inkscape:current-layer="svg435" />
    <g
   transform="translate(1005.2859,416.218)"
   id="g400">
            <path
   d="m 0,-7.203 -12.072,-25.006 c 0.063,-0.947 0.111,-1.898 0.111,-2.853 0,-28.346 -29.478,-54.471 -79.069,-75.389 v 17.393 c -4.836,-1.919 -9.871,-3.787 -15.117,-5.593 v -8.108 c -70.874,-25.56 -176.383,-41.778 -294.241,-41.778 -102.973,0 -196.529,12.38 -265.791,32.554 v 28.246 h -0.002 v -34.188 c -70.96,22.55 -114.954,53.877 -114.954,88.515 0,5.46 1.101,10.838 3.217,16.113 l -7.228,12.867 c 0,0 -5.792,7.512 4.406,23.362 8.994,13.977 54.048,68.685 77.827,97.335 10.214,14.687 17.141,23.734 17.746,22.859 0.955,-1.386 -6.351,-28.961 -26.635,-60.423 -9.466,-16.895 -20.768,-39.283 -27.554,-55.819 18.942,11.99 130.23,68.029 357.232,67.801 231.994,-0.232 335.115,-72.851 346.433,-82.737 -3.955,15.889 -17.468,48.033 -28.245,70.638 -17.706,32.331 -24.12,60.478 -23.296,61.87 0.524,0.878 6.565,-8.441 15.476,-23.543 C -51.025,87.37 -11.739,30.974 -3.889,16.608 5.007,0.323 0,-7.203 0,-7.203"
   style="fill:#a52b00;fill-rule:nonzero"
   id="path398" />
        </g><g
   transform="translate(1075.3759,204.741)"
   id="g404">
            <path
   d="m 0,204.135 -79.343,-58.446 c -0.745,-2.6 -1.49,-5.201 -2.26,-7.781 l 26.062,-37.754 c 2.66,-3.84 3.196,-8.832 1.469,-13.211 -1.731,-4.358 -5.515,-7.482 -9.99,-8.247 l -44.066,-7.479 c -1.709,-3.485 -3.498,-6.916 -5.294,-10.319 L -94.907,18.51 c 1.903,-4.317 1.505,-9.335 -1.022,-13.254 -2.517,-3.937 -6.786,-6.237 -11.338,-6.058 l -44.724,1.625 c -2.315,-3.016 -4.667,-6.003 -7.067,-8.937 l 10.278,-45.432 c 1.042,-4.612 -0.274,-9.443 -3.487,-12.794 -3.195,-3.339 -7.838,-4.722 -12.253,-3.639 l -43.562,10.709 c -2.82,-2.493 -5.688,-4.953 -8.588,-7.365 l 1.567,-46.641 c 0.168,-4.721 -2.033,-9.208 -5.812,-11.829 -3.777,-2.636 -8.57,-3.032 -12.701,-1.074 l -40.638,19.321 c -3.273,-1.878 -6.565,-3.737 -9.892,-5.537 l -7.181,-45.961 c -0.729,-4.656 -3.724,-8.612 -7.919,-10.418 -4.185,-1.817 -8.976,-1.228 -12.648,1.536 l -36.232,27.185 c -3.569,-1.185 -7.153,-2.32 -10.779,-3.407 l -15.617,-43.585 c -1.588,-4.443 -5.25,-7.706 -9.716,-8.624 -4.45,-0.909 -9.028,0.632 -12.114,4.08 l -30.499,34.119 c -3.685,-0.423 -7.377,-0.81 -11.076,-1.131 l -23.549,-39.676 c -2.384,-4.018 -6.597,-6.464 -11.139,-6.464 -4.529,0 -8.75,2.446 -11.118,6.464 l -23.555,39.676 c -3.701,0.321 -7.408,0.708 -11.088,1.131 l -30.499,-34.119 c -3.09,-3.448 -7.684,-4.989 -12.122,-4.08 -4.46,0.93 -8.128,4.181 -9.707,8.624 l -15.629,43.585 c -3.621,1.087 -7.205,2.23 -10.78,3.407 l -36.22,-27.185 c -3.683,-2.774 -8.478,-3.361 -12.668,-1.536 -4.181,1.806 -7.188,5.762 -7.913,10.418 l -7.186,45.961 c -3.322,1.8 -6.614,3.649 -9.895,5.537 l -40.634,-19.321 c -4.127,-1.966 -8.945,-1.562 -12.704,1.074 -3.773,2.621 -5.98,7.108 -5.81,11.829 l 1.562,46.641 c -2.894,2.412 -5.756,4.872 -8.591,7.365 l -43.554,-10.709 c -4.423,-1.074 -9.062,0.3 -12.265,3.639 -3.221,3.351 -4.526,8.182 -3.491,12.794 l 10.257,45.432 c -2.378,2.945 -4.733,5.921 -7.042,8.937 l -44.724,-1.625 c -4.513,-0.135 -8.821,2.121 -11.343,6.058 -2.527,3.919 -2.91,8.937 -1.029,13.254 l 18.528,42.388 c -1.799,3.403 -3.586,6.834 -5.309,10.319 l -44.063,7.479 c -4.479,0.754 -8.252,3.876 -9.994,8.247 -1.728,4.379 -1.167,9.371 1.474,13.211 l 26.066,37.754 c -0.201,0.667 -0.387,1.339 -0.587,2.008 l -73.696,78.285 c 0,0 -11.296,8.851 5.147,29.654 14.5,18.351 88.951,91.096 128.271,129.205 16.606,19.348 27.984,31.329 29.172,30.293 1.876,-1.645 -7.972,-36.847 -40.682,-78.149 -25.216,-37.056 -57.941,-94.049 -50.267,-100.618 0,0 8.729,-11.081 26.242,-19.057 0.641,0.512 -0.662,-0.507 0,0 0,0 369.595,170.491 712.429,2.884 39.164,-7.025 62.873,13.955 62.873,13.955 8.176,4.74 -12.996,63.344 -30.407,102.137 -23.679,44.05 -27.151,78.422 -25.144,79.614 1.268,0.757 9.883,-12.353 22.172,-33.217 C -67.814,332.649 -10.492,252.1 0,232.534 11.895,210.352 0,204.135 0,204.135"
   style="fill:#f74c00;fill-rule:nonzero"
   id="path402" />
        </g><g
   transform="matrix(1.5853092,0,0,1.5853092,543.55756,479.38032)"
   id="g428">
            <path
   d="m 0,-40.271 80.796,-6.484 c 0,0 -2.738,13.006 -13.279,22.769 0,0 -27.79,30.47 -59.673,-2.533 0,0 -5.217,-5.629 -7.844,-13.752"
   style="fill-rule:nonzero"
   id="path426" />
        </g>
<g
   id="g1518"
   transform="matrix(10.190956,0,0,10.794595,-5.085287,52.59153)"><path
     fill="#ffdc5d"
     d="M 33.29,8.628 C 33.265,8.62 24.499,6 21.499,5 c -1.2,-0.4 -21,-7 -21,16 0,0.637 2,11 4,11 h 11 c 8.375,0 5.642,-10.68 15.92,-12.106 1.739,-0.241 2.621,-1.112 2.466,-2.566 -0.165,-1.549 -1.975,-2.059 -3.534,-2.059 -1.146,0 -5.754,0.233 -9.026,1.951 -0.286,-1.809 -0.826,-4.013 -0.826,-6.221 5,1 11.092,2.333 11.209,2.372 1.31,0.434 2.726,-0.271 3.162,-1.582 C 35.308,10.48 34.6,9.065 33.29,8.628 Z"
     id="path803" /><path
     fill="#ef9645"
     d="M 19.207,7.293 C 18.818,6.902 18.184,6.901 17.793,7.292 c -0.391,0.39 -0.392,1.023 -10e-4,1.415 0.017,0.017 1.704,1.737 1.704,4.293 v 7.109 c 0,0.852 -0.501,1.154 -0.97,1.154 -0.496,0 -1.025,-0.332 -1.025,-1.264 v -2 c 0,-3.767 -0.303,-7.77 -2.553,-8.895 -0.495,-0.247 -1.095,-0.046 -1.342,0.447 -0.247,0.494 -0.047,1.095 0.447,1.342 0.66,0.33 1.447,1.831 1.447,7.105 v 0.996 c 0,0 -0.004,1.001 -0.004,3.114 0,0.852 -0.501,1.154 -0.97,1.154 -0.496,0 -1.025,-0.332 -1.025,-1.264 v -2 c 0,-3.767 -0.303,-7.77 -2.553,-8.895 -0.495,-0.248 -1.095,-0.046 -1.342,0.447 -0.247,0.494 -0.047,1.095 0.447,1.342 0.66,0.33 1.447,1.831 1.447,7.105 v 2 c 0,0.021 0.005,0.039 0.005,0.06 -0.001,0.017 -0.01,0.032 -0.01,0.049 0,0.852 -0.501,1.154 -0.97,1.154 C 10.029,23.264 9.5,22.932 9.5,22 9.5,18.606 9.5,14.382 6.947,13.105 6.452,12.857 5.852,13.059 5.605,13.552 5.358,14.046 5.558,14.647 6.052,14.894 7.5,15.618 7.5,19.613 7.5,22 c 0,2.143 1.522,3.264 3.025,3.264 0.722,0 1.445,-0.263 1.999,-0.769 0.56,0.505 1.281,0.769 2.001,0.769 1.236,0 2.473,-0.769 2.846,-2.232 0.368,0.151 0.761,0.232 1.154,0.232 1.476,0 2.97,-1.083 2.97,-3.154 V 13 c 0,-3.375 -2.194,-5.613 -2.288,-5.707 z"
     id="path805" /></g><path
   fill-rule="evenodd"
   clip-rule="evenodd"
   fill="#31373d"
   d="m 255.57815,220.51875 c 5.00936,4.9885 30.01445,19.97485 35.00295,34.96121 5.00937,14.96548 15.0281,110.76962 45.04255,135.75384 30.95371,25.71474 147.7137,16.13433 170.068,5.00935 50.03104,-24.94247 56.16752,-105.50977 65.01739,-140.78406 4.9885,-19.97485 35.00296,-19.97485 35.00296,-19.97485 0,0 30.01446,0 35.02383,19.95398 8.84987,35.29516 15.02809,116.09207 65.01739,140.99279 22.37517,11.16671 139.13516,20.74713 170.13062,-4.96762 29.97271,-24.98422 39.97057,-121.03882 44.97993,-136.02517 4.96763,-14.9655 30.01446,-29.95185 35.00295,-34.94034 5.03024,-4.98849 5.03024,-24.96334 0,-29.97271 -9.99786,-9.97699 -128.03106,-18.86861 -255.12287,-4.98849 -25.35991,2.77602 -35.00294,9.97699 -95.05272,9.97699 -60.00804,0 -69.69282,-7.22184 -95.03186,-9.97699 -127.00832,-13.85925 -245.06239,-4.96763 -255.08112,5.00937 -4.9885,4.98849 -4.9885,24.98421 0,29.9727 z"
   id="path1159"
   style="stroke-width:20.8723" /><g
   id="g1395"
   transform="matrix(9.4544918,0,0,9.4544918,906.97833,98.2896)"><path
     fill="#ffdb5e"
     d="m 34.956,17.916 c 0,-0.503 -0.12,-0.975 -0.321,-1.404 -1.341,-4.326 -7.619,-4.01 -16.549,-4.221 -1.493,-0.035 -0.639,-1.798 -0.115,-5.668 0.341,-2.517 -1.282,-6.382 -4.01,-6.382 -4.498,0 -0.171,3.548 -4.148,12.322 -2.125,4.688 -6.875,2.062 -6.875,6.771 v 10.719 c 0,1.833 0.18,3.595 2.758,3.885 C 8.195,34.219 7.633,36 11.238,36 h 18.044 c 1.838,0 3.333,-1.496 3.333,-3.334 0,-0.762 -0.267,-1.456 -0.698,-2.018 1.02,-0.571 1.72,-1.649 1.72,-2.899 0,-0.76 -0.266,-1.454 -0.696,-2.015 1.023,-0.57 1.725,-1.649 1.725,-2.901 0,-0.909 -0.368,-1.733 -0.961,-2.336 0.757,-0.611 1.251,-1.535 1.251,-2.581 z"
     id="path887" /><path
     fill="#ee9547"
     d="m 23.02,21.249 h 8.604 c 1.17,0 2.268,-0.626 2.866,-1.633 0.246,-0.415 0.109,-0.952 -0.307,-1.199 -0.415,-0.247 -0.952,-0.108 -1.199,0.307 -0.283,0.479 -0.806,0.775 -1.361,0.775 h -8.81 c -0.873,0 -1.583,-0.71 -1.583,-1.583 0,-0.873 0.71,-1.583 1.583,-1.583 H 28.7 c 0.483,0 0.875,-0.392 0.875,-0.875 0,-0.483 -0.392,-0.875 -0.875,-0.875 h -5.888 c -1.838,0 -3.333,1.495 -3.333,3.333 0,1.025 0.475,1.932 1.205,2.544 -0.615,0.605 -0.998,1.445 -0.998,2.373 0,1.028 0.478,1.938 1.212,2.549 -0.611,0.604 -0.99,1.441 -0.99,2.367 0,1.12 0.559,2.108 1.409,2.713 -0.524,0.589 -0.852,1.356 -0.852,2.204 0,1.838 1.495,3.333 3.333,3.333 h 5.484 c 1.17,0 2.269,-0.625 2.867,-1.632 0.247,-0.415 0.11,-0.952 -0.305,-1.199 -0.416,-0.245 -0.953,-0.11 -1.199,0.305 -0.285,0.479 -0.808,0.776 -1.363,0.776 h -5.484 c -0.873,0 -1.583,-0.71 -1.583,-1.583 0,-0.873 0.71,-1.583 1.583,-1.583 h 6.506 c 1.17,0 2.27,-0.626 2.867,-1.633 0.247,-0.416 0.11,-0.953 -0.305,-1.199 -0.419,-0.251 -0.954,-0.11 -1.199,0.305 -0.289,0.487 -0.799,0.777 -1.363,0.777 h -7.063 c -0.873,0 -1.583,-0.711 -1.583,-1.584 0,-0.873 0.71,-1.583 1.583,-1.583 h 8.091 c 1.17,0 2.269,-0.625 2.867,-1.632 0.247,-0.415 0.11,-0.952 -0.305,-1.199 -0.417,-0.246 -0.953,-0.11 -1.199,0.305 -0.289,0.486 -0.799,0.776 -1.363,0.776 H 23.02 c -0.873,0 -1.583,-0.71 -1.583,-1.583 0,-0.873 0.709,-1.584 1.583,-1.584 z"
     id="path889" /></g></svg>
