<?xml version="1.0" encoding="UTF-8" standalone="no"?>
<!-- Generator: Adobe Illustrator 24.3.0, SVG Export Plug-In . SVG Version: 6.00 Build 0)  -->

<svg
   version="1.1"
   id="Layer_1"
   x="0px"
   y="0px"
   viewBox="0 0 785.38007 902.30725"
   xml:space="preserve"
   sodipodi:docname="ferrisAmogusPlead.svg"
   inkscape:version="1.2.1 (9c6d41e410, 2022-07-14)"
   width="785.38007"
   height="902.30725"
   inkscape:export-filename="/home/federico/ferrisAmogus.png"
   inkscape:export-xdpi="70.489998"
   inkscape:export-ydpi="70.489998"
   xmlns:inkscape="http://www.inkscape.org/namespaces/inkscape"
   xmlns:sodipodi="http://sodipodi.sourceforge.net/DTD/sodipodi-0.dtd"
   xmlns="http://www.w3.org/2000/svg"
   xmlns:svg="http://www.w3.org/2000/svg"><defs
   id="defs23">
	
	
	
	
	
	
</defs><sodipodi:namedview
   id="namedview21"
   pagecolor="#ffffff"
   bordercolor="#666666"
   borderopacity="1.0"
   inkscape:pageshadow="2"
   inkscape:pageopacity="0.0"
   inkscape:pagecheckerboard="0"
   showgrid="false"
   inkscape:zoom="0.802"
   inkscape:cx="4.3640898"
   inkscape:cy="432.66833"
   inkscape:window-width="1920"
   inkscape:window-height="995"
   inkscape:window-x="0"
   inkscape:window-y="0"
   inkscape:window-maximized="1"
   inkscape:current-layer="Layer_1"
   fit-margin-top="0"
   fit-margin-left="0"
   fit-margin-right="0"
   fit-margin-bottom="0"
   inkscape:showpageshadow="2"
   inkscape:deskcolor="#d1d1d1" />
<style
   type="text/css"
   id="style2">
	.st0{fill:#484C4D;}
	.st1{fill:#3F5AA8;}
	.st2{fill:#A3D3E3;}
	.st3{opacity:0.5;fill:#666766;}
	.st4{opacity:0.45;fill:#5B7882;}
	.st5{fill:#FFFFFF;}
</style>

<path
   d="m 661.05261,368.60726 c 25.4,-28.3 38.6,-63.6 35.9,-98.1 -3.3,-40.9 -28.7,-80.2 -71.7,-110.9 v 0 c -5.4,-3.8 -10.9,-7.4 -16.5,-10.8 -5.1,-21.3 -16,-40.4 -25.5,-53.999999 -14.9,-21.3 -33.9,-39.9 -52,-51.3 -33,-20.6 -69.6,-31 -101.2,-39.2000004 -17.7,-4.60000003 -32.5,-3.50000003 -45.6,-2.7 -8.9,0.6 -16.6,1.1 -24.8,-0.1 -36.1,-5.2 -73.4,3.1 -108,24.2000004 -30.6,18.6 -57.4,46.6 -75.5,78.799999 -24.6,43.7 -35.3,92.7 -40.8,139.8 -7.7,1 -16.5,1 -25.6,1.1 -26.700002,0.2 -60.000002,0.4 -83.600002,26.5 -20.3999999,22.5 -21.4999999,52.4 -22.1999999,72.2 -2.6,73.8 -5.2,150.2 -3.29999993,225.8 1.09999993,44 6.79999993,88.9 39.89999983,119.5 25.6,23.7 58.9,29.8 89.000002,29.8 3.1,0 6.2,-0.1 9.3,-0.2 2,19.7 4.2,39.4 6.7,59.1 3.2,25.2 7.1,49.6 20.6,71.8 19.7,32.5 57.4,52.4 96.1,52.4 6.7,0 13.4,-0.6 20.1,-1.8 45.8,-8.4 83.5,-44.6 93.9,-90 4.9,-21.7 3.3,-43.2 1.9,-62.2 -0.6,-8.1 -1.2,-16.1 -1.3,-23.6 9.7,-0.1 21.2,-0.2 33.6,-0.4 -8,44.4 6.6,91.7 40,120.6 20.3,17.5 47.3,27.1 75.3,27.1 3.8,0 7.6,-0.2 11.4,-0.5 30.5,-2.8 57.1,-16.6 74.8,-38.7 19.5,-24.4 25.9,-53.9 30.7,-82 21.8,-126.1 28.2,-254.7 18.9,-382.2 z"
   id="path6" /><path
   class="st1"
   d="m 609.35261,460.70726 c -0.2,-17.4 -0.8,-34.8 -1.6,-52.2 -20.1,10.1 -43.5,18.1 -71.4,24.4 -26.4,5.9 -50.5,8.9 -72.8,8.9 -20.7,0 -39.8,-2.6 -57.6,-7.7 -55.8,-16.2 -102.2,-60.3 -121.1,-115.1 -14.7,-42.6 -12.6,-91.2 5.9,-133.1 20.1,-45.6 69.8,-58.9 99.6,-66.8 46,-12.3 94.2,-12.7 139.3,-2.2 -8.9,-10.7 -18.9,-19.999999 -28.1,-25.799999 -26.2,-16.4 -57.9,-25.3 -85.5,-32.4 -8.9,-2.3 -17.3,-1.7 -27.9,-1 -10.6,0.7 -22.5,1.5 -36.6,-0.5 -53.6,-7.8 -103.2,33.5 -126.6,74.999999 -1.2,2.2 -2.4,4.3 -3.5,6.6 -25.9,49.7 -31.6,108.7 -35.1,165 -9.7,155.5 -4.8,312.8 14.7,467.4 2.5,19.6 5.1,36.9 12.9,49.8 11,18.1 36,28.7 58.2,24.6 23.3,-4.3 44.1,-24.2 49.4,-47.4 3.1,-13.5 1.9,-29.1 0.6,-45.6 -1.4,-18.9 -3,-40.3 1.8,-61.9 2.8,-12.4 13.6,-21.4 26.3,-21.9 h 0.9 c 0.4,0 0.7,0 1.1,0 22.6,0.1 134.9,-1.3 189.3,-5.8 0,0 -27.8,52.9 -73.1,59.7 -9.6,28 -2.3,62 18.4,79.9 11.4,9.8 28.2,14.8 44.9,13.2 15,-1.4 28.2,-7.9 36.1,-17.9 11.2,-14.1 15.5,-34.8 19.3,-56.6 16.2,-92.6 23.5,-186.7 22.2,-280.6 z m -482,-99.2 c 0.8,-20.2 1.8,-40.3 3,-60.4 -7,0.4 -13.8,0.4 -20.4,0.5 -22.000002,0.2 -35.900002,0.8 -42.500002,8.1 -6.7,7.3 -7.3,24.9 -7.7,36.5 -0.2,6.2 -0.4,12.4 -0.7,18.6 -2.3,67.2 -4.4,136.2 -2.6,203.8 0.8,31.7 4.1,63.3 21.9,79.8 13.3,12.3 33.400002,15.4 55.200002,14.8 -7.9,-100.3 -10,-201.2 -6.2,-301.7 z"
   id="path8"
   style="fill:#f74c00" /><path
   class="st2"
   d="m 640.65261,287.50726 c -2.6,19.5 -14.5,39.7 -32.9,54.7 -19.7,16.2 -46.3,27.6 -83.8,36 -42,9.5 -74.6,10.1 -102.5,2 -38.6,-11.2 -70.7,-41.7 -83.8,-79.6 -10.2,-29.4 -8.6,-63.1 4.2,-92.2 1.3,-3 3,-6 5.7,-9.2 7.1,-8 21.5,-16.6 57,-26.1 19.7,-5.3 39.8,-7.8 59.8,-7.8 46.2,0 91.5,13.7 128.2,39.9 39.5,28.1 47.3,55.7 48.4,69.7 0.4,4.1 0.3,8.4 -0.3,12.6 z"
   id="path10" /><path
   class="st3"
   d="m 133.65261,663.20726 c -21.8,0.6 -41.900002,-2.5 -55.200002,-14.8 -17.9,-16.5 -21.1,-48.1 -21.9,-79.8 -1.8,-67.6 0.3,-136.6 2.6,-203.8 20.2,-8.4 44.800002,-7.1 68.200002,-3.2 -3.8,100.4 -1.7,201.3 6.3,301.6 z m 475.7,-202.5 c -15.7,57.9 -56.6,109.2 -111.7,133 -72.2,31.3 -164.3,11.1 -214.2,-49.6 -32,-38.9 -45.6,-89.6 -54.4,-139.2 -15.4,-87.7 -18,-177.7 -7.7,-266.1 -25.8,49.7 -31.5,108.7 -35,165 -9.7,155.5 -4.8,312.8 14.7,467.4 2.5,19.6 5.1,36.9 12.9,49.8 11,18.1 36,28.7 58.2,24.6 23.3,-4.3 44.1,-24.2 49.4,-47.4 3.1,-13.5 1.9,-29.1 0.6,-45.6 -1.4,-18.9 -3,-40.3 1.8,-61.9 2.8,-12.4 13.6,-21.4 26.3,-21.9 h 0.9 c 0.4,0 0.7,0 1.1,0 22.6,0.1 134.9,-1.3 189.3,-5.8 0,0 -27.8,52.9 -73.1,59.7 -9.6,28 -2.3,62 18.4,79.9 11.4,9.8 28.2,14.8 44.9,13.2 15,-1.4 28.2,-7.9 36.1,-17.9 11.2,-14.1 15.5,-34.8 19.3,-56.6 16.2,-92.6 23.5,-186.7 22.2,-280.6 z"
   id="path12"
   style="fill:#a52b00;fill-opacity:1" /><path
   class="st4"
   d="m 640.65261,287.50726 c -2.6,19.5 -14.5,39.7 -32.9,54.7 -19.7,16.2 -46.3,27.6 -83.8,36 -42,9.5 -74.6,10.1 -102.5,2 -38.6,-11.2 -70.7,-41.7 -83.8,-79.6 -10.2,-29.4 -8.6,-63.1 4.2,-92.2 1.3,-3 3,-6 5.7,-9.2 7.4,11.1 13,40.2 18.1,48.8 10.8,17.9 26.2,33.3 44.1,44.2 37.8,23 84.3,28 128.2,22.4 35.3,-4.5 69.3,-15.2 102.7,-27.1 z"
   id="path14" /><path
   class="st5"
   d="m 463.35261,239.20726 c -7.1,-2.6 -13.4,-8.9 -13.7,-16.5 -0.3,-11 11.3,-18.3 21.7,-21.8 29.4,-9.9 62.4,-8.8 91.1,3 8.2,3.4 17,9 17.8,17.8 0.9,9.8 -9.3,17.6 -19.2,18.6 -9.8,1 -19.5,-2.4 -29.2,-4 -22.5,-3.7 -45.3,11.3 -68.5,2.9 z"
   id="path16" />
<g
   transform="translate(538.43228,314.18546)"
   id="g17017"
   style="clip-rule:evenodd;fill:#000000;fill-opacity:0.75;fill-rule:evenodd;stroke-linejoin:round;stroke-miterlimit:1.41421"><path
     d="m 0,-78.192 c 0,0 36.935,-40.443 73.871,0 0,0 29.022,53.927 0,80.887 0,0 -47.487,37.748 -73.871,0 0,0 -31.658,-29.659 0,-80.887"
     style="fill:#000000;fill-opacity:0.75;fill-rule:nonzero"
     id="path17015" /></g><g
   transform="translate(565.19628,246.99346)"
   id="g17021"
   style="clip-rule:evenodd;fill:#ffffff;fill-opacity:0.75;fill-rule:evenodd;stroke-linejoin:round;stroke-miterlimit:1.41421"><path
     d="m 30,0.004 c 0,15.746 -9.282,28.514 -20.732,28.514 -11.448,0 -20.73,-12.768 -20.73,-28.514 0,-15.75 9.282,-28.518 20.73,-28.518 11.45,0 20.732,12.768 20.732,28.518"
     style="fill:#ffffff;fill-opacity:0.75;fill-rule:nonzero"
     id="path17019" /></g><g
   transform="translate(373.58328,308.56046)"
   id="g17025"
   style="clip-rule:evenodd;fill:#000000;fill-opacity:0.5;fill-rule:evenodd;stroke-linejoin:round;stroke-miterlimit:1.41421"><path
     d="m 0,-83.609 c 0,0 63.355,-28.052 80.648,34.562 0,0 18.114,72.98 -52.03,77.099 0,0 -89.444,-17.228 -28.618,-111.661"
     style="fill:#000000;fill-opacity:0.75;fill-rule:nonzero"
     id="path17023" /></g><g
   transform="translate(427.40328,248.02846)"
   id="g17029"
   style="clip-rule:evenodd;fill:#ffffff;fill-opacity:0.75;fill-rule:evenodd;stroke-linejoin:round;stroke-miterlimit:1.41421"><path
     d="m 0,0.002 c 0,16.239 -9.572,29.409 -21.381,29.409 -11.804,0 -21.379,-13.17 -21.379,-29.409 0,-16.244 9.575,-29.411 21.379,-29.411 C -9.572,-29.409 0,-16.242 0,0.002"
     style="fill:#ffffff;fill-opacity:0.75;fill-rule:nonzero"
     id="path17027" /></g><path
   stroke-width="7.61163"
   id="path218"
   d="m 659.69772,617.88455 c 0,0 -18.54193,-1.27113 -23.35247,-13.64002 -4.91712,-12.6277 4.73443,-17.57525 4.73443,-17.57525 0,0 -14.56865,0.44907 -19.95769,-14.77417 -5.08456,-14.34791 7.29195,-20.93197 7.29195,-20.93197 0,0 -14.24136,-2.33677 -18.3973,-17.44585 -3.50135,-12.71903 8.87514,-22.1955 8.87514,-22.1955 h -92.92273 c -7.29954,0 -19.59993,-4.12551 -19.60754,-19.35636 -0.0153,-15.22326 12.62769,-18.70177 19.60754,-18.70177 h 156.03833 c 7.61164,0 7.61164,-7.61163 0,-7.61163 H 661.7148 c -28.86329,0 -46.75822,-15.5125 -51.69816,-20.93958 -4.94756,-5.42709 -7.4594,-12.68858 -5.58694,-21.46479 3.15883,-14.88833 14.61432,-11.63816 24.33437,-7.42134 23.42859,10.17675 56.81318,17.15661 72.59968,19.28026 44.58891,6.0208 78.97063,44.21593 79.01629,90.45656 0.0304,50.43463 -40.3264,92.28335 -90.76102,92.32141 z"
   fill="#ffdc5d"
   style="stroke:#000000;stroke-width:10;stroke-dasharray:none;stroke-opacity:1" /><path
   clip-rule="evenodd"
   fill-rule="evenodd"
   stroke-width="7.61163"
   stroke-linejoin="round"
   stroke-miterlimit="1.41421"
   id="path218-4"
   d="m 342.42588,617.88455 c 0,0 18.54193,-1.27113 23.35247,-13.64002 4.91712,-12.6277 -4.73443,-17.57525 -4.73443,-17.57525 0,0 14.56865,0.44907 19.95769,-14.77417 5.08456,-14.34791 -7.29194,-20.93197 -7.29194,-20.93197 0,0 14.24135,-2.33677 18.39729,-17.44585 3.50135,-12.71903 -8.87514,-22.1955 -8.87514,-22.1955 h 92.92272 c 7.29954,0 19.59993,-4.12551 19.60754,-19.35636 0.0153,-15.22326 -12.62769,-18.70177 -19.60754,-18.70177 H 320.11622 c -7.61164,0 -7.61164,-7.61163 0,-7.61163 h 20.29258 c 28.86329,0 46.75822,-15.5125 51.69816,-20.93958 4.94757,-5.42709 7.4594,-12.68858 5.58694,-21.46479 -3.15883,-14.88833 -14.61432,-11.63816 -24.33437,-7.42134 -23.42859,10.17675 -56.81318,17.15661 -72.59968,19.28026 -44.58891,6.0208 -78.97063,44.21593 -79.01629,90.45656 -0.0304,50.43463 40.3264,92.28335 90.76102,92.32141 z"
   fill="#ffdc5d"
   style="stroke:#000000;stroke-width:10;stroke-dasharray:none;stroke-opacity:1" /></svg>
