<?xml version="1.0" encoding="UTF-8" standalone="no"?>
<svg
   width="512"
   height="512"
   viewBox="0 0 512 512"
   version="1.1"
   xml:space="preserve"
   style="clip-rule:evenodd;fill-rule:evenodd;stroke-linejoin:round;stroke-miterlimit:1.41421"
   id="svg92"
   sodipodi:docname="ferrisForgor.svg"
   inkscape:version="1.1.1 (1:1.1+202109281949+c3084ef5ed)"
   inkscape:export-filename="/media/federico/Elements/Imágenes/ferrisForgor.png"
   inkscape:export-xdpi="512.06256"
   inkscape:export-ydpi="512.06256"
   xmlns:inkscape="http://www.inkscape.org/namespaces/inkscape"
   xmlns:sodipodi="http://sodipodi.sourceforge.net/DTD/sodipodi-0.dtd"
   xmlns="http://www.w3.org/2000/svg"
   xmlns:svg="http://www.w3.org/2000/svg"
   xmlns:rdf="http://www.w3.org/1999/02/22-rdf-syntax-ns#"
   xmlns:cc="http://creativecommons.org/ns#"
   xmlns:dc="http://purl.org/dc/elements/1.1/"><metadata
   id="metadata98"><rdf:RDF><cc:Work
       rdf:about=""><dc:format>image/svg+xml</dc:format><dc:type
         rdf:resource="http://purl.org/dc/dcmitype/StillImage" /></cc:Work></rdf:RDF></metadata><defs
   id="defs96">
        
        
        
        
        
        
        
        
        
    
            
        </defs><sodipodi:namedview
   pagecolor="#ffffff"
   bordercolor="#666666"
   borderopacity="1"
   objecttolerance="10"
   gridtolerance="10"
   guidetolerance="10"
   inkscape:pageopacity="0"
   inkscape:pageshadow="2"
   inkscape:window-width="1920"
   inkscape:window-height="1007"
   id="namedview94"
   showgrid="false"
   inkscape:snap-bbox="true"
   inkscape:bbox-paths="true"
   inkscape:bbox-nodes="true"
   inkscape:snap-bbox-edge-midpoints="true"
   inkscape:snap-bbox-midpoints="true"
   inkscape:object-paths="true"
   inkscape:snap-intersection-paths="true"
   inkscape:snap-smooth-nodes="true"
   inkscape:snap-midpoints="true"
   inkscape:snap-object-midpoints="true"
   inkscape:snap-center="true"
   inkscape:snap-text-baseline="true"
   inkscape:zoom="0.2609375"
   inkscape:cx="1209.1018"
   inkscape:cy="827.78443"
   inkscape:window-x="0"
   inkscape:window-y="0"
   inkscape:window-maximized="1"
   inkscape:current-layer="svg92"
   inkscape:document-rotation="0"
   fit-margin-top="0"
   fit-margin-left="0"
   fit-margin-right="0"
   fit-margin-bottom="0"
   inkscape:pagecheckerboard="0" />
    
<path
   d="m 598.15373,341.68266 -10.356,-21.45147 c 0.054,-0.81239 0.0952,-1.62821 0.0952,-2.44746 0,-24.3167 -25.2878,-46.72811 -67.82959,-64.67268 v 14.92063 c -4.14858,-1.64622 -8.46787,-3.24869 -12.96817,-4.79797 v -6.95547 c -60.79948,-21.92673 -151.3107,-35.83939 -252.41556,-35.83939 -88.3357,0 -168.593011,10.62022 -228.009634,27.92655 v 24.23092 h -0.0017 v -29.32828 c -60.873258,19.34459 -98.613648,46.21855 -98.613648,75.93287 0,4.68388 0.944496,9.29741 2.759714,13.82258 l -6.200563,11.038 c 0,0 -4.968685,6.44419 3.779701,20.04117 7.715531,11.99021 46.365246,58.92164 66.7641349,83.49913 8.7621117,12.59929 -21.6302599,24.42657 -21.1112589,23.67595 0.819249,-1.18899 30.8864952,-28.91057 13.485802,-55.90035 -8.120437,-14.49342 -17.815893,-33.69904 -23.637284,-47.8845 16.249453,10.28566 111.718211,58.35889 306.452576,58.1633 199.01678,-0.19902 287.47945,-62.49546 297.18863,-70.97619 -3.3928,13.63042 -14.98497,41.20526 -24.23006,60.59703 -15.18913,27.73524 -20.69141,51.88124 -19.98454,53.07537 0.44951,0.75319 5.6318,-7.24114 13.27613,-20.19644 17.78415,-25.34355 51.48577,-73.72304 58.21992,-86.04696 7.63146,-13.97013 3.33619,-20.42634 3.33619,-20.42634"
   style="fill:#aeb0b2;fill-opacity:1;fill-rule:nonzero;stroke-width:0.857853"
   id="path55"
   sodipodi:nodetypes="ccsccccsccccscccccccccccccc" /><g
   transform="matrix(0.85785312,0,0,0.85785312,658.28065,178.44558)"
   id="g61"
   style="fill:#ccd6dd">
            <path
   d="m 0,204.135 -79.343,-58.446 c -0.745,-2.6 -1.49,-5.201 -2.26,-7.781 l 26.062,-37.754 c 2.66,-3.84 3.196,-8.832 1.469,-13.211 -1.731,-4.358 -5.515,-7.482 -9.99,-8.247 l -44.066,-7.479 c -1.709,-3.485 -3.498,-6.916 -5.294,-10.319 L -94.907,18.51 c 1.903,-4.317 1.505,-9.335 -1.022,-13.254 -2.517,-3.937 -6.786,-6.237 -11.338,-6.058 l -44.724,1.625 c -2.315,-3.016 -4.667,-6.003 -7.067,-8.937 l 10.278,-45.432 c 1.042,-4.612 -0.274,-9.443 -3.487,-12.794 -3.195,-3.339 -7.838,-4.722 -12.253,-3.639 l -43.562,10.709 c -2.82,-2.493 -5.688,-4.953 -8.588,-7.365 l 1.567,-46.641 c 0.168,-4.721 -2.033,-9.208 -5.812,-11.829 -3.777,-2.636 -8.57,-3.032 -12.701,-1.074 l -40.638,19.321 c -3.273,-1.878 -6.565,-3.737 -9.892,-5.537 l -7.181,-45.961 c -0.729,-4.656 -3.724,-8.612 -7.919,-10.418 -4.185,-1.817 -8.976,-1.228 -12.648,1.536 l -36.232,27.185 c -3.569,-1.185 -7.153,-2.32 -10.779,-3.407 l -15.617,-43.585 c -1.588,-4.443 -5.25,-7.706 -9.716,-8.624 -4.45,-0.909 -9.028,0.632 -12.114,4.08 l -30.499,34.119 c -3.685,-0.423 -7.377,-0.81 -11.076,-1.131 l -23.549,-39.676 c -2.384,-4.018 -6.597,-6.464 -11.139,-6.464 -4.529,0 -8.75,2.446 -11.118,6.464 l -23.555,39.676 c -3.701,0.321 -7.408,0.708 -11.088,1.131 l -30.499,-34.119 c -3.09,-3.448 -7.684,-4.989 -12.122,-4.08 -4.46,0.93 -8.128,4.181 -9.707,8.624 l -15.629,43.585 c -3.621,1.087 -7.205,2.23 -10.78,3.407 l -36.22,-27.185 c -3.683,-2.774 -8.478,-3.361 -12.668,-1.536 -4.181,1.806 -7.188,5.762 -7.913,10.418 l -7.186,45.961 c -3.322,1.8 -6.614,3.649 -9.895,5.537 l -40.634,-19.321 c -4.127,-1.966 -8.945,-1.562 -12.704,1.074 -3.773,2.621 -5.98,7.108 -5.81,11.829 l 1.562,46.641 c -2.894,2.412 -5.756,4.872 -8.591,7.365 l -43.554,-10.709 c -4.423,-1.074 -9.062,0.3 -12.265,3.639 -3.221,3.351 -4.526,8.182 -3.491,12.794 l 10.257,45.432 c -2.378,2.945 -4.733,5.921 -7.042,8.937 l -44.724,-1.625 c -4.513,-0.135 -8.821,2.121 -11.343,6.058 -2.527,3.919 -2.91,8.937 -1.029,13.254 l 18.528,42.388 c -1.799,3.403 -3.586,6.834 -5.309,10.319 l -44.063,7.479 c -4.479,0.754 -8.252,3.876 -9.994,8.247 -1.728,4.379 -1.167,9.371 1.474,13.211 l 26.066,37.754 c -0.201,0.667 -0.387,1.339 -0.587,2.008 l -73.696,78.285 c 0,0 -11.296,8.851 5.147,29.654 14.5,18.351 88.951,91.096 128.271,129.205 16.606,19.348 27.984,31.329 29.172,30.293 1.876,-1.645 -7.972,-36.847 -40.682,-78.149 -25.216,-37.056 -57.941,-94.049 -50.267,-100.618 0,0 8.729,-11.081 26.242,-19.057 0.641,0.512 -0.662,-0.507 0,0 0,0 369.595,170.491 712.429,2.884 39.164,-7.025 62.873,13.955 62.873,13.955 8.176,4.74 -12.996,63.344 -30.407,102.137 -23.679,44.05 -27.151,78.422 -25.144,79.614 1.268,0.757 9.883,-12.353 22.172,-33.217 C -67.814,332.649 -10.492,252.1 0,232.534 11.895,210.352 0,204.135 0,204.135"
   style="fill:#ccd6dd;fill-rule:nonzero"
   id="path59" />
        </g><rect
   style="fill:#ffffff;stroke:#ffffff"
   id="rect1244"
   width="123.36309"
   height="511.55252"
   x="-123.86309"
   y="-23.77626" /><rect
   style="clip-rule:evenodd;fill:#ffffff;fill-rule:evenodd;stroke:#ffffff;stroke-linejoin:round;stroke-miterlimit:1.41421"
   id="rect1244-3"
   width="123.36309"
   height="511.55252"
   x="512.5"
   y="0.22373962" /><path
   fill="#ccd6dd"
   d="m 464.92258,248.19545 c 0,-130.19152 -93.2562,-208.3064 -208.30641,-208.3064 -115.03719,0 -208.306382,78.11488 -208.306382,208.3064 0,72.56873 0.0261,135.24291 78.114892,164.56204 v 56.76349 c 0,21.57273 17.48472,39.05745 39.05745,39.05745 21.57275,0 39.05745,-17.48472 39.05745,-39.05745 v -41.07541 c 4.2182,0.35152 8.57963,0.65095 13.01915,0.91133 v 40.16408 c 0,21.57273 17.48473,39.05745 39.05745,39.05745 21.57273,0 39.05745,-17.48472 39.05745,-39.05745 V 429.3569 c 4.45255,-0.2734 8.80095,-0.55981 13.01916,-0.91133 v 41.07541 c 0,21.57273 17.49774,39.05745 39.05745,39.05745 21.57273,0 39.05745,-17.48472 39.05745,-39.05745 v -56.76349 c 78.08889,-29.31913 78.11489,-91.99331 78.11489,-164.56204 z"
   id="path1190"
   style="stroke-width:13.0192" /><circle
   fill="#292f33"
   cx="156.69025"
   cy="203.73019"
   r="71.375664"
   id="circle1192"
   style="stroke-width:14.2751" /><circle
   fill="#292f33"
   cx="356.54211"
   cy="203.73019"
   r="71.375664"
   id="circle1194"
   style="stroke-width:14.2751" /><path
   fill="#292f33"
   d="m 283.78155,333.09145 c -3.59733,-8.75066 -14.31795,-15.1602 -27.16558,-15.1602 -12.84763,0 -23.58253,6.40954 -27.16559,15.1602 -9.02187,2.51241 -15.65982,10.70634 -15.65982,20.52763 0,11.81981 9.57862,21.4127 21.41271,21.4127 9.35021,0 17.2158,-6.02411 20.12793,-14.37507 0.42826,0.0143 0.84224,0.1 1.28477,0.1 0.44253,0 0.8565,-0.0857 1.28477,-0.1 2.9264,8.35096 10.79199,14.37507 20.12793,14.37507 11.81981,0 21.4127,-9.59289 21.4127,-21.4127 0,-9.82129 -6.6522,-18.00094 -15.65982,-20.52763 z"
   id="path1196"
   style="stroke-width:14.2751" /></svg>
