<?xml version="1.0" encoding="UTF-8" standalone="no"?>
<svg
   width="512"
   height="512"
   viewBox="0 0 512 512"
   version="1.1"
   xml:space="preserve"
   style="clip-rule:evenodd;fill-rule:evenodd;stroke-linejoin:round;stroke-miterlimit:1.41421"
   id="svg92"
   sodipodi:docname="ferrisTriumph.svg"
   inkscape:version="1.1 (c4e8f9ed74, 2021-05-24)"
   inkscape:export-filename="/run/media/fdschonborn/Elements/Imágenes/ferrisTriumph.png"
   inkscape:export-xdpi="96"
   inkscape:export-ydpi="96"
   xmlns:inkscape="http://www.inkscape.org/namespaces/inkscape"
   xmlns:sodipodi="http://sodipodi.sourceforge.net/DTD/sodipodi-0.dtd"
   xmlns="http://www.w3.org/2000/svg"
   xmlns:svg="http://www.w3.org/2000/svg"
   xmlns:rdf="http://www.w3.org/1999/02/22-rdf-syntax-ns#"
   xmlns:cc="http://creativecommons.org/ns#"
   xmlns:dc="http://purl.org/dc/elements/1.1/"><metadata
   id="metadata98"><rdf:RDF><cc:Work
       rdf:about=""><dc:format>image/svg+xml</dc:format><dc:type
         rdf:resource="http://purl.org/dc/dcmitype/StillImage" /></cc:Work></rdf:RDF></metadata><defs
   id="defs96">
        
        
        
        
        
        
        
        
        
    </defs><sodipodi:namedview
   pagecolor="#ffffff"
   bordercolor="#666666"
   borderopacity="1"
   objecttolerance="10"
   gridtolerance="10"
   guidetolerance="10"
   inkscape:pageopacity="0"
   inkscape:pageshadow="2"
   inkscape:window-width="1920"
   inkscape:window-height="1011"
   id="namedview94"
   showgrid="false"
   inkscape:snap-bbox="true"
   inkscape:bbox-paths="true"
   inkscape:bbox-nodes="true"
   inkscape:snap-bbox-edge-midpoints="true"
   inkscape:snap-bbox-midpoints="true"
   inkscape:object-paths="true"
   inkscape:snap-intersection-paths="true"
   inkscape:snap-smooth-nodes="true"
   inkscape:snap-midpoints="true"
   inkscape:snap-object-midpoints="true"
   inkscape:snap-center="true"
   inkscape:snap-text-baseline="true"
   inkscape:zoom="1.04375"
   inkscape:cx="386.58683"
   inkscape:cy="245.26946"
   inkscape:window-x="0"
   inkscape:window-y="0"
   inkscape:window-maximized="1"
   inkscape:current-layer="svg92"
   inkscape:document-rotation="0"
   fit-margin-top="0"
   fit-margin-left="0"
   fit-margin-right="0"
   fit-margin-bottom="0"
   inkscape:pagecheckerboard="0" />
    
<g
   transform="matrix(0.85785312,0,0,0.85785312,598.15373,371.86178)"
   id="g57">
            <path
   d="m 0,-7.203 -12.072,-25.006 c 0.063,-0.947 0.111,-1.898 0.111,-2.853 0,-28.346 -29.478,-54.471 -79.069,-75.389 v 17.393 c -4.836,-1.919 -9.871,-3.787 -15.117,-5.593 v -8.108 c -70.874,-25.56 -176.383,-41.778 -294.241,-41.778 -102.973,0 -196.529,12.38 -265.791,32.554 v 28.246 h -0.002 v -34.188 c -70.96,22.55 -114.954,53.877 -114.954,88.515 0,5.46 1.101,10.838 3.217,16.113 l -7.228,12.867 c 0,0 -5.792,7.512 4.406,23.362 8.994,13.977 54.048,68.685 77.827,97.335 10.214,14.687 -25.21441,28.47407 -24.60941,27.59907 0.955,-1.386 36.00441,-33.70107 15.72041,-65.16307 -9.466,-16.895 -20.768,-39.283 -27.554,-55.819 18.942,11.99 130.23,68.029 357.232,67.801 231.994,-0.232 335.115,-72.851 346.433,-82.737 -3.955,15.889 -17.468,48.033 -28.245,70.638 -17.706,32.331 -24.12,60.478 -23.296,61.87 0.524,0.878 6.565,-8.441 15.476,-23.543 C -51.025,87.37 -11.739,30.974 -3.889,16.608 5.007,0.323 0,-7.203 0,-7.203"
   style="fill:#a52b00;fill-rule:nonzero"
   id="path55"
   sodipodi:nodetypes="ccsccccsccccscccccccccccccc" />
        </g><g
   transform="matrix(0.85785312,0,0,0.85785312,658.28065,190.44558)"
   id="g61">
            <path
   d="m 0,204.135 -79.343,-58.446 c -0.745,-2.6 -1.49,-5.201 -2.26,-7.781 l 26.062,-37.754 c 2.66,-3.84 3.196,-8.832 1.469,-13.211 -1.731,-4.358 -5.515,-7.482 -9.99,-8.247 l -44.066,-7.479 c -1.709,-3.485 -3.498,-6.916 -5.294,-10.319 L -94.907,18.51 c 1.903,-4.317 1.505,-9.335 -1.022,-13.254 -2.517,-3.937 -6.786,-6.237 -11.338,-6.058 l -44.724,1.625 c -2.315,-3.016 -4.667,-6.003 -7.067,-8.937 l 10.278,-45.432 c 1.042,-4.612 -0.274,-9.443 -3.487,-12.794 -3.195,-3.339 -7.838,-4.722 -12.253,-3.639 l -43.562,10.709 c -2.82,-2.493 -5.688,-4.953 -8.588,-7.365 l 1.567,-46.641 c 0.168,-4.721 -2.033,-9.208 -5.812,-11.829 -3.777,-2.636 -8.57,-3.032 -12.701,-1.074 l -40.638,19.321 c -3.273,-1.878 -6.565,-3.737 -9.892,-5.537 l -7.181,-45.961 c -0.729,-4.656 -3.724,-8.612 -7.919,-10.418 -4.185,-1.817 -8.976,-1.228 -12.648,1.536 l -36.232,27.185 c -3.569,-1.185 -7.153,-2.32 -10.779,-3.407 l -15.617,-43.585 c -1.588,-4.443 -5.25,-7.706 -9.716,-8.624 -4.45,-0.909 -9.028,0.632 -12.114,4.08 l -30.499,34.119 c -3.685,-0.423 -7.377,-0.81 -11.076,-1.131 l -23.549,-39.676 c -2.384,-4.018 -6.597,-6.464 -11.139,-6.464 -4.529,0 -8.75,2.446 -11.118,6.464 l -23.555,39.676 c -3.701,0.321 -7.408,0.708 -11.088,1.131 l -30.499,-34.119 c -3.09,-3.448 -7.684,-4.989 -12.122,-4.08 -4.46,0.93 -8.128,4.181 -9.707,8.624 l -15.629,43.585 c -3.621,1.087 -7.205,2.23 -10.78,3.407 l -36.22,-27.185 c -3.683,-2.774 -8.478,-3.361 -12.668,-1.536 -4.181,1.806 -7.188,5.762 -7.913,10.418 l -7.186,45.961 c -3.322,1.8 -6.614,3.649 -9.895,5.537 l -40.634,-19.321 c -4.127,-1.966 -8.945,-1.562 -12.704,1.074 -3.773,2.621 -5.98,7.108 -5.81,11.829 l 1.562,46.641 c -2.894,2.412 -5.756,4.872 -8.591,7.365 l -43.554,-10.709 c -4.423,-1.074 -9.062,0.3 -12.265,3.639 -3.221,3.351 -4.526,8.182 -3.491,12.794 l 10.257,45.432 c -2.378,2.945 -4.733,5.921 -7.042,8.937 l -44.724,-1.625 c -4.513,-0.135 -8.821,2.121 -11.343,6.058 -2.527,3.919 -2.91,8.937 -1.029,13.254 l 18.528,42.388 c -1.799,3.403 -3.586,6.834 -5.309,10.319 l -44.063,7.479 c -4.479,0.754 -8.252,3.876 -9.994,8.247 -1.728,4.379 -1.167,9.371 1.474,13.211 l 26.066,37.754 c -0.201,0.667 -0.387,1.339 -0.587,2.008 l -73.696,78.285 c 0,0 -11.296,8.851 5.147,29.654 14.5,18.351 88.951,91.096 128.271,129.205 16.606,19.348 27.984,31.329 29.172,30.293 1.876,-1.645 -7.972,-36.847 -40.682,-78.149 -25.216,-37.056 -57.941,-94.049 -50.267,-100.618 0,0 8.729,-11.081 26.242,-19.057 0.641,0.512 -0.662,-0.507 0,0 0,0 369.595,170.491 712.429,2.884 39.164,-7.025 62.873,13.955 62.873,13.955 8.176,4.74 -12.996,63.344 -30.407,102.137 -23.679,44.05 -27.151,78.422 -25.144,79.614 1.268,0.757 9.883,-12.353 22.172,-33.217 C -67.814,332.649 -10.492,252.1 0,232.534 11.895,210.352 0,204.135 0,204.135"
   style="fill:#f74c00;fill-rule:nonzero"
   id="path59" />
        </g><rect
   style="fill:#ffffff;stroke:#ffffff"
   id="rect1244"
   width="123.36309"
   height="511.55252"
   x="-123.86309"
   y="0.22373962" /><rect
   style="clip-rule:evenodd;fill:#ffffff;fill-rule:evenodd;stroke:#ffffff;stroke-linejoin:round;stroke-miterlimit:1.41421"
   id="rect1244-3"
   width="123.36309"
   height="511.55252"
   x="512.5"
   y="0.22373962" /><path
   fill="#664500"
   d="m 281.74179,196.2502 c -0.76329,0 -1.51272,-0.0555 -2.2899,-0.1943 -7.56363,-1.26291 -12.6708,-8.41018 -11.40788,-15.97381 5.45414,-32.80808 35.66698,-94.857513 110.83131,-94.857513 7.67465,0 13.87821,6.217435 13.87821,13.878203 0,7.66077 -6.20356,13.8782 -13.87821,13.8782 -70.70943,0 -82.97776,68.75262 -83.4635,71.68092 -1.12414,6.77256 -7.00849,11.5883 -13.67003,11.5883 z m -55.54056,0 c -6.64766,0 -12.51814,-4.78798 -13.67003,-11.56055 -0.51349,-2.91442 -13.25369,-71.70867 -83.4635,-71.70867 -7.66078,0 -13.87821,-6.21743 -13.87821,-13.8782 0,-7.660768 6.21743,-13.878203 13.87821,-13.878203 75.16433,0 105.3633,62.049433 110.83131,94.857513 1.26292,7.56363 -3.84425,14.7109 -11.40788,15.97381 -0.7633,0.13879 -1.54048,0.1943 -2.2899,0.1943 z m -63.68707,67.89217 c -32.40561,0 -53.70864,-13.83658 -55.0132,-14.71091 -6.37009,-4.24672 -8.090989,-12.86509 -3.84425,-19.24907 4.24672,-6.38396 12.85121,-8.11874 19.24905,-3.84425 1.37395,0.88821 36.11109,22.70473 83.24146,-0.86045 6.86971,-3.42792 15.19663,-0.6384 18.62455,6.20355 3.42792,6.85584 0.65228,15.19664 -6.20354,18.62455 -20.74793,10.35315 -39.8027,13.83658 -56.05407,13.83658 z m 182.92858,0 c -16.26525,0 -35.32002,-3.48343 -56.04018,-13.85045 -6.85583,-3.42792 -9.63147,-11.76872 -6.20356,-18.62455 3.4418,-6.85584 11.76872,-9.63148 18.62455,-6.20356 47.18589,23.59295 81.86752,1.74865 83.32473,0.81882 6.38397,-4.13571 15.00234,-2.3593 19.17967,4.01079 4.19122,6.3701 2.48419,14.90519 -3.85814,19.13804 -1.33231,0.87433 -22.63534,14.71091 -55.02707,14.71091 z m 19.56827,126.40265 c -4.23286,0 -8.38244,-1.91519 -11.11645,-5.55127 -0.34694,-0.47187 -38.60915,-49.96154 -99.92305,-49.96154 -61.30002,0 -99.56222,49.48967 -99.95081,50.00317 -4.62145,6.07865 -13.33696,7.28606 -19.42948,2.69236 -6.10641,-4.60755 -7.34158,-13.26755 -2.74789,-19.38784 1.87356,-2.49808 46.65852,-61.06408 122.12818,-61.06408 75.46966,0 120.25462,58.57988 122.12818,61.06408 4.60756,6.12029 3.35852,14.82192 -2.77564,19.41561 -2.49808,1.88743 -5.4125,2.78951 -8.31304,2.78951 z"
   id="path279"
   style="stroke-width:13.8781;fill:#000000" /><path
   fill="#f5f8fa"
   d="m 217.76328,286.50787 c -6.28682,-2.70626 -13.58677,-0.37472 -17.1951,5.41249 l -69.39101,111.02562 c -2.66461,4.28836 -2.81727,9.6731 -0.36082,14.08638 2.44256,4.41326 7.07788,7.14727 12.12954,7.14727 h 41.63461 c 6.3701,0 11.92137,-4.32999 13.46185,-10.51968 l 27.75641,-111.02561 c 1.65151,-6.60603 -1.74865,-13.46186 -8.03548,-16.12647 z M 376.76585,402.94598 307.37484,291.92036 c -3.6361,-5.80108 -10.92215,-8.10486 -17.18122,-5.41249 -6.28683,2.66461 -9.70087,9.52044 -8.03548,16.12647 l 27.7564,111.02561 c 1.54048,6.18969 7.07788,10.51968 13.44798,10.51968 h 41.63461 c 5.03778,0 9.68698,-2.73401 12.14342,-7.16116 2.44257,-4.39939 2.30378,-9.798 -0.3747,-14.07249 z"
   id="path281"
   style="stroke-width:13.8781" /><path
   fill="#e1e8ed"
   d="m 448.01653,426.64995 c 0.0416,-0.83269 0.2498,-1.62375 0.2498,-2.47032 0,-22.98231 -18.6523,-41.63461 -41.6346,-41.63461 -14.25291,0 -26.81269,7.18891 -34.32079,18.11106 -6.52276,-2.70625 -13.68391,-4.23286 -21.19201,-4.23286 -30.65695,0 -55.51281,24.85586 -55.51281,55.51281 0,30.65695 24.85586,55.5128 55.51281,55.5128 18.94374,0 35.63922,-9.53431 45.65928,-24.02316 6.66153,14.15577 20.92833,24.02316 37.60992,24.02316 22.99618,0 41.63461,-18.63841 41.63461,-41.63459 0,-18.20821 -11.74095,-33.50199 -28.00621,-39.16429 z M 156.82409,396.42322 c -7.52198,0 -14.65537,1.52661 -21.19201,4.23286 -7.5081,-10.92215 -20.06788,-18.11106 -34.32079,-18.11106 -22.982298,0 -41.634605,18.6523 -41.634605,41.63461 0,0.84657 0.194293,1.63763 0.249812,2.47032 -16.265262,5.6623 -28.006215,20.95608 -28.006215,39.16429 0,22.99618 18.638423,41.63459 41.634609,41.63459 16.681593,0 30.962259,-9.86739 37.596039,-24.02316 10.03394,14.48885 26.71554,24.02316 45.67316,24.02316 30.65695,0 55.51281,-24.85585 55.51281,-55.5128 0,-30.65695 -24.85586,-55.51281 -55.51281,-55.51281 z"
   id="path283"
   style="stroke-width:13.8781" /></svg>
