<?xml version="1.0" encoding="UTF-8" standalone="no"?>
<svg
   width="512"
   height="512"
   viewBox="0 0 512 512"
   version="1.1"
   xml:space="preserve"
   style="clip-rule:evenodd;fill-rule:evenodd;stroke-linejoin:round;stroke-miterlimit:1.41421"
   id="svg92"
   sodipodi:docname="ferrisChefKiss.svg"
   inkscape:version="1.1.2 (1:1.1+202202050950+0a00cf5339)"
   inkscape:export-filename="/home/federico/Git/discord-emoji/Samples/ferrisChefKissB.png"
   inkscape:export-xdpi="6"
   inkscape:export-ydpi="6"
   xmlns:inkscape="http://www.inkscape.org/namespaces/inkscape"
   xmlns:sodipodi="http://sodipodi.sourceforge.net/DTD/sodipodi-0.dtd"
   xmlns="http://www.w3.org/2000/svg"
   xmlns:svg="http://www.w3.org/2000/svg"
   xmlns:rdf="http://www.w3.org/1999/02/22-rdf-syntax-ns#"
   xmlns:cc="http://creativecommons.org/ns#"
   xmlns:dc="http://purl.org/dc/elements/1.1/"><metadata
   id="metadata98"><rdf:RDF><cc:Work
       rdf:about=""><dc:format>image/svg+xml</dc:format><dc:type
         rdf:resource="http://purl.org/dc/dcmitype/StillImage" /></cc:Work></rdf:RDF></metadata><defs
   id="defs96">
        
        
        
        
        
        
        
        
        
    <mask
   maskUnits="userSpaceOnUse"
   id="mask2980"><rect
     style="fill:#ffffff;stroke:#ffffff;stroke-width:2.36643"
     id="rect2982"
     width="594.47235"
     height="594.47235"
     x="-766.17499"
     y="-220.81934" /></mask></defs><sodipodi:namedview
   pagecolor="#ffffff"
   bordercolor="#666666"
   borderopacity="1"
   objecttolerance="10"
   gridtolerance="10"
   guidetolerance="10"
   inkscape:pageopacity="0"
   inkscape:pageshadow="2"
   inkscape:window-width="1920"
   inkscape:window-height="1051"
   id="namedview94"
   showgrid="false"
   inkscape:snap-bbox="true"
   inkscape:bbox-paths="true"
   inkscape:bbox-nodes="true"
   inkscape:snap-bbox-edge-midpoints="true"
   inkscape:snap-bbox-midpoints="true"
   inkscape:object-paths="true"
   inkscape:snap-intersection-paths="true"
   inkscape:snap-smooth-nodes="true"
   inkscape:snap-midpoints="true"
   inkscape:snap-object-midpoints="true"
   inkscape:snap-center="true"
   inkscape:snap-text-baseline="true"
   inkscape:zoom="1.04375"
   inkscape:cx="364.07186"
   inkscape:cy="407.18563"
   inkscape:window-x="0"
   inkscape:window-y="0"
   inkscape:window-maximized="1"
   inkscape:current-layer="svg92"
   inkscape:document-rotation="0"
   fit-margin-top="0"
   fit-margin-left="0"
   fit-margin-right="0"
   fit-margin-bottom="0"
   inkscape:pagecheckerboard="0"
   inkscape:snap-global="false" />
    
<g
   transform="matrix(0.85785312,0,0,0.85785312,658.28065,254.44558)"
   id="g61"
   mask="url(#mask2980)">
            <path
   d="m 0,204.135 -79.343,-58.446 c -0.745,-2.6 -1.49,-5.201 -2.26,-7.781 l 26.062,-37.754 c 2.66,-3.84 3.196,-8.832 1.469,-13.211 -1.731,-4.358 -5.515,-7.482 -9.99,-8.247 l -44.066,-7.479 c -1.709,-3.485 -3.498,-6.916 -5.294,-10.319 L -94.907,18.51 c 1.903,-4.317 1.505,-9.335 -1.022,-13.254 -2.517,-3.937 -6.786,-6.237 -11.338,-6.058 l -44.724,1.625 c -2.315,-3.016 -4.667,-6.003 -7.067,-8.937 l 10.278,-45.432 c 1.042,-4.612 -0.274,-9.443 -3.487,-12.794 -3.195,-3.339 -7.838,-4.722 -12.253,-3.639 l -43.562,10.709 c -2.82,-2.493 -5.688,-4.953 -8.588,-7.365 l 1.567,-46.641 c 0.168,-4.721 -2.033,-9.208 -5.812,-11.829 -3.777,-2.636 -8.57,-3.032 -12.701,-1.074 l -40.638,19.321 c -3.273,-1.878 -6.565,-3.737 -9.892,-5.537 l -7.181,-45.961 c -0.729,-4.656 -3.724,-8.612 -7.919,-10.418 -4.185,-1.817 -8.976,-1.228 -12.648,1.536 l -36.232,27.185 c -3.569,-1.185 -7.153,-2.32 -10.779,-3.407 l -15.617,-43.585 c -1.588,-4.443 -5.25,-7.706 -9.716,-8.624 -4.45,-0.909 -9.028,0.632 -12.114,4.08 l -30.499,34.119 c -3.685,-0.423 -7.377,-0.81 -11.076,-1.131 l -23.549,-39.676 c -2.384,-4.018 -6.597,-6.464 -11.139,-6.464 -4.529,0 -8.75,2.446 -11.118,6.464 l -23.555,39.676 c -3.701,0.321 -7.408,0.708 -11.088,1.131 l -30.499,-34.119 c -3.09,-3.448 -7.684,-4.989 -12.122,-4.08 -4.46,0.93 -8.128,4.181 -9.707,8.624 l -15.629,43.585 c -3.621,1.087 -7.205,2.23 -10.78,3.407 l -36.22,-27.185 c -3.683,-2.774 -8.478,-3.361 -12.668,-1.536 -4.181,1.806 -7.188,5.762 -7.913,10.418 l -7.186,45.961 c -3.322,1.8 -6.614,3.649 -9.895,5.537 l -40.634,-19.321 c -4.127,-1.966 -8.945,-1.562 -12.704,1.074 -3.773,2.621 -5.98,7.108 -5.81,11.829 l 1.562,46.641 c -2.894,2.412 -5.756,4.872 -8.591,7.365 l -43.554,-10.709 c -4.423,-1.074 -9.062,0.3 -12.265,3.639 -3.221,3.351 -4.526,8.182 -3.491,12.794 l 10.257,45.432 c -2.378,2.945 -4.733,5.921 -7.042,8.937 l -44.724,-1.625 c -4.513,-0.135 -8.821,2.121 -11.343,6.058 -2.527,3.919 -2.91,8.937 -1.029,13.254 l 18.528,42.388 c -1.799,3.403 -3.586,6.834 -5.309,10.319 l -44.063,7.479 c -4.479,0.754 -8.252,3.876 -9.994,8.247 -1.728,4.379 -1.167,9.371 1.474,13.211 l 26.066,37.754 c -0.201,0.667 -0.387,1.339 -0.587,2.008 l -73.696,78.285 c 0,0 -11.296,8.851 5.147,29.654 14.5,18.351 88.951,91.096 128.271,129.205 16.606,19.348 27.984,31.329 29.172,30.293 1.876,-1.645 -7.972,-36.847 -40.682,-78.149 -25.216,-37.056 -57.941,-94.049 -50.267,-100.618 0,0 8.729,-11.081 26.242,-19.057 0.641,0.512 -0.662,-0.507 0,0 0,0 369.595,170.491 712.429,2.884 39.164,-7.025 62.873,13.955 62.873,13.955 8.176,4.74 -12.996,63.344 -30.407,102.137 -23.679,44.05 -27.151,78.422 -25.144,79.614 1.268,0.757 9.883,-12.353 22.172,-33.217 C -67.814,332.649 -10.492,252.1 0,232.534 11.895,210.352 0,204.135 0,204.135"
   style="fill:#f74c00;fill-rule:nonzero"
   id="path1352" />
        </g><path
   fill="#664500"
   d="m 217.35269,297.66586 c -8.0966,0 -15.63283,-5.12074 -18.33814,-13.21736 -3.9227,-11.57487 -19.65216,-44.75356 -39.63279,-44.75356 -20.52175,0 -36.48307,35.3043 -39.63282,44.75356 -3.38165,10.10629 -14.26086,15.61351 -24.44443,12.21256 -10.125589,-3.36233 -15.594174,-14.29952 -12.212543,-24.44443 2.415463,-7.26569 25.198043,-71.16901 76.289793,-71.16901 51.09172,0 73.8743,63.90332 76.30908,71.18834 3.38163,10.12558 -2.08695,21.0821 -12.21256,24.4444 -2.0483,0.65701 -4.11593,0.9855 -6.12559,0.9855 z m 193.23652,0 c -8.09659,0 -15.63284,-5.12074 -18.31882,-13.21736 -3.92271,-11.57487 -19.6908,-44.75356 -39.65215,-44.75356 -20.52171,0 -36.50237,35.3043 -39.65212,44.75356 -3.38163,10.10629 -14.2222,15.61351 -24.4444,12.21256 -10.10629,-3.36233 -15.59419,-14.29952 -12.21256,-24.44443 2.43478,-7.26569 25.19804,-71.16901 76.30908,-71.16901 51.11107,0 73.87433,63.90332 76.28979,71.18834 3.38164,10.12558 -2.08695,21.0821 -12.21254,24.4444 -2.02898,0.65701 -4.09663,0.9855 -6.10628,0.9855 z"
   id="path3328"
   style="fill:#000000;stroke-width:19.3236"
   sodipodi:nodetypes="scscccsccsscscscsccs" /><path
   fill="#664500"
   d="m 259.32959,385.77118 c 11.98149,-4.35601 23.59501,-12.22219 23.59501,-26.43207 0,-27.69021 -44.08472,-31.38013 -49.11067,-31.70789 -2.45912,-0.28546 -4.56821,2.04056 -4.72976,4.94808 -0.15258,2.89696 1.70523,5.40271 4.16436,5.60359 0.31411,0.0212 31.72627,3.16128 31.72627,21.15622 0,17.99496 -31.41216,21.13508 -31.72627,21.15623 -0.11668,0.0105 -0.20643,0.0846 -0.3231,0.10573 -0.47567,0.0634 -0.91545,0.1903 -1.33726,0.43348 l -0.13463,0.0952 c -0.43079,0.28546 -0.8167,0.62379 -1.13981,1.05728 -0.12565,0.15859 -0.20643,0.32776 -0.31412,0.49692 -0.20643,0.33833 -0.3949,0.67666 -0.5385,1.08901 -0.1077,0.30661 -0.16154,0.64493 -0.21539,0.97269 -0.0358,0.24317 -0.1436,0.46521 -0.16155,0.70839 0,0.11629 0.0358,0.22202 0.0358,0.32774 0,0.10574 -0.0449,0.22204 -0.0358,0.32777 0.009,0.25374 0.11667,0.47577 0.16155,0.71895 0.0538,0.32775 0.0987,0.64494 0.20643,0.95156 0.11666,0.31717 0.27822,0.60265 0.43976,0.8881 0.15258,0.25376 0.28719,0.52865 0.46668,0.75069 0.20643,0.24317 0.44876,0.43347 0.70005,0.64493 0.21541,0.17974 0.41285,0.35947 0.66415,0.49692 0.28719,0.15861 0.59234,0.22203 0.90646,0.28548 0.2154,0.0634 0.3949,0.1903 0.61927,0.21146 0.31412,0.0105 31.72628,3.15069 31.72628,21.14564 0,17.99494 -31.41216,21.13507 -31.72627,21.15621 -2.45913,0.21146 -4.31694,2.71721 -4.16436,5.6036 0.15257,2.8018 2.12705,4.95865 4.47847,4.95865 l 0.25129,-0.0105 c 5.02595,-0.32776 49.11067,-4.01767 49.11067,-31.70789 0,-14.20988 -11.61352,-22.07606 -23.59501,-26.43206 z"
   id="path3328-2"
   style="clip-rule:evenodd;fill:#000000;fill-rule:evenodd;stroke-width:9.74115;stroke-linejoin:round;stroke-miterlimit:1.41421"
   sodipodi:nodetypes="sscccscccccccccscccccccccsccccsss" /><g
   id="g1626"
   transform="matrix(2.4549554,-4.859859,4.859859,2.4549554,-5001.6351,-1432.7538)"><g
     id="g4233"
     transform="translate(-49.254343,-72.904185)"><path
       fill="#ef9645"
       d="m 187.39908,1106.9297 c -2.337,0 -8.909,-0.521 -11.246,0.648 -2.337,1.169 -5.842,4.674 -5.842,5.842 0,1.168 -0.14,4.502 -0.14,6.839 0,2.752 4.786,3.655 10.486,3.901 5.587,0.241 12.796,-1.014 16.151,-2.446 1.976,-0.844 3.437,-2.106 3.581,-7.89 0.124,-4.956 -2.181,-18.241 -2.475,-19.446 -1.149,-4.71 -2.571,-1.716 -2.581,-1.746 -0.51,-1.531 -2.164,-2.358 -3.695,-1.847 -1.531,0.51 -2.355,2.164 -1.848,3.695 0.046,0.137 1.603,7.256 2.772,13.098 0.643,3.151 0.174,4.874 -3.18,4.76 -4.084,-0.139 -3.544,-2.685 -1.983,-5.408 z"
       id="path1590" /><path
       fill="#ef9645"
       d="m 184.31008,1111.1387 c 0,0 3.56,3.082 5.772,2.387 2.212,-0.695 5.671,-18.206 2.508,-22.044 -2.236,-2.714 -6.193,-1.025 -5.525,2.495 0.244,1.287 1.261,5.03 2.272,8.822 0.178,0.668 -0.21,3.411 -0.263,4.563 -0.157,3.447 -4.764,3.777 -4.764,3.777 z"
       id="path1592" /><path
       fill="#f9ca55"
       d="m 184.72008,1111.3057 c 0,0 5.464,3.077 7.509,2.033 2.045,-1.044 3.127,-16.824 0.717,-21.101 -1.972,-3.499 -5.84,-1.616 -5.168,1.559 0.332,1.572 1.645,5.284 2.317,8.644 0.178,0.891 -0.045,3.119 -0.274,4.777 -0.467,3.381 -5.101,4.088 -5.101,4.088 z"
       id="path1594" /><path
       fill="#ef9645"
       d="m 186.02708,1111.3967 c 0,0 3.56,2.968 5.772,2.215 2.212,-0.753 5.691,-19.397 2.528,-23.557 -2.236,-2.942 -6.06,-0.719 -5.391,2.718 0.229,1.176 1.468,4.603 2.272,9.267 0.223,1.292 -0.178,3.386 -0.416,5.263 -0.47,3.711 -4.765,4.094 -4.765,4.094 z"
       id="path1596" /><path
       fill="#f9ca55"
       d="m 186.49708,1111.5987 c 0,0 5.405,2.943 7.45,1.812 2.045,-1.131 3.147,-18.097 0.737,-22.732 -1.972,-3.792 -5.706,-1.079 -5.035,2.361 0.352,1.804 1.614,5.305 2.317,8.777 0.18,0.887 -0.089,3.698 -0.401,5.748 -0.556,3.655 -5.068,4.034 -5.068,4.034 z"
       id="path1598" /><path
       fill="#ef9645"
       d="m 197.80608,1092.7947 c -0.914,-4.262 -4.117,-4.274 -5.589,-2.459 -1.573,1.939 -0.349,7.61 0.418,11.126 1.604,7.351 -1.025,10.381 -5.97,10.559 -2.611,0.094 7.6,2.367 10.107,1.629 2.506,-0.738 2.099,-11.001 2.037,-12.578 -0.047,-1.168 -1.003,-8.277 -1.003,-8.277 z"
       id="path1600" /><path
       fill="#f9ca55"
       d="m 197.69808,1092.9717 c -1.161,-4.312 -3.992,-4.181 -5.175,-1.916 -0.752,1.439 -0.177,4.789 0.596,9.784 1.188,7.676 0.272,11.543 -5.546,12.184 -2.597,0.286 4.201,3.197 6.531,2.016 2.331,-1.181 5.761,-2.303 5.882,-3.465 0.18,-1.724 -0.356,-11.317 -0.624,-12.297 -1.044,-3.828 -1.664,-6.306 -1.664,-6.306 z"
       id="path1602" /><path
       fill="#ef9645"
       d="m 187.57808,1106.6177 c -2.337,0 -9.087,-0.209 -11.424,0.96 -2.337,1.169 -5.706,4.682 -5.842,5.842 -0.095,0.808 0.019,3.83 0.262,7.092 0.205,2.744 4.295,2.913 9.994,3.159 5.587,0.241 12.326,-1.095 15.681,-2.527 1.976,-0.844 3.531,-1.798 3.676,-7.582 0.124,-4.956 -0.114,-6.351 -0.517,-7.524 -1.253,-3.644 -4.064,-13.376 -4.075,-13.406 -0.51,-1.531 -2.164,-2.358 -3.695,-1.847 -1.531,0.51 -2.4,2.413 -2.078,3.993 0.26,1.278 0.891,2.139 2.584,6.95 0.173,0.445 0.49,3.965 0.624,7.129 0.093,2.193 -2.101,3.098 -3.906,3.371 -3.74,0.567 -2.846,-2.887 -1.284,-5.61 z"
       id="path1604" /><path
       fill="#ef9645"
       d="m 170.31108,1113.4207 c 0,1.168 12.503,-2.488 14.354,-3.539 4.705,-2.671 5.195,-11.994 5.195,-13.815 0,-1.821 -0.595,-3.936 -2.405,-4.129 -1.699,-0.181 -2.716,0.849 -2.998,2.881 -1.666,12.008 -14.146,8.815 -14.146,18.602 z"
       id="path1606" /><path
       fill="#ffdc5d"
       d="m 199.55308,1105.7597 c -0.247,-2.237 -0.68,-5.368 -0.992,-6.081 -0.897,-2.051 -3.219,-7.031 -3.227,-7.047 -0.827,-1.641 -1.91,-2.062 -3.441,-1.552 -1.531,0.51 -2.126,2.519 -1.418,4.366 0.475,1.24 2.308,5.277 2.532,6.06 0.172,0.517 0.725,4.789 0.654,8.041 -0.045,2.05 -2.74,3.163 -4.361,3.21 -4.463,0.13 -4.375,-2.753 -2.813,-5.475 l 0.313,-0.565 c 2.2,-3.811 2.421,-8.913 2.421,-10.291 0,-1.822 -0.134,-3.348 -1.842,-3.98 -1.604,-0.594 -2.639,0.34 -2.921,2.372 -1.667,12.009 -14.147,8.816 -14.147,18.603 -0.095,0.808 0.064,2.347 0.307,5.608 0.205,2.744 4.373,3.615 10.073,3.861 5.587,0.241 12.203,-0.314 15.557,-1.746 1.976,-0.844 3.531,-1.798 3.676,-7.582 0.125,-4.956 -0.235,-6.569 -0.371,-7.802 z"
       id="path1608" /></g></g><g
   id="g2872"
   transform="matrix(14.411282,0.14068144,-0.14068144,14.411282,-60.170594,-1.0020686)"><path
     fill="#ccd6dd"
     d="m 31.178,12 c 0,0 -2.622,1 -9.178,1 -6.556,0 -9.178,-1 -9.178,-1 V 6 h 18.355 v 6 z"
     id="path2846" /><path
     fill="#99aab5"
     d="m 16,11.25 c 0,0.276 -0.224,0.5 -0.5,0.5 -0.276,0 -0.5,-0.224 -0.5,-0.5 v -3 c 0,-0.276 0.224,-0.5 0.5,-0.5 0.276,0 0.5,0.224 0.5,0.5 z m 13,0 c 0,0.276 -0.224,0.5 -0.5,0.5 -0.276,0 -0.5,-0.224 -0.5,-0.5 v -3 c 0,-0.276 0.224,-0.5 0.5,-0.5 0.276,0 0.5,0.224 0.5,0.5 z m -10,0.4 c 0,0.276 -0.224,0.5 -0.5,0.5 -0.276,0 -0.5,-0.224 -0.5,-0.5 v -3 c 0,-0.276 0.224,-0.5 0.5,-0.5 0.276,0 0.5,0.224 0.5,0.5 z m 3.5,0.1 c 0,0.276 -0.224,0.5 -0.5,0.5 -0.276,0 -0.5,-0.224 -0.5,-0.5 v -3 c 0,-0.276 0.224,-0.5 0.5,-0.5 0.276,0 0.5,0.224 0.5,0.5 z m 3.5,-0.1 c 0,0.276 -0.224,0.5 -0.5,0.5 -0.276,0 -0.5,-0.224 -0.5,-0.5 v -3 c 0,-0.276 0.224,-0.5 0.5,-0.5 0.276,0 0.5,0.224 0.5,0.5 z"
     id="path2848" /><path
     fill="#e1e8ed"
     d="M 28.25,0 C 27.093,0 26.013,0.32 25.083,0.869 24.153,0.32 23.073,0 21.916,0 20.794,0 19.743,0.3 18.833,0.818 17.923,0.3 16.872,0 15.75,0 12.298,0 9.5,2.798 9.5,6.25 9.5,9.702 20.794,9.5 21.916,9.5 23.073,9.5 34.5,9.702 34.5,6.25 34.5,2.798 31.701,0 28.25,0 Z"
     id="path2850" /><path
     fill="#ccd6dd"
     d="M 14.894,4.489 C 14.93,4.497 14.965,4.5 15,4.5 c 0.231,0 0.438,-0.16 0.488,-0.394 0.031,-0.145 0.334,-1.441 1.319,-2.212 0.76,-0.595 1.749,-0.987 2.007,-1.084 -0.396,-0.225 -0.824,-0.4 -1.268,-0.535 -0.423,0.21 -0.914,0.486 -1.355,0.832 -1.236,0.967 -1.617,2.492 -1.681,2.788 -0.057,0.27 0.115,0.536 0.384,0.594 z M 27.051,1.903 c 0.986,0.772 1.289,2.066 1.319,2.211 0.051,0.235 0.258,0.395 0.489,0.395 0.034,0 0.069,-0.003 0.105,-0.011 C 29.234,4.44 29.405,4.174 29.348,3.904 29.284,3.608 28.905,2.084 27.667,1.115 27.241,0.782 26.771,0.513 26.358,0.306 c -0.434,0.139 -0.851,0.317 -1.237,0.542 0.337,0.132 1.227,0.504 1.93,1.055 z"
     id="path2860" /></g><g
   id="g3916"
   transform="matrix(6.5808675,0,0,6.5808675,608.14415,340.96476)"><path
     fill="#ef9645"
     d="m 23.216,20.937 -1.721,-6.86 -3.947,-8.816 c -0.502,-1.297 0.143,-2.756 1.44,-3.257 1.296,-0.506 2.756,0.143 3.258,1.44 l 6.203,15.769 z"
     id="path3904" /><path
     fill="#ffdc5d"
     d="M 31.565,18.449 C 31.077,15.868 29.577,11.926 29.577,11.926 L 23.79,1.437 C 23.164,0.195 21.648,-0.303 20.407,0.322 19.165,0.948 18.665,2.463 19.292,3.705 l 5.33,9.547 c 0.013,0.022 1.413,5.491 1.413,5.491 -1.078,-0.995 -2.607,-2.359 -4.015,-3.618 -3.098,-2.772 -4.936,-3.811 -4.936,-3.811 -0.71,-0.443 -1.179,-0.506 -2.132,-0.059 L 9.08,13.823 c -0.157,0.078 -0.29,0.188 -0.395,0.329 l -2.313,3.086 c -0.893,1.067 -0.752,2.655 0.315,3.547 1.066,0.893 2.653,0.75 3.548,-0.314 0.048,-0.058 1.78,-2.56 1.936,-2.64 1.037,-0.533 2.965,-1.447 3.808,-1.42 0.897,0.029 6.281,5.957 6.281,5.957 0.206,0.259 0.23,0.618 0.06,0.902 l -2.915,5.228 c -0.079,0.131 -0.193,0.236 -0.33,0.303 l -2.674,1.5 c -0.154,0.075 -0.328,0.099 -0.496,0.067 l -5.27,-2.272 C 10.373,27.983 10.155,27.776 10.043,27.513 9.256,25.663 9.145,23.894 9.144,23.874 9.079,22.484 7.9,21.411 6.51,21.476 c -1.387,0.056 -2.463,1.243 -2.398,2.633 0.013,0.263 0.351,5.64 4.727,9.292 2.528,2.108 5.654,2.924 9.649,2.387 4.612,-0.619 7.469,-1.233 11.506,-9.558 1.117,-2.305 1.903,-6.024 1.571,-7.781 z"
     id="path3906" /></g></svg>
