<?xml version="1.0" encoding="UTF-8" standalone="no"?>
<svg
   viewBox="0 0 36 36"
   version="1.1"
   id="svg139"
   sodipodi:docname="gopherJuice.svg"
   inkscape:version="1.1 (c68e22c387, 2021-05-23)"
   inkscape:export-filename="/home/fdschonborn/gopherJuice.png"
   inkscape:export-xdpi="1365.33"
   inkscape:export-ydpi="1365.33"
   xmlns:inkscape="http://www.inkscape.org/namespaces/inkscape"
   xmlns:sodipodi="http://sodipodi.sourceforge.net/DTD/sodipodi-0.dtd"
   xmlns="http://www.w3.org/2000/svg"
   xmlns:svg="http://www.w3.org/2000/svg">
  <defs
     id="defs143">
    <filter
       inkscape:label="Opacity"
       style="color-interpolation-filters:sRGB;"
       id="filter1924"
       x="-0.014063174"
       y="-0.01528667"
       width="1.0281917"
       height="1.0305721">
      <feColorMatrix
         values="1 0 0 0 0 0 1 0 0 0 0 0 1 0 0 0 0 0 5 -1 "
         result="colormatrix"
         id="feColorMatrix1920" />
      <feComposite
         in2="colormatrix"
         operator="arithmetic"
         k2="0.499836"
         result="composite"
         id="feComposite1922" />
    </filter>
    <filter
       inkscape:label="Opacity"
       style="color-interpolation-filters:sRGB;"
       id="filter1930"
       x="-0.01442435"
       y="-0.015232865"
       width="1.0289609"
       height="1.0304704">
      <feColorMatrix
         values="1 0 0 0 0 0 1 0 0 0 0 0 1 0 0 0 0 0 5 -1 "
         result="colormatrix"
         id="feColorMatrix1926" />
      <feComposite
         in2="colormatrix"
         operator="arithmetic"
         k2="0.499836"
         result="composite"
         id="feComposite1928" />
    </filter>
  </defs>
  <sodipodi:namedview
     id="namedview141"
     pagecolor="#ffffff"
     bordercolor="#666666"
     borderopacity="1.0"
     inkscape:pageshadow="2"
     inkscape:pageopacity="0.0"
     inkscape:pagecheckerboard="0"
     showgrid="false"
     inkscape:zoom="10.875"
     inkscape:cx="35.356322"
     inkscape:cy="16.045977"
     inkscape:window-width="1920"
     inkscape:window-height="998"
     inkscape:window-x="0"
     inkscape:window-y="0"
     inkscape:window-maximized="1"
     inkscape:current-layer="svg139" />
  <path
     fill="#8899A6"
     d="M6 10l3 23c0 1.657 4.029 3 9 3s9-1.343 9-3l3-23H6z"
     id="path109" />
  <path
     fill="#D3A471"
     d="M7 10l3 22.644c0 1.243 3.582 2.25 8 2.25s8-1.007 8-2.25L29 10H7z"
     id="path111"
     style="fill:#6ad7e5" />
  <path
     fill="#CCD6DD"
     d="M27.756 19.538L29 10H7l1.244 9.538z"
     id="path113" />
  <path
     fill="#E1E8ED"
     d="M25.982 19.538L27 10H9l1.018 9.538z"
     id="path115" />
  <ellipse
     fill="#ECD2A7"
     cx="18"
     cy="19.455"
     rx="9.764"
     ry="2.355"
     id="ellipse117"
     style="fill:#92e2ec;fill-opacity:1" />
  <path
     fill="#AA8DD8"
     d="M21.836 19.144l1.627-18.067-2.988-.27-1.651 18.337z"
     id="path119" />
  <path
     fill="#55ACEE"
     d="M5.696 10.003c-.179 1.05-.162 2.363.413 2.527.46.132 1.104-.09 1.639.177.535.267.963.965 1.506 1.151 1.04.356 1.678-.299 2.303-.221 1.188.148 1.721 1.284 2.702 1.373.98.089 1.781-.738 2.701-.709.984.032.936.767 2.48.797 1.516.029 1.766-.959 2.657-1.019.891-.059 1.471.547 2.303.399.832-.149 1.177-1.017 1.86-1.196.683-.178 1.045.326 1.639.177.594-.148.907-1.17 1.264-1.438.356-.267 1.571 1.26 1.277-1.663-.536-5.328-19.13-.563-20.882-.681-1.753-.119-3.491-1.845-3.862.326z"
     id="path121" />
  <ellipse
     fill="#88C9F9"
     cx="18"
     cy="10.011"
     rx="12.35"
     ry="3.8"
     id="ellipse123" />
  <path
     fill="#9266CC"
     d="M23.463 1.077L20.475.808l-.853 9.474c-.001.007-.006.013-.006.019 0 .276.672.5 1.5.5s1.5-.224 1.5-.5V10.3h.017l.83-9.223z"
     id="path125" />
  <path
     fill="#553788"
     d="M23.463 1.077c-.025.275-.714.438-1.539.363-.825-.074-1.474-.358-1.449-.633.025-.275.714-.438 1.539-.363s1.474.358 1.449.633z"
     id="path127" />
  <ellipse
     fill="#AA8DD8"
     cx="20.314"
     cy="19.19"
     rx="1.5"
     ry=".5"
     id="ellipse129" />
  <g
     id="g1439"
     transform="matrix(0.05361535,-0.0067906,0.0067906,0.05361535,6.5707762,26.056875)"
     style="filter:url(#filter1924)">
    <path
       fill-rule="evenodd"
       clip-rule="evenodd"
       fill="#ffffff"
       stroke="#000000"
       stroke-width="2.8214"
       stroke-linecap="round"
       d="M 83.103,104.35 C 97.15,159.2 184.967,145.157 181.657,90.137 177.691,24.242 69.673,36.957 83.103,104.35"
       id="path488" />
    <g
       id="g496">
      <ellipse
         fill-rule="evenodd"
         clip-rule="evenodd"
         cx="107.324"
         cy="95.403999"
         rx="14.829"
         ry="16.062"
         id="ellipse492" />
      <ellipse
         fill-rule="evenodd"
         clip-rule="evenodd"
         fill="#ffffff"
         cx="114.069"
         cy="99.028999"
         rx="3.4960001"
         ry="4.0819998"
         id="ellipse494" />
    </g>
  </g>
  <g
     id="g1627"
     transform="matrix(-0.05404367,0,0,0.05404367,35.538775,21.512884)"
     style="filter:url(#filter1930)">
    <path
       fill-rule="evenodd"
       clip-rule="evenodd"
       fill="#ffffff"
       stroke="#000000"
       stroke-width="2.9081"
       stroke-linecap="round"
       d="m 212.76682,113.35168 c 34.71946,53.67866 122.87755,-2.10076 84.31027,-54.721615 -34.58403,-47.186849 -110.56911,2.428292 -84.31027,54.721615"
       id="path486" />
    <g
       id="g502"
       transform="rotate(-23.134176,256.35191,87.637807)">
      <ellipse
         fill-rule="evenodd"
         clip-rule="evenodd"
         cx="231.571"
         cy="91.403999"
         rx="14.582"
         ry="16.062"
         id="ellipse498" />
      <ellipse
         fill-rule="evenodd"
         clip-rule="evenodd"
         fill="#ffffff"
         cx="238.20399"
         cy="95.028999"
         rx="3.438"
         ry="4.0819998"
         id="ellipse500" />
    </g>
  </g>
</svg>
