<?xml version="1.0" encoding="UTF-8" standalone="no"?>
<svg
   xmlns:dc="http://purl.org/dc/elements/1.1/"
   xmlns:cc="http://creativecommons.org/ns#"
   xmlns:rdf="http://www.w3.org/1999/02/22-rdf-syntax-ns#"
   xmlns:svg="http://www.w3.org/2000/svg"
   xmlns="http://www.w3.org/2000/svg"
   xmlns:sodipodi="http://sodipodi.sourceforge.net/DTD/sodipodi-0.dtd"
   xmlns:inkscape="http://www.inkscape.org/namespaces/inkscape"
   viewBox="0 0 36 36"
   version="1.1"
   id="svg100"
   sodipodi:docname="pong_ping.svg"
   inkscape:version="1.0.1 (3bc2e813f5, 2020-09-07)"
   inkscape:export-filename="Z:\Imágenes\pong_ping.png"
   inkscape:export-xdpi="1365.3334"
   inkscape:export-ydpi="1365.3334">
  <metadata
     id="metadata106">
    <rdf:RDF>
      <cc:Work
         rdf:about="">
        <dc:format>image/svg+xml</dc:format>
        <dc:type
           rdf:resource="http://purl.org/dc/dcmitype/StillImage" />
        <dc:title></dc:title>
      </cc:Work>
    </rdf:RDF>
  </metadata>
  <defs
     id="defs104" />
  <sodipodi:namedview
     pagecolor="#ffffff"
     bordercolor="#666666"
     borderopacity="1"
     objecttolerance="10"
     gridtolerance="10"
     guidetolerance="10"
     inkscape:pageopacity="0"
     inkscape:pageshadow="2"
     inkscape:window-width="1920"
     inkscape:window-height="1017"
     id="namedview102"
     showgrid="false"
     inkscape:zoom="11.805556"
     inkscape:cx="4.466631"
     inkscape:cy="23.049296"
     inkscape:window-x="-8"
     inkscape:window-y="-8"
     inkscape:window-maximized="1"
     inkscape:current-layer="svg100" />
  <g
     id="g111"
     transform="translate(1.2871511)">
    <path
       fill="#dd2e44"
       d="m 11.606445,5.971 c 5.491,-5.491 14.722,-6.492 19.799,-1.414 5.077,5.077 4.077,14.308 -1.414,19.799 -3.554,3.554 -7.785,4.323 -11.707,3.058 l 0.015,0.013 -0.13,-0.052 c -0.264,-0.088 -0.527,-0.179 -0.788,-0.284 -0.698,-0.238 -1.734,-0.558 -2.942,-0.806 -1.848,-0.38 -3.541,1.606 -4.9549999,3.021 -1.414,1.414 -4.242,5.657 -4.949,6.364 -0.707,0.707 -1.414,0 -2.122,-0.707 l -0.707,-0.707 -0.70700001,-0.707 c -0.707,-0.708 -1.414,-1.415 -0.707,-2.122 0.707,-0.707 4.95000001,-3.535 6.36400001,-4.949 1.414,-1.414 3.3999999,-3.107 3.021,-4.955 -0.198,-0.965 -0.441,-1.815 -0.653,-2.481 -1.974,-4.222 -1.537,-8.952 2.5819999,-13.071 z"
       id="path92"
       style="fill:#333333" />
    <path
       fill="#d99e82"
       d="m 19.148445,27.655 c -0.289,-0.07 -0.578,-0.149 -0.864,-0.241 l 0.015,0.013 -0.13,-0.052 c -0.264,-0.088 -0.527,-0.179 -0.788,-0.284 -0.698,-0.238 -1.734,-0.558 -2.942,-0.806 -1.848,-0.38 -3.541,1.606 -4.9549999,3.021 -1.414,1.414 -4.242,5.657 -4.949,6.364 -0.707,0.707 -1.414,0 -2.122,-0.707 l -0.707,-0.707 -0.70700001,-0.707 c -0.707,-0.708 -1.414,-1.415 -0.707,-2.122 0.707,-0.707 4.95000001,-3.535 6.36400001,-4.949 1.414,-1.414 3.3999999,-3.107 3.021,-4.955 -0.198,-0.965 -0.441,-1.815 -0.653,-2.481 -0.357,-0.764 -0.633,-1.543 -0.824,-2.334 z"
       id="path94" />
    <path
       fill="#ffcc4d"
       d="m 14.435445,22.942 -1.414,-1.414 -12.02199991,12.021 1.41400001,1.414 z"
       id="path96" />
  </g>
</svg>
