<?xml version="1.0" encoding="UTF-8" standalone="no"?>
<svg
   xmlns:dc="http://purl.org/dc/elements/1.1/"
   xmlns:cc="http://creativecommons.org/ns#"
   xmlns:rdf="http://www.w3.org/1999/02/22-rdf-syntax-ns#"
   xmlns:svg="http://www.w3.org/2000/svg"
   xmlns="http://www.w3.org/2000/svg"
   xmlns:sodipodi="http://sodipodi.sourceforge.net/DTD/sodipodi-0.dtd"
   xmlns:inkscape="http://www.inkscape.org/namespaces/inkscape"
   version="1.1"
   id="Layer_2"
   x="0px"
   y="0px"
   viewBox="0 0 128 128"
   xml:space="preserve"
   sodipodi:docname="turtleFerris.svg"
   inkscape:export-filename="/media/federico/Elements/Imágenes/turtleFerris.png"
   inkscape:export-xdpi="96"
   inkscape:export-ydpi="96"
   style="enable-background:new 0 0 128 128;"
   inkscape:version="1.0.1 (3bc2e813f5, 2020-09-07)"><metadata
   id="metadata19"><rdf:RDF><cc:Work
       rdf:about=""><dc:format>image/svg+xml</dc:format><dc:type
         rdf:resource="http://purl.org/dc/dcmitype/StillImage" /><dc:title></dc:title></cc:Work></rdf:RDF></metadata><defs
   id="defs17" /><sodipodi:namedview
   pagecolor="#ffffff"
   bordercolor="#666666"
   borderopacity="1"
   objecttolerance="10"
   gridtolerance="10"
   guidetolerance="10"
   inkscape:pageopacity="0"
   inkscape:pageshadow="2"
   inkscape:window-width="1848"
   inkscape:window-height="1016"
   id="namedview15"
   showgrid="false"
   inkscape:zoom="6.25"
   inkscape:cx="16.777883"
   inkscape:cy="64.455321"
   inkscape:window-x="0"
   inkscape:window-y="0"
   inkscape:window-maximized="1"
   inkscape:current-layer="Layer_2" />
<path
   style="fill:#f74c00"
   d="M112.7,59.21c0,0,3.94-2.21,4.93-2.77c0.99-0.56,4.6-2.82,5.91-0.84c0.77,1.16-0.7,4.44-3.05,7.86  c-2.14,3.13-7.12,9.56-7.4,10.83c-0.28,1.27,1.11,6.36,1.53,8.33c0.42,1.97,1.74,6.71,1.17,8.54s-3.43,6.85-10.75,6.76  c-5.82-0.07-7.51-1.78-7.7-2.82c-0.14-0.75-0.56-3.24-0.56-3.24s-4.79,2.96-7.04,4.08s-8.31,4.22-8.31,4.22s1.17,5.35,1.36,7.51  c0.19,2.16,0.86,5.25-0.28,7.32c-1.03,1.88-4.25,5.02-11.83,4.97c-5.92-0.04-7.41-1.88-8.35-3c-0.94-1.13-1.13-6.48-1.13-7.6  s-0.19-5.07-0.19-5.07s-8.02-0.4-12.86-0.75c-4.38-0.32-10.16-0.99-10.16-0.99s0.21,2.33,0.42,4.01c0.19,1.5,0.23,4.64-1.34,6.17  c-2.11,2.06-7.56,2.21-10.56,1.92c-3-0.28-7.18-1.83-8.4-4.55c-1.22-2.72,0.38-6.29,1.03-8.35c0.58-1.81,1.6-4.41,1.22-5.16  c-0.38-0.75-4.04-1.69-9.29-6.95c-5.26-5.26-12.13-23.52,3.28-36.23c15.49-12.76,43.81,1.1,45.31,2.04  C61.2,56.41,112.7,59.21,112.7,59.21z"
   id="path2" />
<path
   style="fill:#a52b00"
   d="M66.25,25.28C52.32,25.9,41.87,32.8,36.68,40.34c-3.1,4.5-4.65,7.74-4.65,7.74s4.81,0.14,9.15,2.46  c5,2.67,10.8,5.56,14.61,18.13c2.87,9.5,3.98,18.53,11.44,20.52c8.45,2.25,28.16,1.13,37.59-8.02s11.26-16.05,8.87-25.06  s-13.17-25.05-28.16-29.28C79.06,25,72.58,25,66.25,25.28z"
   id="path4" />
<path
   style="fill:#671a00;fill-opacity:1"
   d="M111.93,51.32c-0.42-0.99-1.3-2.5-1.3-2.5s-0.07,2.05-0.25,3.13c-0.28,1.76-1.25,5.42-1.81,4.88  c-1-0.97-5.73-6.92-7.98-10.23c-1.71-2.52-7.6-9.11-7.74-11.26c-0.07-1.06,1.27-4.65,1.27-4.65s-1.22-0.7-2.35-1.34  c-0.88-0.49-2.16-1.03-2.16-1.03s-0.77,4.9-1.62,5.82c-0.75,0.81-5.32,2.6-8.87,3.94c-4.29,1.62-8.45,3.73-10,4.01  c-1.36,0.25-9.09-1.41-12-1.97c-3.66-0.7-9.18-2.26-10.45-3.17c-1.48-1.06-3.07-3.78-3.07-3.78s-0.89,0.61-1.78,1.31  c-0.88,0.69-2.02,2.06-2.02,2.06s2.31,2.32,2.44,3.18c0.18,1.2-1.27,2.83-2.46,4.38c-0.72,0.93-2.75,4.85-2.75,4.85  s0.97,0.09,2.15,0.63c1.23,0.57,2.38,1.16,2.38,1.16s2.97-6.9,4.9-7.53c1.65-0.54,6.3,0.99,9.68,1.69  c4.79,0.99,9.64,1.87,10.66,3.17c1.06,1.34,2.06,6.68,3.03,11.19C70.89,64.2,73.64,77.02,73,78c-0.63,0.99-5.7,0.63-8.59,0.28  c-2.45-0.3-6.41-1.76-6.41-1.76s0.58,2.11,0.77,2.67c0.28,0.81,1.16,3.06,1.16,3.06s5.67,2.5,22.42,0.95s25.03-12.96,27.38-18.02  c3.14-6.78,3.54-10.39,3.54-10.39S112.35,52.31,111.93,51.32z M96.65,73.21c-4.24,2.67-15.2,5.49-17.18,4.43  c-1.58-0.85-3.94-13.94-5.07-19.78c-0.72-3.74-2.45-9.42-1.41-11.19c0.7-1.2,4.79-2.99,7.81-4.4c2.87-1.33,6.97-3.13,8.17-2.99  c1.7,0.2,5.35,6.12,9.01,11.19c3.66,5.07,7.67,10.35,7.74,12.18C105.81,64.49,101.02,70.47,96.65,73.21z"
   id="path6" />



<g
   transform="matrix(0.13821131,0,0,0.13821131,35.606544,77.051778)"
   id="g424"
   style="clip-rule:evenodd;fill-rule:evenodd;stroke-linejoin:round;stroke-miterlimit:1.41421"><path
     d="m 0,-78.192 c 0,0 36.935,-40.443 73.871,0 0,0 29.022,53.927 0,80.887 0,0 -47.487,37.748 -73.871,0 0,0 -31.658,-29.659 0,-80.887"
     style="fill-rule:nonzero"
     id="path422" /></g><g
   transform="matrix(0.13821131,0,0,0.13821131,41.517012,68.317928)"
   id="g428"
   style="clip-rule:evenodd;fill-rule:evenodd;stroke-linejoin:round;stroke-miterlimit:1.41421"><path
     d="m 0,0.004 c 0,15.746 -9.282,28.514 -20.732,28.514 -11.448,0 -20.73,-12.768 -20.73,-28.514 0,-15.75 9.282,-28.518 20.73,-28.518 C -9.282,-28.514 0,-15.746 0,0.004"
     style="fill:#ffffff;fill-rule:nonzero"
     id="path426" /></g><g
   transform="matrix(0.13821131,0,0,0.13821131,12.822547,76.274339)"
   id="g432"
   style="clip-rule:evenodd;fill-rule:evenodd;stroke-linejoin:round;stroke-miterlimit:1.41421"><path
     d="m 0,-83.609 c 0,0 63.355,-28.052 80.648,34.562 0,0 18.114,72.98 -52.03,77.099 0,0 -89.444,-17.228 -28.618,-111.661"
     style="fill-rule:nonzero"
     id="path430" /></g><g
   transform="matrix(0.13821131,0,0,0.13821131,17.220431,68.460977)"
   id="g436"
   style="clip-rule:evenodd;fill-rule:evenodd;stroke-linejoin:round;stroke-miterlimit:1.41421"><path
     d="m 0,0.002 c 0,16.239 -9.572,29.409 -21.381,29.409 -11.804,0 -21.379,-13.17 -21.379,-29.409 0,-16.244 9.575,-29.411 21.379,-29.411 C -9.572,-29.409 0,-16.242 0,0.002"
     style="fill:#ffffff;fill-rule:nonzero"
     id="path434" /></g><g
   transform="matrix(0.13821131,0,0,0.13821131,24.041021,89.243812)"
   id="g440"
   style="clip-rule:evenodd;fill-rule:evenodd;stroke-linejoin:round;stroke-miterlimit:1.41421"><path
     d="m 0,-40.271 80.796,-6.484 c 0,0 -2.738,13.006 -13.279,22.769 0,0 -27.79,30.47 -59.673,-2.533 0,0 -5.217,-5.629 -7.844,-13.752"
     style="fill-rule:nonzero"
     id="path438" /></g></svg>
